<svg data-v-423bf9ae="" xmlns="http://www.w3.org/2000/svg" viewBox="0 0 711 91" class="iconLeft"><!----><!----><!----><g data-v-423bf9ae="" id="6c160f2a-06fc-449b-b888-034e047769df" fill="white" transform="matrix(4.467609727222167,0,0,4.467609727222167,106.37483453200298,12.20992743807276)"><path d="M8.39 1.20L8.39 1.20Q8.48 1.05 8.88 0.86L8.88 0.86L8.88 0.86Q9.28 0.67 9.56 0.67L9.56 0.67L9.56 0.67Q9.93 0.67 9.87 1.02L9.87 1.02L9.87 1.02Q9.72 1.93 9.48 2.97L9.48 2.97L9.48 2.97Q9.25 4.02 9.20 4.30L9.20 4.30L9.20 4.30Q8.72 6.48 8.53 7.59L8.53 7.59L8.43 8.13L8.43 8.13Q8.27 8.95 8.18 9.60L8.18 9.60L8.18 9.60Q8.09 10.26 8.09 10.89L8.09 10.89L8.09 10.89Q8.09 12.39 8.72 13.17L8.72 13.17L8.72 13.17Q8.81 13.29 8.81 13.40L8.81 13.40L8.81 13.40Q8.81 13.66 8.45 13.88L8.45 13.88L8.45 13.88Q8.09 14.10 7.74 14.10L7.74 14.10L7.74 14.10Q7.45 14.10 7.34 13.94L7.34 13.94L7.34 13.94Q6.59 13.02 6.59 11.33L6.59 11.33L6.59 11.33Q6.59 10.65 6.67 10.02L6.67 10.02L6.67 10.02Q6.75 9.39 6.92 8.41L6.92 8.41L6.92 8.41Q7.14 6.99 7.66 4.75L7.66 4.75L7.66 4.75Q7.63 4.77 7.63 4.79L7.63 4.79L7.63 4.79Q7.55 4.93 7.27 5.49L7.27 5.49L7.27 5.49Q6.85 6.34 6.48 6.83L6.48 6.83L6.48 6.83Q6.12 7.32 5.56 7.50L5.56 7.50L5.56 7.50Q5.29 7.59 5.05 7.59L5.05 7.59L5.05 7.59Q4.58 7.59 4.35 7.22L4.35 7.22L4.35 7.22Q4.13 6.85 4.09 6.22L4.09 6.22L4.05 5.54L4.05 5.54Q3.92 5.94 3.78 6.45L3.78 6.45L3.51 7.36L3.51 7.36Q3.02 9.06 2.65 10.17L2.65 10.17L2.65 10.17Q2.28 11.28 1.79 12.35L1.79 12.35L1.79 12.35Q1.71 12.54 1.35 12.70L1.35 12.70L1.35 12.70Q0.99 12.85 0.67 12.85L0.67 12.85L0.67 12.85Q0.49 12.85 0.38 12.79L0.38 12.79L0.38 12.79Q0.27 12.73 0.27 12.60L0.27 12.60L0.27 12.60Q0.27 12.53 0.31 12.45L0.31 12.45L0.31 12.45Q0.81 11.33 1.19 10.17L1.19 10.17L1.19 10.17Q1.57 9.02 2.11 7.13L2.11 7.13L2.37 6.26L2.37 6.26Q2.93 4.35 3.23 3.40L3.23 3.40L3.32 3.11L3.32 3.11Q3.46 2.65 3.58 2.35L3.58 2.35L3.58 2.35Q3.71 2.06 3.91 1.82L3.91 1.82L3.91 1.82Q4.02 1.68 4.32 1.54L4.32 1.54L4.32 1.54Q4.62 1.40 4.89 1.40L4.89 1.40L4.89 1.40Q5.29 1.40 5.31 1.76L5.31 1.76L5.31 1.76Q5.33 2.39 5.45 3.65L5.45 3.65L5.50 4.31L5.50 4.31Q5.52 4.44 5.52 4.82L5.52 4.82L5.52 4.82Q5.52 5.54 5.56 5.89L5.56 5.89L5.92 5.26L5.92 5.26Q6.09 4.96 6.64 4.02L6.64 4.02L6.64 4.02Q7.36 2.80 8.39 1.20L8.39 1.20ZM14.64 11.06L14.64 11.06Q15.29 10.53 15.92 9.52L15.92 9.52L15.92 9.52Q16.55 8.51 16.95 7.34L16.95 7.34L16.95 7.34Q17.36 6.16 17.36 5.14L17.36 5.14L17.36 5.14Q17.36 4.02 16.79 3.29L16.79 3.29L16.79 3.29Q16.23 2.56 14.99 2.42L14.99 2.42L14.99 2.42Q13.80 2.66 12.47 5.28L12.47 5.28L12.47 5.28Q11.34 7.52 11.34 9.18L11.34 9.18L11.34 9.18Q11.34 9.77 11.48 10.29L11.48 10.29L11.48 10.29Q11.66 10.96 12.10 11.31L12.10 11.31L12.10 11.31Q12.54 11.66 13.13 11.66L13.13 11.66L13.13 11.66Q13.92 11.66 14.64 11.06L14.64 11.06ZM16.98 1.71L16.98 1.71Q17.89 2.11 18.34 3.01L18.34 3.01L18.34 3.01Q18.79 3.91 18.79 5.05L18.79 5.05L18.79 5.05Q18.79 5.78 18.58 6.66L18.58 6.66L18.58 6.66Q18.12 8.51 17.01 10.09L17.01 10.09L17.01 10.09Q15.90 11.68 14.34 12.36L14.34 12.36L14.34 12.36Q13.52 12.71 12.73 12.71L12.73 12.71L12.73 12.71Q11.65 12.71 10.86 12.11L10.86 12.11L10.86 12.11Q10.08 11.51 9.91 10.39L9.91 10.39L9.91 10.39Q9.86 10.01 9.86 9.56L9.86 9.56L9.86 9.56Q9.86 8.16 10.43 6.69L10.43 6.69L10.43 6.69Q11.00 5.21 11.90 3.93L11.90 3.93L11.90 3.93Q12.63 2.90 13.66 2.13L13.66 2.13L13.66 2.13Q14.69 1.37 15.74 1.37L15.74 1.37L15.74 1.37Q16.37 1.37 16.95 1.69L16.95 1.69L16.98 1.71ZM26.82 1.20L26.82 1.20Q26.92 1.05 27.32 0.86L27.32 0.86L27.32 0.86Q27.72 0.67 28 0.67L28 0.67L28 0.67Q28.36 0.67 28.31 1.02L28.31 1.02L28.31 1.02Q28.15 1.93 27.92 2.97L27.92 2.97L27.92 2.97Q27.69 4.02 27.64 4.30L27.64 4.30L27.64 4.30Q27.16 6.48 26.96 7.59L26.96 7.59L26.87 8.13L26.87 8.13Q26.71 8.95 26.62 9.60L26.62 9.60L26.62 9.60Q26.53 10.26 26.53 10.89L26.53 10.89L26.53 10.89Q26.53 12.39 27.16 13.17L27.16 13.17L27.16 13.17Q27.24 13.29 27.24 13.40L27.24 13.40L27.24 13.40Q27.24 13.66 26.89 13.88L26.89 13.88L26.89 13.88Q26.53 14.10 26.18 14.10L26.18 14.10L26.18 14.10Q25.89 14.10 25.77 13.94L25.77 13.94L25.77 13.94Q25.03 13.02 25.03 11.33L25.03 11.33L25.03 11.33Q25.03 10.65 25.11 10.02L25.11 10.02L25.11 10.02Q25.19 9.39 25.35 8.41L25.35 8.41L25.35 8.41Q25.58 6.99 26.10 4.75L26.10 4.75L26.10 4.75Q26.07 4.77 26.07 4.79L26.07 4.79L26.07 4.79Q25.98 4.93 25.70 5.49L25.70 5.49L25.70 5.49Q25.28 6.34 24.92 6.83L24.92 6.83L24.92 6.83Q24.56 7.32 24.00 7.50L24.00 7.50L24.00 7.50Q23.73 7.59 23.49 7.59L23.49 7.59L23.49 7.59Q23.02 7.59 22.79 7.22L22.79 7.22L22.79 7.22Q22.57 6.85 22.53 6.22L22.53 6.22L22.48 5.54L22.48 5.54Q22.36 5.94 22.22 6.45L22.22 6.45L21.95 7.36L21.95 7.36Q21.46 9.06 21.09 10.17L21.09 10.17L21.09 10.17Q20.72 11.28 20.23 12.35L20.23 12.35L20.23 12.35Q20.15 12.54 19.79 12.70L19.79 12.70L19.79 12.70Q19.43 12.85 19.11 12.85L19.11 12.85L19.11 12.85Q18.93 12.85 18.82 12.79L18.82 12.79L18.82 12.79Q18.70 12.73 18.70 12.60L18.70 12.60L18.70 12.60Q18.70 12.53 18.75 12.45L18.75 12.45L18.75 12.45Q19.25 11.33 19.63 10.17L19.63 10.17L19.63 10.17Q20.01 9.02 20.55 7.13L20.55 7.13L20.80 6.26L20.80 6.26Q21.36 4.35 21.67 3.40L21.67 3.40L21.76 3.11L21.76 3.11Q21.90 2.65 22.02 2.35L22.02 2.35L22.02 2.35Q22.15 2.06 22.34 1.82L22.34 1.82L22.34 1.82Q22.46 1.68 22.76 1.54L22.76 1.54L22.76 1.54Q23.06 1.40 23.32 1.40L23.32 1.40L23.32 1.40Q23.73 1.40 23.74 1.76L23.74 1.76L23.74 1.76Q23.77 2.39 23.88 3.65L23.88 3.65L23.94 4.31L23.94 4.31Q23.95 4.44 23.95 4.82L23.95 4.82L23.95 4.82Q23.95 5.54 24.00 5.89L24.00 5.89L24.36 5.26L24.36 5.26Q24.53 4.96 25.07 4.02L25.07 4.02L25.07 4.02Q25.80 2.80 26.82 1.20L26.82 1.20ZM33.08 11.06L33.08 11.06Q33.73 10.53 34.36 9.52L34.36 9.52L34.36 9.52Q34.99 8.51 35.39 7.34L35.39 7.34L35.39 7.34Q35.80 6.16 35.80 5.14L35.80 5.14L35.80 5.14Q35.80 4.02 35.23 3.29L35.23 3.29L35.23 3.29Q34.66 2.56 33.43 2.42L33.43 2.42L33.43 2.42Q32.24 2.66 30.91 5.28L30.91 5.28L30.91 5.28Q29.78 7.52 29.78 9.18L29.78 9.18L29.78 9.18Q29.78 9.77 29.92 10.29L29.92 10.29L29.92 10.29Q30.10 10.96 30.54 11.31L30.54 11.31L30.54 11.31Q30.98 11.66 31.57 11.66L31.57 11.66L31.57 11.66Q32.35 11.66 33.08 11.06L33.08 11.06ZM35.42 1.71L35.42 1.71Q36.33 2.11 36.78 3.01L36.78 3.01L36.78 3.01Q37.23 3.91 37.23 5.05L37.23 5.05L37.23 5.05Q37.23 5.78 37.02 6.66L37.02 6.66L37.02 6.66Q36.55 8.51 35.45 10.09L35.45 10.09L35.45 10.09Q34.34 11.68 32.77 12.36L32.77 12.36L32.77 12.36Q31.96 12.71 31.16 12.71L31.16 12.71L31.16 12.71Q30.09 12.71 29.30 12.11L29.30 12.11L29.30 12.11Q28.52 11.51 28.35 10.39L28.35 10.39L28.35 10.39Q28.29 10.01 28.29 9.56L28.29 9.56L28.29 9.56Q28.29 8.16 28.87 6.69L28.87 6.69L28.87 6.69Q29.44 5.21 30.34 3.93L30.34 3.93L30.34 3.93Q31.07 2.90 32.09 2.13L32.09 2.13L32.09 2.13Q33.12 1.37 34.17 1.37L34.17 1.37L34.17 1.37Q34.80 1.37 35.39 1.69L35.39 1.69L35.42 1.71ZM46.91 7.29L46.91 7.29Q47.05 7.31 47.13 7.38L47.13 7.38L47.13 7.38Q47.21 7.45 47.21 7.56L47.21 7.56L47.21 7.56Q47.21 7.66 47.15 7.76L47.15 7.76L47.15 7.76Q47.05 7.95 46.80 8.07L46.80 8.07L46.80 8.07Q46.55 8.19 46.33 8.18L46.33 8.18L46.33 8.18Q45.47 8.15 43.65 8.06L43.65 8.06L42.78 8.02L42.78 8.02Q42.64 8.01 42.57 7.94L42.57 7.94L42.57 7.94Q42.49 7.87 42.49 7.77L42.49 7.77L42.49 7.77Q42.49 7.67 42.56 7.56L42.56 7.56L42.56 7.56Q42.66 7.38 42.91 7.26L42.91 7.26L42.91 7.26Q43.16 7.14 43.39 7.14L43.39 7.14L43.39 7.14Q45.74 7.22 46.91 7.29L46.91 7.29ZM61.39 1.20L61.39 1.20Q61.49 1.05 61.89 0.86L61.89 0.86L61.89 0.86Q62.29 0.67 62.57 0.67L62.57 0.67L62.57 0.67Q62.93 0.67 62.87 1.02L62.87 1.02L62.87 1.02Q62.72 1.93 62.49 2.97L62.49 2.97L62.49 2.97Q62.26 4.02 62.20 4.30L62.20 4.30L62.20 4.30Q61.73 6.48 61.53 7.59L61.53 7.59L61.43 8.13L61.43 8.13Q61.28 8.95 61.19 9.60L61.19 9.60L61.19 9.60Q61.10 10.26 61.10 10.89L61.10 10.89L61.10 10.89Q61.10 12.39 61.73 13.17L61.73 13.17L61.73 13.17Q61.81 13.29 61.81 13.40L61.81 13.40L61.81 13.40Q61.81 13.66 61.45 13.88L61.45 13.88L61.45 13.88Q61.10 14.10 60.75 14.10L60.75 14.10L60.75 14.10Q60.45 14.10 60.34 13.94L60.34 13.94L60.34 13.94Q59.60 13.02 59.60 11.33L59.60 11.33L59.60 11.33Q59.60 10.65 59.67 10.02L59.67 10.02L59.67 10.02Q59.75 9.39 59.92 8.41L59.92 8.41L59.92 8.41Q60.14 6.99 60.66 4.75L60.66 4.75L60.66 4.75Q60.63 4.77 60.63 4.79L60.63 4.79L60.63 4.79Q60.55 4.93 60.27 5.49L60.27 5.49L60.27 5.49Q59.85 6.34 59.49 6.83L59.49 6.83L59.49 6.83Q59.12 7.32 58.56 7.50L58.56 7.50L58.56 7.50Q58.30 7.59 58.06 7.59L58.06 7.59L58.06 7.59Q57.58 7.59 57.36 7.22L57.36 7.22L57.36 7.22Q57.13 6.85 57.09 6.22L57.09 6.22L57.05 5.54L57.05 5.54Q56.92 5.94 56.78 6.45L56.78 6.45L56.52 7.36L56.52 7.36Q56.03 9.06 55.66 10.17L55.66 10.17L55.66 10.17Q55.29 11.28 54.80 12.35L54.80 12.35L54.80 12.35Q54.71 12.54 54.35 12.70L54.35 12.70L54.35 12.70Q54.00 12.85 53.68 12.85L53.68 12.85L53.68 12.85Q53.49 12.85 53.38 12.79L53.38 12.79L53.38 12.79Q53.27 12.73 53.27 12.60L53.27 12.60L53.27 12.60Q53.27 12.53 53.31 12.45L53.31 12.45L53.31 12.45Q53.82 11.33 54.19 10.17L54.19 10.17L54.19 10.17Q54.57 9.02 55.12 7.13L55.12 7.13L55.37 6.26L55.37 6.26Q55.93 4.35 56.24 3.40L56.24 3.40L56.32 3.11L56.32 3.11Q56.46 2.65 56.59 2.35L56.59 2.35L56.59 2.35Q56.71 2.06 56.91 1.82L56.91 1.82L56.91 1.82Q57.02 1.68 57.32 1.54L57.32 1.54L57.32 1.54Q57.62 1.40 57.89 1.40L57.89 1.40L57.89 1.40Q58.30 1.40 58.31 1.76L58.31 1.76L58.31 1.76Q58.34 2.39 58.45 3.65L58.45 3.65L58.51 4.31L58.51 4.31Q58.52 4.44 58.52 4.82L58.52 4.82L58.52 4.82Q58.52 5.54 58.56 5.89L58.56 5.89L58.93 5.26L58.93 5.26Q59.09 4.96 59.64 4.02L59.64 4.02L59.64 4.02Q60.37 2.80 61.39 1.20L61.39 1.20ZM68.18 7.71L68.18 7.71Q68.18 6.23 66.44 5.38L66.44 5.38L66.44 5.38Q66.01 5.74 65.58 6.34L65.58 6.34L65.58 6.34Q65.04 7.11 64.69 8.06L64.69 8.06L64.69 8.06Q64.55 8.44 64.43 9.09L64.43 9.09L64.43 9.09Q64.30 9.74 64.30 10.30L64.30 10.30L64.30 10.30Q64.30 10.88 64.46 11.22L64.46 11.22L64.46 11.22Q64.62 11.56 64.99 11.56L64.99 11.56L64.99 11.56Q65.28 11.56 65.67 11.33L65.67 11.33L65.67 11.33Q66.75 10.70 67.47 9.76L67.47 9.76L67.47 9.76Q68.18 8.82 68.18 7.71L68.18 7.71ZM68.57 5.18L68.57 5.18Q69.08 5.66 69.35 6.26L69.35 6.26L69.35 6.26Q69.62 6.86 69.62 7.53L69.62 7.53L69.62 7.53Q69.62 8.50 69.06 9.49L69.06 9.49L69.06 9.49Q68.68 10.16 67.96 10.91L67.96 10.91L67.96 10.91Q67.23 11.65 66.34 12.16L66.34 12.16L66.34 12.16Q65.45 12.67 64.64 12.67L64.64 12.67L64.64 12.67Q64.13 12.67 63.69 12.45L63.69 12.45L63.69 12.45Q62.73 11.93 62.73 10.58L62.73 10.58L62.73 10.58Q62.73 9.62 63.17 8.46L63.17 8.46L63.17 8.46Q63.60 7.31 64.09 6.51L64.09 6.51L64.09 6.51Q65.28 4.62 66.60 4.13L66.60 4.13L66.60 4.13Q66.96 3.99 67.38 3.99L67.38 3.99L67.38 3.99Q67.87 3.99 68.21 4.23L68.21 4.23L68.21 4.23Q68.54 4.48 68.60 5.00L68.60 5.00L68.60 5.05L68.60 5.05Q68.60 5.10 68.57 5.18L68.57 5.18ZM71.86 5.98L71.86 5.98Q71.86 6.51 72.14 6.92L72.14 6.92L72.14 6.92Q72.41 7.32 72.80 7.60L72.80 7.60L72.80 7.60Q73.19 7.88 73.86 8.26L73.86 8.26L73.86 8.26Q74.77 8.78 75.26 9.20L75.26 9.20L75.26 9.20Q75.74 9.62 75.89 10.25L75.89 10.25L75.89 10.25Q75.95 10.53 75.95 10.65L75.95 10.65L75.95 10.65Q75.95 11.63 74.91 12.06L74.91 12.06L74.91 12.06Q73.88 12.49 72.56 12.49L72.56 12.49L72.56 12.49Q72.04 12.49 71.65 12.42L71.65 12.42L71.65 12.42Q71.19 12.33 70.69 12.09L70.69 12.09L70.69 12.09Q70.20 11.84 69.87 11.49L69.87 11.49L69.87 11.49Q69.54 11.13 69.54 10.75L69.54 10.75L69.54 10.75Q69.54 10.16 70.45 9.67L70.45 9.67L70.45 9.67Q70.70 9.55 70.94 9.55L70.94 9.55L70.94 9.55Q71.16 9.55 71.31 9.65L71.31 9.65L71.31 9.65Q71.46 9.74 71.46 9.88L71.46 9.88L71.46 9.88Q71.46 10.14 71.05 10.37L71.05 10.37L71.05 10.37Q70.97 10.42 70.97 10.50L70.97 10.50L70.97 10.50Q70.97 10.67 71.23 10.91L71.23 10.91L71.23 10.91Q71.50 11.14 71.65 11.23L71.65 11.23L71.65 11.23Q72.07 11.47 73.00 11.52L73.00 11.52L73.00 11.52Q73.11 11.54 73.39 11.54L73.39 11.54L73.39 11.54Q73.89 11.54 74.20 11.37L74.20 11.37L74.20 11.37Q74.51 11.20 74.47 10.75L74.47 10.75L74.47 10.75Q74.41 10.15 73.25 9.39L73.25 9.39L72.72 9.06L72.72 9.06Q71.99 8.61 71.52 8.27L71.52 8.27L71.52 8.27Q71.05 7.92 70.71 7.44L70.71 7.44L70.71 7.44Q70.38 6.96 70.38 6.36L70.38 6.36L70.38 6.36Q70.38 5.98 70.52 5.60L70.52 5.60L70.52 5.60Q70.83 4.69 71.67 4.19L71.67 4.19L71.67 4.19Q72.51 3.70 73.47 3.70L73.47 3.70L73.47 3.70Q74.47 3.70 75.14 4.20L75.14 4.20L75.14 4.20Q75.82 4.70 75.82 5.63L75.82 5.63L75.82 5.63Q75.82 5.92 75.74 6.26L75.74 6.26L75.74 6.26Q75.68 6.51 75.32 6.69L75.32 6.69L75.32 6.69Q74.96 6.87 74.63 6.87L74.63 6.87L74.63 6.87Q74.44 6.87 74.33 6.79L74.33 6.79L74.33 6.79Q74.23 6.71 74.28 6.55L74.28 6.55L74.28 6.55Q74.37 6.26 74.37 5.96L74.37 5.96L74.37 5.96Q74.37 5.50 74.13 5.18L74.13 5.18L74.13 5.18Q73.89 4.86 73.43 4.73L73.43 4.73L73.43 4.73Q73.18 4.68 73.05 4.68L73.05 4.68L73.05 4.68Q72.55 4.68 72.20 5.03L72.20 5.03L72.20 5.03Q71.86 5.39 71.86 5.98L71.86 5.98ZM82.31 6.44L82.31 6.44Q82.80 6.76 82.80 7.50L82.80 7.50L82.80 7.50Q82.80 7.97 82.61 8.60L82.61 8.60L82.49 9.07L82.49 9.07Q82.28 9.83 82.08 10.63L82.08 10.63L82.08 10.63Q81.87 11.42 81.75 12.11L81.75 12.11L81.75 12.11Q81.70 12.36 81.38 12.54L81.38 12.54L81.38 12.54Q81.05 12.73 80.71 12.73L80.71 12.73L80.71 12.73Q80.50 12.73 80.39 12.64L80.39 12.64L80.39 12.64Q80.28 12.56 80.30 12.39L80.30 12.39L80.30 12.39Q80.47 11.51 80.95 9.77L80.95 9.77L81.26 8.61L81.26 8.61Q81.40 8.05 81.40 7.80L81.40 7.80L81.40 7.80Q81.40 7.60 81.33 7.49L81.33 7.49L81.33 7.49Q81.16 7.24 80.78 7.24L80.78 7.24L80.78 7.24Q80.46 7.24 79.95 7.42L79.95 7.42L79.95 7.42Q79.34 7.60 78.39 8.13L78.39 8.13L78.13 11.69L78.13 11.69Q78.12 11.96 77.78 12.15L77.78 12.15L77.78 12.15Q77.43 12.35 77.08 12.35L77.08 12.35L77.08 12.35Q76.86 12.35 76.74 12.26L76.74 12.26L76.74 12.26Q76.62 12.17 76.64 11.98L76.64 11.98L76.64 11.98Q76.80 10.00 76.87 9.00L76.87 9.00L76.87 9.00Q76.66 8.99 76.52 8.92L76.52 8.92L76.52 8.92Q76.38 8.85 76.38 8.72L76.38 8.72L76.38 8.72Q76.38 8.54 76.61 8.33L76.61 8.33L76.61 8.33Q76.73 8.23 76.96 8.01L76.96 8.01L76.96 8.01Q77.25 4.37 77.45 1.39L77.45 1.39L77.45 1.39Q77.46 1.13 77.81 0.95L77.81 0.95L77.81 0.95Q78.15 0.76 78.48 0.76L78.48 0.76L78.48 0.76Q78.69 0.76 78.81 0.84L78.81 0.84L78.81 0.84Q78.93 0.92 78.92 1.09L78.92 1.09L78.92 1.09Q78.69 3.84 78.50 6.59L78.50 6.59L78.50 6.59Q80.11 5.11 81.62 3.92L81.62 3.92L81.62 3.92Q81.75 3.82 81.94 3.77L81.94 3.77L81.94 3.77Q82.12 3.72 82.31 3.72L82.31 3.72L82.31 3.72Q82.52 3.72 82.65 3.79L82.65 3.79L82.65 3.79Q82.78 3.85 82.78 3.98L82.78 3.98L82.78 3.98Q82.78 4.14 82.56 4.33L82.56 4.33L81.17 5.57L80.28 6.38L80.28 6.38Q80.98 6.19 81.42 6.19L81.42 6.19L81.42 6.19Q81.96 6.19 82.31 6.44L82.31 6.44ZM86.25 1.71L86.25 1.71Q86.10 1.67 85.95 1.67L85.95 1.67L85.95 1.67Q85.64 1.67 85.40 1.82L85.40 1.82L85.40 1.82Q85.09 1.99 85.05 2.16L85.05 2.16L85.05 2.16Q84.87 2.81 84.81 3.02L84.81 3.02L84.81 3.07L84.81 3.07Q84.81 3.14 84.87 3.20L84.87 3.20L84.87 3.20Q84.92 3.26 84.99 3.29L84.99 3.29L84.99 3.29Q85.11 3.35 85.25 3.35L85.25 3.35L85.25 3.35Q85.47 3.35 85.78 3.21L85.78 3.21L85.78 3.21Q86.10 3.08 86.20 2.84L86.20 2.84L86.20 2.84Q86.28 2.60 86.44 2.00L86.44 2.00L86.44 1.97L86.44 1.97Q86.44 1.90 86.38 1.83L86.38 1.83L86.38 1.83Q86.32 1.75 86.25 1.71L86.25 1.71ZM86.17 4.30L85.71 7.32L85.71 7.32Q85.62 7.88 85.39 9.35L85.39 9.35L85.39 9.35Q85.16 10.81 85.01 12.00L85.01 12.00L85.01 12.00Q84.97 12.26 84.64 12.45L84.64 12.45L84.64 12.45Q84.31 12.64 83.97 12.64L83.97 12.64L83.97 12.64Q83.75 12.64 83.63 12.55L83.63 12.55L83.63 12.55Q83.51 12.46 83.54 12.28L83.54 12.28L83.54 12.28Q83.78 10.88 84.05 9.08L84.05 9.08L84.05 9.08Q84.32 7.28 84.43 6.51L84.43 6.51L84.73 4.59L84.73 4.59Q84.77 4.34 85.11 4.16L85.11 4.16L85.11 4.16Q85.46 3.98 85.78 3.98L85.78 3.98L85.78 3.98Q85.97 3.98 86.09 4.06L86.09 4.06L86.09 4.06Q86.20 4.14 86.17 4.30L86.17 4.30ZM92.05 4.06L92.05 4.06Q92.61 4.37 92.61 5.36L92.61 5.36L92.61 5.36Q92.61 5.73 92.54 6.17L92.54 6.17L92.54 6.17Q92.47 6.61 92.39 7L92.39 7L92.29 7.56L91.70 11.91L91.70 11.91Q91.98 11.98 91.94 12.26L91.94 12.26L91.94 12.26Q91.78 13.03 90.85 13.24L90.85 13.24L90.71 13.26L90.71 13.26Q90.47 13.26 90.29 13.16L90.29 13.16L90.29 13.16Q90.10 13.06 90.13 12.85L90.13 12.85L90.13 12.85Q90.72 8.60 91 6.47L91 6.47L91 6.47Q91.01 6.41 91.06 6.15L91.06 6.15L91.06 6.15Q91.11 5.88 91.11 5.64L91.11 5.64L91.11 5.64Q91.11 5.19 90.87 5.18L90.87 5.18L90.87 5.18Q90.69 5.15 90.28 5.68L90.28 5.68L90.28 5.68Q89.87 6.20 89.82 6.26L89.82 6.26L89.82 6.26Q88.98 7.21 88.26 8.39L88.26 8.39L88.26 8.39Q87.92 10.43 87.72 11.69L87.72 11.69L87.65 12.14L87.65 12.14Q87.61 12.40 87.26 12.60L87.26 12.60L87.26 12.60Q86.91 12.80 86.58 12.80L86.58 12.80L86.58 12.80Q86.37 12.80 86.25 12.71L86.25 12.71L86.25 12.71Q86.13 12.61 86.16 12.43L86.16 12.43L86.16 12.43Q86.52 10.29 86.73 8.93L86.73 8.93L86.73 8.93Q86.65 8.85 86.65 8.74L86.65 8.74L86.65 8.74Q86.65 8.67 86.69 8.58L86.69 8.58L86.69 8.58Q86.73 8.51 86.77 8.46L86.77 8.46L86.77 8.46Q86.80 8.40 86.83 8.36L86.83 8.36L87.39 4.97L87.39 4.97Q87.43 4.72 87.77 4.54L87.77 4.54L87.77 4.54Q88.10 4.35 88.44 4.35L88.44 4.35L88.44 4.35Q88.65 4.35 88.76 4.44L88.76 4.44L88.76 4.44Q88.87 4.52 88.84 4.69L88.84 4.69L88.84 4.69Q88.77 5.15 88.65 5.88L88.65 5.88L89.24 5.25L89.24 5.25Q89.82 4.66 90.36 4.28L90.36 4.28L90.36 4.28Q90.89 3.91 91.43 3.91L91.43 3.91L91.43 3.91Q91.78 3.91 92.05 4.06L92.05 4.06ZM104.92 1.20L104.92 1.20Q105.01 1.05 105.41 0.86L105.41 0.86L105.41 0.86Q105.81 0.67 106.09 0.67L106.09 0.67L106.09 0.67Q106.46 0.67 106.40 1.02L106.40 1.02L106.40 1.02Q106.25 1.93 106.02 2.97L106.02 2.97L106.02 2.97Q105.78 4.02 105.73 4.30L105.73 4.30L105.73 4.30Q105.25 6.48 105.06 7.59L105.06 7.59L104.96 8.13L104.96 8.13Q104.80 8.95 104.71 9.60L104.71 9.60L104.71 9.60Q104.62 10.26 104.62 10.89L104.62 10.89L104.62 10.89Q104.62 12.39 105.25 13.17L105.25 13.17L105.25 13.17Q105.34 13.29 105.34 13.40L105.34 13.40L105.34 13.40Q105.34 13.66 104.98 13.88L104.98 13.88L104.98 13.88Q104.62 14.10 104.27 14.10L104.27 14.10L104.27 14.10Q103.98 14.10 103.87 13.94L103.87 13.94L103.87 13.94Q103.12 13.02 103.12 11.33L103.12 11.33L103.12 11.33Q103.12 10.65 103.20 10.02L103.20 10.02L103.20 10.02Q103.28 9.39 103.45 8.41L103.45 8.41L103.45 8.41Q103.67 6.99 104.19 4.75L104.19 4.75L104.19 4.75Q104.16 4.77 104.16 4.79L104.16 4.79L104.16 4.79Q104.08 4.93 103.80 5.49L103.80 5.49L103.80 5.49Q103.38 6.34 103.01 6.83L103.01 6.83L103.01 6.83Q102.65 7.32 102.09 7.50L102.09 7.50L102.09 7.50Q101.82 7.59 101.58 7.59L101.58 7.59L101.58 7.59Q101.11 7.59 100.88 7.22L100.88 7.22L100.88 7.22Q100.66 6.85 100.62 6.22L100.62 6.22L100.58 5.54L100.58 5.54Q100.45 5.94 100.31 6.45L100.31 6.45L100.04 7.36L100.04 7.36Q99.55 9.06 99.18 10.17L99.18 10.17L99.18 10.17Q98.81 11.28 98.32 12.35L98.32 12.35L98.32 12.35Q98.24 12.54 97.88 12.70L97.88 12.70L97.88 12.70Q97.52 12.85 97.20 12.85L97.20 12.85L97.20 12.85Q97.02 12.85 96.91 12.79L96.91 12.79L96.91 12.79Q96.80 12.73 96.80 12.60L96.80 12.60L96.80 12.60Q96.80 12.53 96.84 12.45L96.84 12.45L96.84 12.45Q97.34 11.33 97.72 10.17L97.72 10.17L97.72 10.17Q98.10 9.02 98.64 7.13L98.64 7.13L98.90 6.26L98.90 6.26Q99.46 4.35 99.76 3.40L99.76 3.40L99.85 3.11L99.85 3.11Q99.99 2.65 100.11 2.35L100.11 2.35L100.11 2.35Q100.24 2.06 100.44 1.82L100.44 1.82L100.44 1.82Q100.55 1.68 100.85 1.54L100.85 1.54L100.85 1.54Q101.15 1.40 101.42 1.40L101.42 1.40L101.42 1.40Q101.82 1.40 101.84 1.76L101.84 1.76L101.84 1.76Q101.86 2.39 101.98 3.65L101.98 3.65L102.03 4.31L102.03 4.31Q102.05 4.44 102.05 4.82L102.05 4.82L102.05 4.82Q102.05 5.54 102.09 5.89L102.09 5.89L102.45 5.26L102.45 5.26Q102.62 4.96 103.17 4.02L103.17 4.02L103.17 4.02Q103.89 2.80 104.92 1.20L104.92 1.20ZM111.71 7.71L111.71 7.71Q111.71 6.23 109.97 5.38L109.97 5.38L109.97 5.38Q109.54 5.74 109.10 6.34L109.10 6.34L109.10 6.34Q108.57 7.11 108.22 8.06L108.22 8.06L108.22 8.06Q108.08 8.44 107.95 9.09L107.95 9.09L107.95 9.09Q107.83 9.74 107.83 10.30L107.83 10.30L107.83 10.30Q107.83 10.88 107.99 11.22L107.99 11.22L107.99 11.22Q108.15 11.56 108.51 11.56L108.51 11.56L108.51 11.56Q108.81 11.56 109.20 11.33L109.20 11.33L109.20 11.33Q110.28 10.70 110.99 9.76L110.99 9.76L110.99 9.76Q111.71 8.82 111.71 7.71L111.71 7.71ZM112.10 5.18L112.10 5.18Q112.60 5.66 112.88 6.26L112.88 6.26L112.88 6.26Q113.15 6.86 113.15 7.53L113.15 7.53L113.15 7.53Q113.15 8.50 112.59 9.49L112.59 9.49L112.59 9.49Q112.21 10.16 111.48 10.91L111.48 10.91L111.48 10.91Q110.75 11.65 109.87 12.16L109.87 12.16L109.87 12.16Q108.98 12.67 108.16 12.67L108.16 12.67L108.16 12.67Q107.66 12.67 107.21 12.45L107.21 12.45L107.21 12.45Q106.26 11.93 106.26 10.58L106.26 10.58L106.26 10.58Q106.26 9.62 106.69 8.46L106.69 8.46L106.69 8.46Q107.13 7.31 107.62 6.51L107.62 6.51L107.62 6.51Q108.81 4.62 110.12 4.13L110.12 4.13L110.12 4.13Q110.49 3.99 110.91 3.99L110.91 3.99L110.91 3.99Q111.40 3.99 111.73 4.23L111.73 4.23L111.73 4.23Q112.07 4.48 112.13 5.00L112.13 5.00L112.13 5.05L112.13 5.05Q112.13 5.10 112.10 5.18L112.10 5.18ZM118.33 4.09L118.33 4.09Q118.43 3.95 118.73 3.84L118.73 3.84L118.73 3.84Q119.03 3.74 119.29 3.74L119.29 3.74L119.29 3.74Q119.49 3.74 119.61 3.79L119.61 3.79L119.61 3.79Q119.73 3.85 119.73 3.98L119.73 3.98L119.73 3.98Q119.73 4.07 119.66 4.19L119.66 4.19L119.66 4.19Q118.51 6.10 117.73 7.99L117.73 7.99L117.73 7.99Q116.96 9.87 116.54 11.89L116.54 11.89L116.54 11.89Q116.48 12.15 116.14 12.37L116.14 12.37L116.14 12.37Q115.79 12.59 115.46 12.59L115.46 12.59L115.46 12.59Q115.08 12.59 114.98 12.29L114.98 12.29L114.98 12.29Q114.45 10.72 114.23 9.09L114.23 9.09L114.23 9.09Q114.02 7.46 113.83 4.87L113.83 4.87L113.82 4.58L113.82 4.58Q113.81 4.27 114.19 4.03L114.19 4.03L114.19 4.03Q114.58 3.79 114.95 3.79L114.95 3.79L114.95 3.79Q115.32 3.79 115.33 4.05L115.33 4.05L115.33 4.05Q115.36 4.38 115.36 4.58L115.36 4.58L115.36 4.62L115.36 4.62Q115.51 7.29 115.81 8.96L115.81 8.96L115.81 8.96Q116.77 6.19 118.33 4.09L118.33 4.09ZM122.08 1.71L122.08 1.71Q121.93 1.67 121.77 1.67L121.77 1.67L121.77 1.67Q121.46 1.67 121.23 1.82L121.23 1.82L121.23 1.82Q120.92 1.99 120.88 2.16L120.88 2.16L120.88 2.16Q120.69 2.81 120.64 3.02L120.64 3.02L120.64 3.07L120.64 3.07Q120.64 3.14 120.69 3.20L120.69 3.20L120.69 3.20Q120.75 3.26 120.82 3.29L120.82 3.29L120.82 3.29Q120.93 3.35 121.07 3.35L121.07 3.35L121.07 3.35Q121.30 3.35 121.61 3.21L121.61 3.21L121.61 3.21Q121.93 3.08 122.02 2.84L122.02 2.84L122.02 2.84Q122.11 2.60 122.26 2.00L122.26 2.00L122.26 1.97L122.26 1.97Q122.26 1.90 122.21 1.83L122.21 1.83L122.21 1.83Q122.15 1.75 122.08 1.71L122.08 1.71ZM122.00 4.30L121.53 7.32L121.53 7.32Q121.45 7.88 121.22 9.35L121.22 9.35L121.22 9.35Q120.99 10.81 120.83 12.00L120.83 12.00L120.83 12.00Q120.79 12.26 120.46 12.45L120.46 12.45L120.46 12.45Q120.13 12.64 119.80 12.64L119.80 12.64L119.80 12.64Q119.57 12.64 119.46 12.55L119.46 12.55L119.46 12.55Q119.34 12.46 119.36 12.28L119.36 12.28L119.36 12.28Q119.60 10.88 119.88 9.08L119.88 9.08L119.88 9.08Q120.15 7.28 120.26 6.51L120.26 6.51L120.55 4.59L120.55 4.59Q120.60 4.34 120.94 4.16L120.94 4.16L120.94 4.16Q121.28 3.98 121.60 3.98L121.60 3.98L121.60 3.98Q121.80 3.98 121.91 4.06L121.91 4.06L121.91 4.06Q122.02 4.14 122.00 4.30L122.00 4.30ZM125.92 5.07L125.92 5.07Q125.20 5.61 124.75 6.83L124.75 6.83L124.75 6.83Q126.13 6.31 127.23 5.96L127.23 5.96L127.23 5.96Q126.77 5.32 126.29 5.10L126.29 5.10L126.29 5.10Q126.20 5.05 126.11 5.04L126.11 5.04L126.11 5.04Q126.01 5.03 126 5.03L126 5.03L126 5.03Q126.01 5.04 125.98 5.05L125.98 5.05L125.98 5.05Q125.94 5.07 125.92 5.07L125.92 5.07ZM125.97 4.07L125.97 4.07Q126.20 4.02 126.45 4.02L126.45 4.02L126.45 4.02Q127.79 4.02 128.88 5.82L128.88 5.82L128.88 5.82Q128.93 5.88 128.93 5.96L128.93 5.96L128.93 5.96Q128.93 6.12 128.73 6.29L128.73 6.29L128.73 6.29Q128.58 6.45 128.34 6.55L128.34 6.55L128.34 6.55Q126.94 7.17 124.45 8.02L124.45 8.02L124.45 8.02Q124.31 8.74 124.31 9.49L124.31 9.49L124.31 9.49Q124.31 9.84 124.32 10.00L124.32 10.00L124.32 10.00Q124.35 10.63 124.57 11.09L124.57 11.09L124.57 11.09Q124.64 11.24 124.78 11.38L124.78 11.38L124.78 11.38Q124.91 11.52 124.98 11.56L124.98 11.56L124.98 11.56Q125.02 11.59 125.12 11.59L125.12 11.59L125.12 11.59Q125.22 11.59 125.35 11.54L125.35 11.54L125.35 11.54Q125.48 11.48 125.65 11.38L125.65 11.38L125.65 11.38Q126.06 11.14 126.41 10.84L126.41 10.84L126.41 10.84Q126.76 10.53 127.25 10.04L127.25 10.04L127.25 10.04Q127.44 9.84 127.90 9.84L127.90 9.84L127.90 9.84Q128.16 9.84 128.33 9.92L128.33 9.92L128.33 9.92Q128.51 10.00 128.51 10.14L128.51 10.14L128.51 10.14Q128.51 10.26 128.37 10.42L128.37 10.42L128.37 10.42Q127.50 11.35 126.59 12.01L126.59 12.01L126.59 12.01Q125.68 12.67 124.77 12.67L124.77 12.67L124.77 12.67Q124.33 12.67 123.96 12.49L123.96 12.49L123.96 12.49Q123.33 12.19 123.05 11.55L123.05 11.55L123.05 11.55Q122.77 10.91 122.77 10.04L122.77 10.04L122.77 10.04Q122.77 9.39 122.93 8.53L122.93 8.53L122.82 8.55L122.71 8.60L122.71 8.60Q122.50 8.67 122.37 8.67L122.37 8.67L122.37 8.67Q122.18 8.67 122.07 8.57L122.07 8.57L122.07 8.57Q121.95 8.47 121.95 8.32L121.95 8.32L121.95 8.32Q121.95 8.13 122.10 7.96L122.10 7.96L122.10 7.96Q122.25 7.78 122.54 7.67L122.54 7.67L123.23 7.41L123.23 7.41Q123.35 7.01 123.61 6.38L123.61 6.38L123.61 6.38Q124.00 5.52 124.59 4.89L124.59 4.89L124.59 4.89Q125.17 4.26 125.97 4.07L125.97 4.07ZM131.21 5.98L131.21 5.98Q131.21 6.51 131.48 6.92L131.48 6.92L131.48 6.92Q131.75 7.32 132.15 7.60L132.15 7.60L132.15 7.60Q132.54 7.88 133.21 8.26L133.21 8.26L133.21 8.26Q134.12 8.78 134.60 9.20L134.60 9.20L134.60 9.20Q135.09 9.62 135.24 10.25L135.24 10.25L135.24 10.25Q135.30 10.53 135.30 10.65L135.30 10.65L135.30 10.65Q135.30 11.63 134.26 12.06L134.26 12.06L134.26 12.06Q133.22 12.49 131.91 12.49L131.91 12.49L131.91 12.49Q131.39 12.49 131.00 12.42L131.00 12.42L131.00 12.42Q130.54 12.33 130.04 12.09L130.04 12.09L130.04 12.09Q129.54 11.84 129.21 11.49L129.21 11.49L129.21 11.49Q128.88 11.13 128.88 10.75L128.88 10.75L128.88 10.75Q128.88 10.16 129.79 9.67L129.79 9.67L129.79 9.67Q130.05 9.55 130.28 9.55L130.28 9.55L130.28 9.55Q130.51 9.55 130.66 9.65L130.66 9.65L130.66 9.65Q130.80 9.74 130.80 9.88L130.80 9.88L130.80 9.88Q130.80 10.14 130.40 10.37L130.40 10.37L130.40 10.37Q130.31 10.42 130.31 10.50L130.31 10.50L130.31 10.50Q130.31 10.67 130.58 10.91L130.58 10.91L130.58 10.91Q130.84 11.14 131.00 11.23L131.00 11.23L131.00 11.23Q131.42 11.47 132.34 11.52L132.34 11.52L132.34 11.52Q132.45 11.54 132.73 11.54L132.73 11.54L132.73 11.54Q133.24 11.54 133.55 11.37L133.55 11.37L133.55 11.37Q133.85 11.20 133.81 10.75L133.81 10.75L133.81 10.75Q133.76 10.15 132.59 9.39L132.59 9.39L132.06 9.06L132.06 9.06Q131.33 8.61 130.87 8.27L130.87 8.27L130.87 8.27Q130.40 7.92 130.06 7.44L130.06 7.44L130.06 7.44Q129.72 6.96 129.72 6.36L129.72 6.36L129.72 6.36Q129.72 5.98 129.86 5.60L129.86 5.60L129.86 5.60Q130.17 4.69 131.01 4.19L131.01 4.19L131.01 4.19Q131.85 3.70 132.82 3.70L132.82 3.70L132.82 3.70Q133.81 3.70 134.49 4.20L134.49 4.20L134.49 4.20Q135.17 4.70 135.17 5.63L135.17 5.63L135.17 5.63Q135.17 5.92 135.09 6.26L135.09 6.26L135.09 6.26Q135.03 6.51 134.67 6.69L134.67 6.69L134.67 6.69Q134.30 6.87 133.98 6.87L133.98 6.87L133.98 6.87Q133.78 6.87 133.68 6.79L133.68 6.79L133.68 6.79Q133.57 6.71 133.63 6.55L133.63 6.55L133.63 6.55Q133.71 6.26 133.71 5.96L133.71 5.96L133.71 5.96Q133.71 5.50 133.48 5.18L133.48 5.18L133.48 5.18Q133.24 4.86 132.78 4.73L132.78 4.73L132.78 4.73Q132.52 4.68 132.40 4.68L132.40 4.68L132.40 4.68Q131.89 4.68 131.55 5.03L131.55 5.03L131.55 5.03Q131.21 5.39 131.21 5.98L131.21 5.98Z"></path></g><!----><g data-v-423bf9ae="" id="48d6ac3e-5afb-4aa9-b484-3dbeee583831" transform="matrix(1.0022555033365885,0,0,1.0022555033365885,-0.7934951717696066,0.7970035768768895)" stroke="none" fill="white"><path d="M35.697 40.771V25.268l18.604 7.751zM72.483 81.645H17.516a8.457 8.457 0 0 0-8.457 8.457H80.94a8.458 8.458 0 0 0-8.457-8.457zM58.742 72.483c-4.857 0-8.809-3.951-8.809-8.811 0-4.856 3.951-8.809 8.809-8.809 4.856 0 8.809 3.952 8.809 8.809-.001 4.86-3.953 8.811-8.809 8.811zm0-14.8c-3.303 0-5.991 2.688-5.991 5.99s2.688 5.99 5.991 5.99c3.303 0 5.99-2.688 5.99-5.99s-2.688-5.99-5.99-5.99z"></path><path d="M51.342 83.054H31.257a4.587 4.587 0 0 1-4.58-4.581 4.584 4.584 0 0 1 4.58-4.58h20.084v2.819H31.257a1.763 1.763 0 0 0 0 3.523h20.084v2.819z"></path><path d="M67.55 83.054H51.342a1.41 1.41 0 0 1 0-2.819h13.39v-2.818c0-2.719-2.688-4.933-5.99-4.933-3.657 0-5.991 1.85-5.991 2.818a1.41 1.41 0 0 1-2.818 0c0-3.057 4.033-5.639 8.809-5.639 4.856 0 8.809 3.479 8.809 7.753v5.638zM78.825 66.14H64.417l.222-1.603c.056-.391.093-.622.093-.864a5.997 5.997 0 0 0-5.99-5.99 5.998 5.998 0 0 0-5.991 5.99c0 .266.043.519.081.774l.241 1.615-1.623.078h-5.028l-.411-.401c-2.255-2.208-6.113-2.207-8.365-.001l-.41.402H11.174c-5.44 0-9.866-4.426-9.866-9.865V9.764c0-5.44 4.425-9.865 9.866-9.865h67.651c5.44 0 9.867 4.425 9.867 9.865v46.511c0 5.439-4.426 9.865-9.867 9.865zm-11.282-2.82h11.282c3.887 0 7.048-3.16 7.048-7.046V9.764c0-3.886-3.162-7.047-7.048-7.047H11.174c-3.886 0-7.048 3.162-7.048 7.047v46.511c0 3.886 3.162 7.046 7.048 7.046h24.939c3.185-2.732 8.24-2.734 11.431 0h2.396c.186-4.693 4.063-8.456 8.802-8.456 4.739-.001 8.615 3.762 8.801 8.455z"></path><path d="M47.572 76.712H36.085l-.411-.403a8.742 8.742 0 0 1-2.655-6.291c0-4.859 3.952-8.811 8.809-8.811 4.857 0 8.809 3.951 8.809 8.811a8.733 8.733 0 0 1-2.654 6.291l-.411.403zm-10.301-2.819h9.116a5.926 5.926 0 0 0 1.432-3.875 5.997 5.997 0 0 0-5.991-5.992 5.997 5.997 0 0 0-5.99 5.992c0 1.433.505 2.789 1.433 3.875z"></path></g><!----></svg>