<svg data-v-423bf9ae="" xmlns="http://www.w3.org/2000/svg" viewBox="0 0 624 91" class="iconLeft"><!----><defs data-v-423bf9ae=""><linearGradient data-v-423bf9ae="" gradientTransform="rotate(25)" id="2c7dc841-7c71-4e49-8c68-0bfaf8eaf329" x1="0%" y1="0%" x2="100%" y2="0%"><stop data-v-423bf9ae="" offset="0%" style="stop-color: rgb(24, 27, 128); stop-opacity: 1;"></stop><stop data-v-423bf9ae="" offset="100%" style="stop-color: rgb(24, 30, 217); stop-opacity: 1;"></stop></linearGradient></defs><!----><g data-v-423bf9ae="" id="64195139-5fed-4572-aef6-52628d9ccb7e" fill="#ffffff" transform="matrix(4.329004138368367,0,0,4.329004138368367,114.85382965076249,5.0733546314897495)"><path d="M9.98 4.03L9.98 4.03L9.98 4.03Q9.57 5.17 9.21 6.34L9.21 6.34L9.21 6.34Q8.85 7.51 8.57 8.84L8.57 8.84L8.57 8.84Q8.30 10.17 8.13 11.71L8.13 11.71L8.13 11.71Q7.97 13.25 7.96 15.12L7.96 15.12L7.96 15.12Q7.88 15.18 7.72 15.27L7.72 15.27L7.72 15.27Q7.56 15.36 7.37 15.47L7.37 15.47L7.37 15.47Q7.17 15.57 6.96 15.68L6.96 15.68L6.96 15.68Q6.75 15.79 6.55 15.89L6.55 15.89L6.55 15.89Q6.36 16.00 6.20 16.08L6.20 16.08L6.20 16.08Q6.04 16.16 5.96 16.20L5.96 16.20L5.96 16.20Q5.97 15.69 6.03 15.07L6.03 15.07L6.03 15.07Q6.09 14.46 6.20 13.78L6.20 13.78L6.20 13.78Q6.30 13.10 6.44 12.37L6.44 12.37L6.44 12.37Q6.58 11.63 6.75 10.89L6.75 10.89L6.75 10.89Q6.25 11.55 5.81 11.99L5.81 11.99L5.81 11.99Q5.36 12.43 5.01 12.70L5.01 12.70L5.01 12.70Q4.61 13.02 4.26 13.20L4.26 13.20L4.26 13.20Q4.12 13.28 3.91 13.21L3.91 13.21L3.91 13.21Q3.71 13.15 3.50 13.01L3.50 13.01L3.50 13.01Q3.30 12.87 3.13 12.71L3.13 12.71L3.13 12.71Q2.97 12.54 2.90 12.43L2.90 12.43L2.90 12.43Q2.83 12.33 2.75 11.81L2.75 11.81L2.75 11.81Q2.67 11.30 2.64 10.34L2.64 10.34L2.64 10.34Q2.34 10.73 2.00 11.15L2.00 11.15L2.00 11.15Q1.66 11.57 1.31 11.99L1.31 11.99L1.31 11.99Q0.96 12.41 0.62 12.81L0.62 12.81L0.62 12.81Q0.27 13.20-0.02 13.52L-0.02 13.52L-0.02 13.52Q-0.32 13.85-0.56 14.09L-0.56 14.09L-0.56 14.09Q-0.79 14.32-0.92 14.42L-0.92 14.42L-0.92 14.42Q-0.99 14.35-1.09 14.25L-1.09 14.25L-1.09 14.25Q-1.19 14.16-1.30 14.05L-1.30 14.05L-1.30 14.05Q-1.40 13.95-1.50 13.84L-1.50 13.84L-1.50 13.84Q-1.61 13.73-1.68 13.64L-1.68 13.64L-1.68 13.64Q-0.68 12.76 0.34 11.17L0.34 11.17L0.34 11.17Q1.37 9.57 2.30 7.32L2.30 7.32L2.30 7.32Q2.40 7.41 2.49 7.49L2.49 7.49L2.49 7.49Q2.58 7.57 2.66 7.66L2.66 7.66L2.66 7.66Q2.71 6.58 2.83 5.26L2.83 5.26L2.83 5.26Q2.94 3.94 3.15 2.34L3.15 2.34L3.15 2.34Q3.19 2.35 3.31 2.47L3.31 2.47L3.31 2.47Q3.44 2.58 3.61 2.76L3.61 2.76L3.61 2.76Q3.78 2.93 3.97 3.13L3.97 3.13L3.97 3.13Q4.16 3.34 4.34 3.52L4.34 3.52L4.34 3.52Q4.51 3.71 4.64 3.85L4.64 3.85L4.64 3.85Q4.77 3.99 4.82 4.05L4.82 4.05L4.82 4.05Q4.81 4.10 4.76 4.34L4.76 4.34L4.76 4.34Q4.71 4.58 4.65 4.96L4.65 4.96L4.65 4.96Q4.58 5.33 4.50 5.82L4.50 5.82L4.50 5.82Q4.43 6.30 4.37 6.85L4.37 6.85L4.37 6.85Q4.31 7.39 4.26 7.97L4.26 7.97L4.26 7.97Q4.22 8.54 4.21 9.10L4.21 9.10L4.21 9.10Q4.20 9.33 4.20 9.64L4.20 9.64L4.20 9.64Q4.20 9.94 4.20 10.26L4.20 10.26L4.20 10.26Q4.20 10.58 4.21 10.89L4.21 10.89L4.21 10.89Q4.22 11.20 4.24 11.45L4.24 11.45L4.24 11.45Q4.26 11.70 4.30 11.86L4.30 11.86L4.30 11.86Q4.33 12.02 4.40 12.04L4.40 12.04L4.40 12.04Q4.47 12.06 4.76 11.84L4.76 11.84L4.76 11.84Q5.04 11.62 5.45 11.20L5.45 11.20L5.45 11.20Q5.85 10.77 6.33 10.17L6.33 10.17L6.33 10.17Q6.80 9.56 7.25 8.81L7.25 8.81L7.25 8.81Q7.45 8.01 7.66 7.27L7.66 7.27L7.66 7.27Q7.87 6.52 8.06 5.89L8.06 5.89L8.06 5.89Q8.26 5.25 8.43 4.75L8.43 4.75L8.43 4.75Q8.60 4.25 8.74 3.92L8.74 3.92L8.74 3.92Q8.87 3.93 9.05 3.94L9.05 3.94L9.05 3.94Q9.22 3.95 9.40 3.97L9.40 3.97L9.40 3.97Q9.58 3.99 9.73 4.00L9.73 4.00L9.73 4.00Q9.88 4.02 9.98 4.03ZM18.45 4.51L18.45 4.51L18.45 4.51Q18.50 4.59 18.55 4.67L18.55 4.67L18.55 4.67Q18.61 4.75 18.66 4.89L18.66 4.89L18.66 4.89Q18.70 5.04 18.74 5.28L18.74 5.28L18.74 5.28Q18.77 5.52 18.77 5.92L18.77 5.92L18.77 5.92Q18.77 6.77 18.57 7.60L18.57 7.60L18.57 7.60Q18.38 8.44 18.03 9.22L18.03 9.22L18.03 9.22Q17.69 10.01 17.23 10.73L17.23 10.73L17.23 10.73Q16.76 11.45 16.23 12.08L16.23 12.08L16.23 12.08Q15.69 12.70 15.11 13.21L15.11 13.21L15.11 13.21Q14.53 13.72 13.95 14.08L13.95 14.08L13.95 14.08Q13.37 14.44 12.82 14.64L12.82 14.64L12.82 14.64Q12.28 14.84 11.81 14.84L11.81 14.84L11.81 14.84Q11.63 14.84 11.43 14.75L11.43 14.75L11.43 14.75Q11.24 14.66 11.05 14.52L11.05 14.52L11.05 14.52Q10.86 14.38 10.69 14.21L10.69 14.21L10.69 14.21Q10.53 14.03 10.39 13.87L10.39 13.87L10.39 13.87Q10.26 13.70 10.17 13.56L10.17 13.56L10.17 13.56Q10.08 13.43 10.05 13.36L10.05 13.36L10.05 13.36Q10.01 13.29 9.97 13.19L9.97 13.19L9.97 13.19Q9.92 13.10 9.88 12.95L9.88 12.95L9.88 12.95Q9.84 12.80 9.81 12.59L9.81 12.59L9.81 12.59Q9.78 12.37 9.78 12.07L9.78 12.07L9.78 12.07Q9.78 11.59 9.87 11.04L9.87 11.04L9.87 11.04Q9.97 10.48 10.21 9.84L10.21 9.84L10.21 9.84Q10.45 9.19 10.86 8.47L10.86 8.47L10.86 8.47Q11.27 7.74 11.92 6.93L11.92 6.93L11.92 6.93Q11.97 6.99 12.08 7.11L12.08 7.11L12.08 7.11Q12.19 7.23 12.32 7.38L12.32 7.38L12.32 7.38Q12.45 7.53 12.59 7.70L12.59 7.70L12.59 7.70Q12.74 7.87 12.86 8.02L12.86 8.02L12.86 8.02Q12.99 8.17 13.08 8.29L13.08 8.29L13.08 8.29Q13.17 8.41 13.20 8.47L13.20 8.47L13.20 8.47Q12.87 8.85 12.58 9.28L12.58 9.28L12.58 9.28Q12.28 9.72 12.03 10.17L12.03 10.17L12.03 10.17Q11.79 10.62 11.58 11.05L11.58 11.05L11.58 11.05Q11.38 11.49 11.23 11.87L11.23 11.87L11.23 11.87Q11.09 12.24 11.01 12.54L11.01 12.54L11.01 12.54Q10.93 12.83 10.93 13.00L10.93 13.00L10.93 13.00Q10.93 13.10 10.97 13.20L10.97 13.20L10.97 13.20Q11.01 13.30 11.07 13.38L11.07 13.38L11.07 13.38Q11.14 13.45 11.20 13.50L11.20 13.50L11.20 13.50Q11.27 13.54 11.33 13.54L11.33 13.54L11.33 13.54Q11.68 13.54 12.14 13.34L12.14 13.34L12.14 13.34Q12.60 13.13 13.10 12.76L13.10 12.76L13.10 12.76Q13.60 12.39 14.13 11.87L14.13 11.87L14.13 11.87Q14.66 11.35 15.15 10.73L15.15 10.73L15.15 10.73Q15.64 10.10 16.07 9.38L16.07 9.38L16.07 9.38Q16.51 8.65 16.84 7.88L16.84 7.88L16.84 7.88Q17.17 7.10 17.35 6.28L17.35 6.28L17.35 6.28Q17.54 5.46 17.54 4.65L17.54 4.65L17.54 4.65Q17.54 4.40 17.49 4.23L17.49 4.23L17.49 4.23Q17.43 4.07 17.34 3.96L17.34 3.96L17.34 3.96Q17.25 3.86 17.14 3.81L17.14 3.81L17.14 3.81Q17.03 3.77 16.91 3.77L16.91 3.77L16.91 3.77Q16.39 3.77 15.97 3.97L15.97 3.97L15.97 3.97Q15.56 4.17 15.26 4.48L15.26 4.48L15.26 4.48Q14.96 4.79 14.77 5.15L14.77 5.15L14.77 5.15Q14.59 5.52 14.52 5.87L14.52 5.87L14.52 5.87Q14.42 6.44 14.49 6.89L14.49 6.89L14.49 6.89Q14.55 7.35 14.68 7.68L14.68 7.68L14.68 7.68Q14.81 8.02 14.93 8.23L14.93 8.23L14.93 8.23Q15.06 8.44 15.07 8.52L15.07 8.52L15.07 8.52Q14.91 8.50 14.68 8.49L14.68 8.49L14.68 8.49Q14.46 8.47 14.21 8.45L14.21 8.45L14.21 8.45Q13.97 8.43 13.73 8.40L13.73 8.40L13.73 8.40Q13.49 8.38 13.30 8.35L13.30 8.35L13.30 8.35Q13.21 8.25 13.12 8.07L13.12 8.07L13.12 8.07Q13.02 7.90 12.94 7.66L12.94 7.66L12.94 7.66Q12.87 7.43 12.81 7.16L12.81 7.16L12.81 7.16Q12.76 6.88 12.76 6.60L12.76 6.60L12.76 6.60Q12.76 6.05 12.93 5.57L12.93 5.57L12.93 5.57Q13.10 5.09 13.40 4.69L13.40 4.69L13.40 4.69Q13.69 4.29 14.07 3.98L14.07 3.98L14.07 3.98Q14.44 3.66 14.85 3.45L14.85 3.45L14.85 3.45Q15.25 3.23 15.65 3.12L15.65 3.12L15.65 3.12Q16.04 3.01 16.38 3.01L16.38 3.01L16.38 3.01Q16.60 3.01 16.82 3.09L16.82 3.09L16.82 3.09Q17.04 3.18 17.25 3.32L17.25 3.32L17.25 3.32Q17.47 3.46 17.66 3.63L17.66 3.63L17.66 3.63Q17.86 3.79 18.01 3.96L18.01 3.96L18.01 3.96Q18.17 4.13 18.28 4.28L18.28 4.28L18.28 4.28Q18.40 4.42 18.45 4.51ZM28.67 4.03L28.67 4.03L28.67 4.03Q28.26 5.17 27.90 6.34L27.90 6.34L27.90 6.34Q27.54 7.51 27.26 8.84L27.26 8.84L27.26 8.84Q26.99 10.17 26.82 11.71L26.82 11.71L26.82 11.71Q26.66 13.25 26.65 15.12L26.65 15.12L26.65 15.12Q26.57 15.18 26.41 15.27L26.41 15.27L26.41 15.27Q26.25 15.36 26.06 15.47L26.06 15.47L26.06 15.47Q25.86 15.57 25.65 15.68L25.65 15.68L25.65 15.68Q25.44 15.79 25.24 15.89L25.24 15.89L25.24 15.89Q25.05 16.00 24.89 16.08L24.89 16.08L24.89 16.08Q24.73 16.16 24.65 16.20L24.65 16.20L24.65 16.20Q24.66 15.69 24.72 15.07L24.72 15.07L24.72 15.07Q24.78 14.46 24.89 13.78L24.89 13.78L24.89 13.78Q24.99 13.10 25.13 12.37L25.13 12.37L25.13 12.37Q25.27 11.63 25.44 10.89L25.44 10.89L25.44 10.89Q24.94 11.55 24.50 11.99L24.50 11.99L24.50 11.99Q24.05 12.43 23.70 12.70L23.70 12.70L23.70 12.70Q23.30 13.02 22.95 13.20L22.95 13.20L22.95 13.20Q22.80 13.28 22.60 13.21L22.60 13.21L22.60 13.21Q22.39 13.15 22.19 13.01L22.19 13.01L22.19 13.01Q21.99 12.87 21.82 12.71L21.82 12.71L21.82 12.71Q21.66 12.54 21.59 12.43L21.59 12.43L21.59 12.43Q21.52 12.33 21.44 11.81L21.44 11.81L21.44 11.81Q21.36 11.30 21.33 10.34L21.33 10.34L21.33 10.34Q21.03 10.73 20.69 11.15L20.69 11.15L20.69 11.15Q20.35 11.57 20.00 11.99L20.00 11.99L20.00 11.99Q19.65 12.41 19.30 12.81L19.30 12.81L19.30 12.81Q18.96 13.20 18.67 13.52L18.67 13.52L18.67 13.52Q18.37 13.85 18.13 14.09L18.13 14.09L18.13 14.09Q17.90 14.32 17.77 14.42L17.77 14.42L17.77 14.42Q17.70 14.35 17.60 14.25L17.60 14.25L17.60 14.25Q17.50 14.16 17.39 14.05L17.39 14.05L17.39 14.05Q17.29 13.95 17.19 13.84L17.19 13.84L17.19 13.84Q17.08 13.73 17.01 13.64L17.01 13.64L17.01 13.64Q18.01 12.76 19.03 11.17L19.03 11.17L19.03 11.17Q20.06 9.57 20.99 7.32L20.99 7.32L20.99 7.32Q21.09 7.41 21.18 7.49L21.18 7.49L21.18 7.49Q21.27 7.57 21.35 7.66L21.35 7.66L21.35 7.66Q21.40 6.58 21.52 5.26L21.52 5.26L21.52 5.26Q21.63 3.94 21.84 2.34L21.84 2.34L21.84 2.34Q21.88 2.35 22.00 2.47L22.00 2.47L22.00 2.47Q22.13 2.58 22.30 2.76L22.30 2.76L22.30 2.76Q22.47 2.93 22.66 3.13L22.66 3.13L22.66 3.13Q22.85 3.34 23.03 3.52L23.03 3.52L23.03 3.52Q23.20 3.71 23.33 3.85L23.33 3.85L23.33 3.85Q23.46 3.99 23.51 4.05L23.51 4.05L23.51 4.05Q23.50 4.10 23.45 4.34L23.45 4.34L23.45 4.34Q23.40 4.58 23.33 4.96L23.33 4.96L23.33 4.96Q23.27 5.33 23.19 5.82L23.19 5.82L23.19 5.82Q23.12 6.30 23.06 6.85L23.06 6.85L23.06 6.85Q23.00 7.39 22.95 7.97L22.95 7.97L22.95 7.97Q22.91 8.54 22.90 9.10L22.90 9.10L22.90 9.10Q22.89 9.33 22.89 9.64L22.89 9.64L22.89 9.64Q22.89 9.94 22.89 10.26L22.89 10.26L22.89 10.26Q22.89 10.58 22.90 10.89L22.90 10.89L22.90 10.89Q22.91 11.20 22.93 11.45L22.93 11.45L22.93 11.45Q22.95 11.70 22.99 11.86L22.99 11.86L22.99 11.86Q23.02 12.02 23.08 12.04L23.08 12.04L23.08 12.04Q23.16 12.06 23.45 11.84L23.45 11.84L23.45 11.84Q23.73 11.62 24.14 11.20L24.14 11.20L24.14 11.20Q24.54 10.77 25.02 10.17L25.02 10.17L25.02 10.17Q25.49 9.56 25.94 8.81L25.94 8.81L25.94 8.81Q26.14 8.01 26.35 7.27L26.35 7.27L26.35 7.27Q26.56 6.52 26.75 5.89L26.75 5.89L26.75 5.89Q26.95 5.25 27.12 4.75L27.12 4.75L27.12 4.75Q27.29 4.25 27.43 3.92L27.43 3.92L27.43 3.92Q27.56 3.93 27.74 3.94L27.74 3.94L27.74 3.94Q27.91 3.95 28.09 3.97L28.09 3.97L28.09 3.97Q28.27 3.99 28.42 4.00L28.42 4.00L28.42 4.00Q28.57 4.02 28.67 4.03ZM37.14 4.51L37.14 4.51L37.14 4.51Q37.19 4.59 37.24 4.67L37.24 4.67L37.24 4.67Q37.30 4.75 37.34 4.89L37.34 4.89L37.34 4.89Q37.39 5.04 37.43 5.28L37.43 5.28L37.43 5.28Q37.46 5.52 37.46 5.92L37.46 5.92L37.46 5.92Q37.46 6.77 37.26 7.60L37.26 7.60L37.26 7.60Q37.06 8.44 36.72 9.22L36.72 9.22L36.72 9.22Q36.38 10.01 35.92 10.73L35.92 10.73L35.92 10.73Q35.45 11.45 34.91 12.08L34.91 12.08L34.91 12.08Q34.38 12.70 33.80 13.21L33.80 13.21L33.80 13.21Q33.22 13.72 32.64 14.08L32.64 14.08L32.64 14.08Q32.06 14.44 31.51 14.64L31.51 14.64L31.51 14.64Q30.97 14.84 30.50 14.84L30.50 14.84L30.50 14.84Q30.32 14.84 30.12 14.75L30.12 14.75L30.12 14.75Q29.93 14.66 29.74 14.52L29.74 14.52L29.74 14.52Q29.55 14.38 29.38 14.21L29.38 14.21L29.38 14.21Q29.22 14.03 29.08 13.87L29.08 13.87L29.08 13.87Q28.95 13.70 28.86 13.56L28.86 13.56L28.86 13.56Q28.77 13.43 28.74 13.36L28.74 13.36L28.74 13.36Q28.70 13.29 28.66 13.19L28.66 13.19L28.66 13.19Q28.61 13.10 28.57 12.95L28.57 12.95L28.57 12.95Q28.53 12.80 28.50 12.59L28.50 12.59L28.50 12.59Q28.47 12.37 28.47 12.07L28.47 12.07L28.47 12.07Q28.47 11.59 28.56 11.04L28.56 11.04L28.56 11.04Q28.66 10.48 28.90 9.84L28.90 9.84L28.90 9.84Q29.13 9.19 29.55 8.47L29.55 8.47L29.55 8.47Q29.96 7.74 30.60 6.93L30.60 6.93L30.60 6.93Q30.66 6.99 30.77 7.11L30.77 7.11L30.77 7.11Q30.88 7.23 31.01 7.38L31.01 7.38L31.01 7.38Q31.14 7.53 31.28 7.70L31.28 7.70L31.28 7.70Q31.42 7.87 31.55 8.02L31.55 8.02L31.55 8.02Q31.68 8.17 31.77 8.29L31.77 8.29L31.77 8.29Q31.86 8.41 31.89 8.47L31.89 8.47L31.89 8.47Q31.56 8.85 31.27 9.28L31.27 9.28L31.27 9.28Q30.97 9.72 30.72 10.17L30.72 10.17L30.72 10.17Q30.47 10.62 30.27 11.05L30.27 11.05L30.27 11.05Q30.06 11.49 29.92 11.87L29.92 11.87L29.92 11.87Q29.78 12.24 29.70 12.54L29.70 12.54L29.70 12.54Q29.62 12.83 29.62 13.00L29.62 13.00L29.62 13.00Q29.62 13.10 29.66 13.20L29.66 13.20L29.66 13.20Q29.70 13.30 29.76 13.38L29.76 13.38L29.76 13.38Q29.83 13.45 29.89 13.50L29.89 13.50L29.89 13.50Q29.96 13.54 30.02 13.54L30.02 13.54L30.02 13.54Q30.37 13.54 30.83 13.34L30.83 13.34L30.83 13.34Q31.29 13.13 31.79 12.76L31.79 12.76L31.79 12.76Q32.29 12.39 32.82 11.87L32.82 11.87L32.82 11.87Q33.35 11.35 33.84 10.73L33.84 10.73L33.84 10.73Q34.33 10.10 34.76 9.38L34.76 9.38L34.76 9.38Q35.20 8.65 35.53 7.88L35.53 7.88L35.53 7.88Q35.85 7.10 36.04 6.28L36.04 6.28L36.04 6.28Q36.23 5.46 36.23 4.65L36.23 4.65L36.23 4.65Q36.23 4.40 36.18 4.23L36.18 4.23L36.18 4.23Q36.12 4.07 36.03 3.96L36.03 3.96L36.03 3.96Q35.94 3.86 35.83 3.81L35.83 3.81L35.83 3.81Q35.72 3.77 35.60 3.77L35.60 3.77L35.60 3.77Q35.08 3.77 34.66 3.97L34.66 3.97L34.66 3.97Q34.25 4.17 33.95 4.48L33.95 4.48L33.95 4.48Q33.65 4.79 33.46 5.15L33.46 5.15L33.46 5.15Q33.28 5.52 33.21 5.87L33.21 5.87L33.21 5.87Q33.11 6.44 33.17 6.89L33.17 6.89L33.17 6.89Q33.24 7.35 33.37 7.68L33.37 7.68L33.37 7.68Q33.50 8.02 33.62 8.23L33.62 8.23L33.62 8.23Q33.75 8.44 33.76 8.52L33.76 8.52L33.76 8.52Q33.60 8.50 33.37 8.49L33.37 8.49L33.37 8.49Q33.15 8.47 32.90 8.45L32.90 8.45L32.90 8.45Q32.66 8.43 32.42 8.40L32.42 8.40L32.42 8.40Q32.18 8.38 31.99 8.35L31.99 8.35L31.99 8.35Q31.90 8.25 31.81 8.07L31.81 8.07L31.81 8.07Q31.71 7.90 31.63 7.66L31.63 7.66L31.63 7.66Q31.55 7.43 31.50 7.16L31.50 7.16L31.50 7.16Q31.45 6.88 31.45 6.60L31.45 6.60L31.45 6.60Q31.45 6.05 31.62 5.57L31.62 5.57L31.62 5.57Q31.79 5.09 32.09 4.69L32.09 4.69L32.09 4.69Q32.38 4.29 32.76 3.98L32.76 3.98L32.76 3.98Q33.13 3.66 33.54 3.45L33.54 3.45L33.54 3.45Q33.94 3.23 34.34 3.12L34.34 3.12L34.34 3.12Q34.73 3.01 35.07 3.01L35.07 3.01L35.07 3.01Q35.29 3.01 35.51 3.09L35.51 3.09L35.51 3.09Q35.73 3.18 35.94 3.32L35.94 3.32L35.94 3.32Q36.16 3.46 36.35 3.63L36.35 3.63L36.35 3.63Q36.54 3.79 36.70 3.96L36.70 3.96L36.70 3.96Q36.86 4.13 36.97 4.28L36.97 4.28L36.97 4.28Q37.08 4.42 37.14 4.51ZM45.12 10.11L45.12 10.11L45.12 10.11Q45.10 10.23 45.05 10.44L45.05 10.44L45.05 10.44Q44.99 10.64 44.93 10.86L44.93 10.86L44.93 10.86Q44.87 11.07 44.81 11.26L44.81 11.26L44.81 11.26Q44.74 11.44 44.70 11.50L44.70 11.50L44.70 11.50Q44.62 11.50 44.33 11.50L44.33 11.50L44.33 11.50Q44.05 11.50 43.67 11.51L43.67 11.51L43.67 11.51Q43.29 11.51 42.85 11.52L42.85 11.52L42.85 11.52Q42.42 11.53 42.05 11.53L42.05 11.53L42.05 11.53Q41.69 11.53 41.43 11.52L41.43 11.52L41.43 11.52Q41.17 11.51 41.13 11.50L41.13 11.50L41.13 11.50Q41.15 11.42 41.19 11.26L41.19 11.26L41.19 11.26Q41.23 11.10 41.28 10.93L41.28 10.93L41.28 10.93Q41.32 10.76 41.37 10.61L41.37 10.61L41.37 10.61Q41.42 10.46 41.45 10.40L41.45 10.40L41.45 10.40Q41.51 10.38 41.78 10.35L41.78 10.35L41.78 10.35Q42.06 10.32 42.45 10.29L42.45 10.29L42.45 10.29Q42.85 10.25 43.30 10.22L43.30 10.22L43.30 10.22Q43.74 10.19 44.13 10.17L44.13 10.17L44.13 10.17Q44.52 10.14 44.80 10.13L44.80 10.13L44.80 10.13Q45.08 10.11 45.12 10.11ZM59.96 4.03L59.96 4.03L59.96 4.03Q59.55 5.17 59.19 6.34L59.19 6.34L59.19 6.34Q58.83 7.51 58.56 8.84L58.56 8.84L58.56 8.84Q58.28 10.17 58.12 11.71L58.12 11.71L58.12 11.71Q57.96 13.25 57.95 15.12L57.95 15.12L57.95 15.12Q57.87 15.18 57.71 15.27L57.71 15.27L57.71 15.27Q57.54 15.36 57.35 15.47L57.35 15.47L57.35 15.47Q57.16 15.57 56.94 15.68L56.94 15.68L56.94 15.68Q56.73 15.79 56.54 15.89L56.54 15.89L56.54 15.89Q56.34 16.00 56.18 16.08L56.18 16.08L56.18 16.08Q56.03 16.16 55.95 16.20L55.95 16.20L55.95 16.20Q55.95 15.69 56.01 15.07L56.01 15.07L56.01 15.07Q56.08 14.46 56.18 13.78L56.18 13.78L56.18 13.78Q56.29 13.10 56.43 12.37L56.43 12.37L56.43 12.37Q56.57 11.63 56.73 10.89L56.73 10.89L56.73 10.89Q56.24 11.55 55.79 11.99L55.79 11.99L55.79 11.99Q55.34 12.43 55.00 12.70L55.00 12.70L55.00 12.70Q54.59 13.02 54.24 13.20L54.24 13.20L54.24 13.20Q54.10 13.28 53.89 13.21L53.89 13.21L53.89 13.21Q53.69 13.15 53.49 13.01L53.49 13.01L53.49 13.01Q53.29 12.87 53.12 12.71L53.12 12.71L53.12 12.71Q52.95 12.54 52.88 12.43L52.88 12.43L52.88 12.43Q52.81 12.33 52.74 11.81L52.74 11.81L52.74 11.81Q52.66 11.30 52.62 10.34L52.62 10.34L52.62 10.34Q52.33 10.73 51.99 11.15L51.99 11.15L51.99 11.15Q51.65 11.57 51.29 11.99L51.29 11.99L51.29 11.99Q50.94 12.41 50.60 12.81L50.60 12.81L50.60 12.81Q50.26 13.20 49.96 13.52L49.96 13.52L49.96 13.52Q49.66 13.85 49.43 14.09L49.43 14.09L49.43 14.09Q49.19 14.32 49.06 14.42L49.06 14.42L49.06 14.42Q48.99 14.35 48.89 14.25L48.89 14.25L48.89 14.25Q48.79 14.16 48.69 14.05L48.69 14.05L48.69 14.05Q48.58 13.95 48.48 13.84L48.48 13.84L48.48 13.84Q48.38 13.73 48.30 13.64L48.30 13.64L48.30 13.64Q49.30 12.76 50.33 11.17L50.33 11.17L50.33 11.17Q51.35 9.57 52.28 7.32L52.28 7.32L52.28 7.32Q52.38 7.41 52.47 7.49L52.47 7.49L52.47 7.49Q52.56 7.57 52.64 7.66L52.64 7.66L52.64 7.66Q52.70 6.58 52.81 5.26L52.81 5.26L52.81 5.26Q52.92 3.94 53.14 2.34L53.14 2.34L53.14 2.34Q53.17 2.35 53.30 2.47L53.30 2.47L53.30 2.47Q53.42 2.58 53.59 2.76L53.59 2.76L53.59 2.76Q53.76 2.93 53.96 3.13L53.96 3.13L53.96 3.13Q54.15 3.34 54.32 3.52L54.32 3.52L54.32 3.52Q54.50 3.71 54.63 3.85L54.63 3.85L54.63 3.85Q54.76 3.99 54.80 4.05L54.80 4.05L54.80 4.05Q54.79 4.10 54.74 4.34L54.74 4.34L54.74 4.34Q54.69 4.58 54.63 4.96L54.63 4.96L54.63 4.96Q54.56 5.33 54.49 5.82L54.49 5.82L54.49 5.82Q54.41 6.30 54.35 6.85L54.35 6.85L54.35 6.85Q54.29 7.39 54.25 7.97L54.25 7.97L54.25 7.97Q54.20 8.54 54.20 9.10L54.20 9.10L54.20 9.10Q54.19 9.33 54.19 9.64L54.19 9.64L54.19 9.64Q54.18 9.94 54.18 10.26L54.18 10.26L54.18 10.26Q54.18 10.58 54.19 10.89L54.19 10.89L54.19 10.89Q54.20 11.20 54.22 11.45L54.22 11.45L54.22 11.45Q54.24 11.70 54.28 11.86L54.28 11.86L54.28 11.86Q54.32 12.02 54.38 12.04L54.38 12.04L54.38 12.04Q54.46 12.06 54.74 11.84L54.74 11.84L54.74 11.84Q55.03 11.62 55.43 11.20L55.43 11.20L55.43 11.20Q55.84 10.77 56.31 10.17L56.31 10.17L56.31 10.17Q56.79 9.56 57.23 8.81L57.23 8.81L57.23 8.81Q57.44 8.01 57.64 7.27L57.64 7.27L57.64 7.27Q57.85 6.52 58.05 5.89L58.05 5.89L58.05 5.89Q58.24 5.25 58.41 4.75L58.41 4.75L58.41 4.75Q58.58 4.25 58.72 3.92L58.72 3.92L58.72 3.92Q58.86 3.93 59.03 3.94L59.03 3.94L59.03 3.94Q59.21 3.95 59.38 3.97L59.38 3.97L59.38 3.97Q59.56 3.99 59.72 4.00L59.72 4.00L59.72 4.00Q59.87 4.02 59.96 4.03ZM60.47 12.98L60.47 12.98L60.47 12.98Q60.47 13.19 60.62 13.19L60.62 13.19L60.62 13.19Q60.78 13.19 61.04 12.94L61.04 12.94L61.04 12.94Q61.30 12.69 61.58 12.30L61.58 12.30L61.58 12.30Q61.56 12.23 61.56 12.17L61.56 12.17L61.56 12.17Q61.56 12.11 61.56 12.07L61.56 12.07L61.56 12.07Q61.56 11.93 61.59 11.74L61.59 11.74L61.59 11.74Q61.62 11.55 61.74 11.31L61.74 11.31L61.74 11.31Q61.82 11.13 61.94 10.95L61.94 10.95L61.94 10.95Q62.04 10.79 62.17 10.61L62.17 10.61L62.17 10.61Q62.31 10.43 62.47 10.27L62.47 10.27L62.51 10.23L62.51 10.23Q62.58 10.32 62.70 10.46L62.70 10.46L62.70 10.46Q62.81 10.60 62.92 10.74L62.92 10.74L62.92 10.74Q63.03 10.89 63.12 11.01L63.12 11.01L63.12 11.01Q63.21 11.14 63.23 11.18L63.23 11.18L63.23 11.18Q63.23 11.48 63.12 11.77L63.12 11.77L63.12 11.77Q63.01 12.07 62.84 12.35L62.84 12.35L62.84 12.35Q63.25 12.33 63.60 12.14L63.60 12.14L63.60 12.14Q63.95 11.96 64.33 11.55L64.33 11.55L64.33 11.55Q64.39 11.61 64.49 11.72L64.49 11.72L64.49 11.72Q64.59 11.83 64.65 11.90L64.65 11.90L64.65 11.90Q64.37 12.20 64.09 12.40L64.09 12.40L64.09 12.40Q63.81 12.60 63.54 12.71L63.54 12.71L63.54 12.71Q63.26 12.83 62.97 12.88L62.97 12.88L62.97 12.88Q62.69 12.93 62.38 12.93L62.38 12.93L62.38 12.93Q62.15 13.18 61.89 13.38L61.89 13.38L61.89 13.38Q61.62 13.59 61.34 13.74L61.34 13.74L61.34 13.74Q61.07 13.89 60.79 13.97L60.79 13.97L60.79 13.97Q60.52 14.05 60.27 14.05L60.27 14.05L60.27 14.05Q60.07 14.05 59.85 13.93L59.85 13.93L59.85 13.93Q59.63 13.81 59.45 13.63L59.45 13.63L59.45 13.63Q59.27 13.45 59.16 13.24L59.16 13.24L59.16 13.24Q59.04 13.04 59.04 12.88L59.04 12.88L59.04 12.88Q59.04 12.36 59.18 11.85L59.18 11.85L59.18 11.85Q59.32 11.33 59.62 10.89L59.62 10.89L59.62 10.89Q59.92 10.44 60.38 10.10L60.38 10.10L60.38 10.10Q60.84 9.75 61.48 9.58L61.48 9.58L61.48 9.58Q61.50 9.56 61.55 9.56L61.55 9.56L61.55 9.56Q61.60 9.55 61.63 9.55L61.63 9.55L61.63 9.55Q61.73 9.55 61.83 9.62L61.83 9.62L61.83 9.62Q61.94 9.69 62.03 9.78L62.03 9.78L62.03 9.78Q62.13 9.87 62.19 9.96L62.19 9.96L62.19 9.96Q62.25 10.04 62.25 10.07L62.25 10.07L62.25 10.07Q62.23 10.10 62.15 10.15L62.15 10.15L62.15 10.15Q62.06 10.21 61.91 10.33L61.91 10.33L61.91 10.33Q61.76 10.45 61.55 10.68L61.55 10.68L61.55 10.68Q61.35 10.91 61.10 11.29L61.10 11.29L61.10 11.29Q60.73 11.84 60.60 12.29L60.60 12.29L60.60 12.29Q60.47 12.74 60.47 12.98ZM64.11 11.79L64.11 11.79L64.11 11.79Q64.26 11.64 64.47 11.45L64.47 11.45L64.47 11.45Q64.67 11.26 64.87 11.03L64.87 11.03L64.87 11.03Q65.07 10.81 65.25 10.55L65.25 10.55L65.25 10.55Q65.42 10.29 65.52 9.99L65.52 9.99L65.52 9.99Q65.55 9.83 65.61 9.66L65.61 9.66L65.61 9.66Q65.67 9.48 65.74 9.34L65.74 9.34L65.74 9.34Q65.81 9.19 65.88 9.10L65.88 9.10L65.88 9.10Q65.95 9.00 66.00 9.00L66.00 9.00L66.00 9.00Q66.08 9.05 66.25 9.18L66.25 9.18L66.25 9.18Q66.41 9.32 66.58 9.47L66.58 9.47L66.58 9.47Q66.74 9.62 66.87 9.74L66.87 9.74L66.87 9.74Q66.99 9.87 66.99 9.90L66.99 9.90L66.99 9.90Q66.91 10.21 66.91 10.47L66.91 10.47L66.91 10.47Q66.92 10.72 66.95 10.96L66.95 10.96L66.95 10.96Q66.99 11.21 67.04 11.49L67.04 11.49L67.04 11.49Q67.08 11.76 67.08 12.13L67.08 12.13L67.08 12.13Q67.08 12.35 67.01 12.63L67.01 12.63L67.01 12.63Q66.94 12.91 66.76 13.14L66.76 13.14L66.76 13.14Q67.11 12.93 67.45 12.68L67.45 12.68L67.45 12.68Q67.79 12.42 68.06 12.20L68.06 12.20L68.06 12.20Q68.37 11.93 68.66 11.66L68.66 11.66L68.97 12.00L68.97 12.00Q68.74 12.21 68.48 12.45L68.48 12.45L68.48 12.45Q68.22 12.69 67.93 12.92L67.93 12.92L67.93 12.92Q67.65 13.15 67.35 13.36L67.35 13.36L67.35 13.36Q67.06 13.58 66.77 13.74L66.77 13.74L66.77 13.74Q66.49 13.90 66.22 14L66.22 14L66.22 14Q65.95 14.10 65.72 14.10L65.72 14.10L65.72 14.10Q65.52 14.10 65.28 14L65.28 14L65.28 14Q65.04 13.90 64.83 13.77L64.83 13.77L64.83 13.77Q64.62 13.63 64.46 13.48L64.46 13.48L64.46 13.48Q64.31 13.33 64.28 13.23L64.28 13.23L64.28 13.23Q64.28 13.21 64.31 13.17L64.31 13.17L64.31 13.17Q64.33 13.13 64.37 13.08L64.37 13.08L64.37 13.08Q64.41 13.03 64.45 12.99L64.45 12.99L64.45 12.99Q64.48 12.95 64.50 12.95L64.50 12.95L64.50 12.95Q64.54 12.95 64.67 13.02L64.67 13.02L64.67 13.02Q64.79 13.08 65.08 13.08L65.08 13.08L65.08 13.08Q65.24 13.08 65.35 13.00L65.35 13.00L65.35 13.00Q65.46 12.91 65.54 12.78L65.54 12.78L65.54 12.78Q65.61 12.64 65.65 12.46L65.65 12.46L65.65 12.46Q65.68 12.28 65.68 12.09L65.68 12.09L65.68 12.09Q65.68 11.80 65.65 11.53L65.65 11.53L65.65 11.53Q65.63 11.26 65.59 11.01L65.59 11.01L65.59 11.01Q65.47 11.14 65.32 11.29L65.32 11.29L65.32 11.29Q65.17 11.44 65.02 11.59L65.02 11.59L65.02 11.59Q64.87 11.74 64.71 11.88L64.71 11.88L64.71 11.88Q64.56 12.02 64.44 12.13L64.44 12.13L64.11 11.79ZM72.40 13.00L72.40 13.00L72.40 13.00Q72.51 13.00 72.68 12.91L72.68 12.91L72.68 12.91Q72.84 12.83 73.04 12.70L73.04 12.70L73.04 12.70Q73.24 12.58 73.45 12.42L73.45 12.42L73.45 12.42Q73.66 12.26 73.85 12.11L73.85 12.11L73.85 12.11Q74.03 11.96 74.18 11.83L74.18 11.83L74.18 11.83Q74.33 11.70 74.42 11.63L74.42 11.63L74.42 11.63Q74.48 11.70 74.56 11.79L74.56 11.79L74.56 11.79Q74.65 11.89 74.72 11.97L74.72 11.97L74.72 11.97Q74.57 12.12 74.35 12.34L74.35 12.34L74.35 12.34Q74.12 12.55 73.86 12.78L73.86 12.78L73.86 12.78Q73.60 13.00 73.31 13.23L73.31 13.23L73.31 13.23Q73.03 13.45 72.76 13.63L72.76 13.63L72.76 13.63Q72.49 13.81 72.26 13.92L72.26 13.92L72.26 13.92Q72.02 14.03 71.87 14.03L71.87 14.03L71.87 14.03Q71.60 14.03 71.38 13.92L71.38 13.92L71.38 13.92Q71.17 13.82 70.99 13.65L70.99 13.65L70.99 13.65Q70.82 13.48 70.67 13.27L70.67 13.27L70.67 13.27Q70.52 13.05 70.39 12.82L70.39 12.82L70.39 12.82Q70.27 12.97 70.15 13.16L70.15 13.16L70.15 13.16Q70.03 13.34 69.93 13.50L69.93 13.50L69.93 13.50Q69.83 13.67 69.76 13.79L69.76 13.79L69.76 13.79Q69.69 13.91 69.67 13.94L69.67 13.94L69.67 13.94Q69.66 13.99 69.63 14.02L69.63 14.02L69.63 14.02Q69.60 14.04 69.54 14.04L69.54 14.04L69.54 14.04Q69.44 14.04 69.30 13.96L69.30 13.96L69.30 13.96Q69.16 13.88 69.02 13.75L69.02 13.75L69.02 13.75Q68.87 13.62 68.73 13.47L68.73 13.47L68.73 13.47Q68.59 13.32 68.49 13.16L68.49 13.16L68.49 13.16Q68.43 13.08 68.42 12.99L68.42 12.99L68.42 12.99Q68.41 12.89 68.41 12.76L68.41 12.76L68.41 12.76Q68.41 12.30 68.52 11.74L68.52 11.74L68.52 11.74Q68.63 11.17 68.82 10.54L68.82 10.54L68.82 10.54Q69.02 9.92 69.30 9.25L69.30 9.25L69.30 9.25Q69.58 8.59 69.91 7.93L69.91 7.93L69.91 7.93Q70.25 7.28 70.64 6.66L70.64 6.66L70.64 6.66Q71.03 6.04 71.44 5.50L71.44 5.50L71.44 5.50Q71.86 4.96 72.30 4.53L72.30 4.53L72.30 4.53Q72.73 4.09 73.18 3.82L73.18 3.82L73.18 3.82Q73.25 3.78 73.31 3.77L73.31 3.77L73.31 3.77Q73.36 3.75 73.40 3.75L73.40 3.75L73.40 3.75Q73.49 3.75 73.64 3.85L73.64 3.85L73.64 3.85Q73.79 3.94 73.95 4.07L73.95 4.07L73.95 4.07Q74.12 4.20 74.27 4.33L74.27 4.33L74.27 4.33Q74.42 4.46 74.48 4.54L74.48 4.54L74.48 4.54Q74.53 4.60 74.53 4.72L74.53 4.72L74.53 4.72Q74.53 5.17 74.22 5.84L74.22 5.84L74.22 5.84Q73.92 6.51 73.38 7.32L73.38 7.32L73.38 7.32Q72.83 8.13 72.05 9.04L72.05 9.04L72.05 9.04Q71.28 9.95 70.33 10.87L70.33 10.87L70.33 10.87Q70.23 11.22 70.13 11.56L70.13 11.56L70.13 11.56Q70.03 11.91 69.95 12.26L69.95 12.26L69.95 12.26Q70.59 11.33 71.09 10.80L71.09 10.80L71.09 10.80Q71.59 10.26 71.94 9.98L71.94 9.98L71.94 9.98Q72.30 9.71 72.52 9.63L72.52 9.63L72.52 9.63Q72.74 9.55 72.83 9.55L72.83 9.55L72.83 9.55Q72.91 9.55 73.02 9.64L73.02 9.64L73.02 9.64Q73.14 9.72 73.24 9.83L73.24 9.83L73.24 9.83Q73.34 9.95 73.42 10.05L73.42 10.05L73.42 10.05Q73.51 10.16 73.53 10.21L73.53 10.21L73.53 10.21Q73.54 10.27 73.39 10.48L73.39 10.48L73.39 10.48Q73.24 10.69 72.97 10.96L72.97 10.96L72.97 10.96Q72.71 11.24 72.34 11.54L72.34 11.54L72.34 11.54Q71.98 11.85 71.54 12.11L71.54 12.11L71.54 12.11Q71.76 12.42 71.92 12.60L71.92 12.60L71.92 12.60Q72.08 12.78 72.19 12.87L72.19 12.87L72.19 12.87Q72.31 12.97 72.40 13.00ZM71.67 7.48L71.67 7.48L71.67 7.48Q71.46 7.89 71.25 8.39L71.25 8.39L71.25 8.39Q71.03 8.89 70.82 9.45L70.82 9.45L70.82 9.45Q71.58 8.59 72.12 7.85L72.12 7.85L72.12 7.85Q72.65 7.11 73.00 6.51L73.00 6.51L73.00 6.51Q73.34 5.91 73.50 5.46L73.50 5.46L73.50 5.46Q73.66 5.00 73.66 4.69L73.66 4.69L73.66 4.69Q73.66 4.67 73.65 4.65L73.65 4.65L73.65 4.65Q73.65 4.62 73.62 4.62L73.62 4.62L73.62 4.62Q73.53 4.62 73.35 4.81L73.35 4.81L73.35 4.81Q73.17 5.00 72.91 5.37L72.91 5.37L72.91 5.37Q72.65 5.74 72.33 6.27L72.33 6.27L72.33 6.27Q72.01 6.80 71.67 7.48ZM74.81 14.05L74.81 14.05L74.81 14.05Q74.70 14.05 74.55 13.98L74.55 13.98L74.55 13.98Q74.39 13.91 74.25 13.81L74.25 13.81L74.25 13.81Q74.10 13.70 74.00 13.57L74.00 13.57L74.00 13.57Q73.90 13.44 73.90 13.32L73.90 13.32L73.90 13.32Q73.96 13.02 74.08 12.63L74.08 12.63L74.08 12.63Q74.20 12.24 74.33 11.83L74.33 11.83L74.33 11.83Q74.46 11.43 74.61 11.04L74.61 11.04L74.61 11.04Q74.76 10.66 74.88 10.36L74.88 10.36L74.88 10.36Q75.00 10.06 75.09 9.87L75.09 9.87L75.09 9.87Q75.17 9.69 75.20 9.69L75.20 9.69L75.20 9.69Q75.24 9.69 75.41 9.78L75.41 9.78L75.41 9.78Q75.57 9.86 75.75 9.99L75.75 9.99L75.75 9.99Q75.93 10.12 76.08 10.26L76.08 10.26L76.08 10.26Q76.22 10.40 76.22 10.50L76.22 10.50L76.22 10.50Q76.22 10.52 76.21 10.55L76.21 10.55L76.21 10.55Q76.21 10.58 76.19 10.63L76.19 10.63L76.19 10.63Q76.14 10.80 76.05 11.03L76.05 11.03L76.05 11.03Q75.97 11.27 75.87 11.52L75.87 11.52L75.87 11.52Q75.78 11.76 75.68 12.01L75.68 12.01L75.68 12.01Q75.58 12.26 75.51 12.48L75.51 12.48L75.51 12.48Q75.43 12.70 75.39 12.87L75.39 12.87L75.39 12.87Q75.34 13.03 75.34 13.10L75.34 13.10L75.34 13.10Q75.34 13.15 75.38 13.15L75.38 13.15L75.38 13.15Q75.46 13.15 75.61 13.06L75.61 13.06L75.61 13.06Q75.76 12.97 75.95 12.82L75.95 12.82L75.95 12.82Q76.15 12.68 76.36 12.51L76.36 12.51L76.36 12.51Q76.57 12.34 76.76 12.17L76.76 12.17L76.76 12.17Q76.96 12.00 77.12 11.87L77.12 11.87L77.12 11.87Q77.27 11.73 77.36 11.66L77.36 11.66L77.36 11.66Q77.42 11.72 77.50 11.82L77.50 11.82L77.50 11.82Q77.59 11.92 77.66 12.00L77.66 12.00L77.66 12.00Q77.51 12.15 77.29 12.36L77.29 12.36L77.29 12.36Q77.06 12.58 76.80 12.80L76.80 12.80L76.80 12.80Q76.54 13.03 76.25 13.25L76.25 13.25L76.25 13.25Q75.97 13.48 75.70 13.66L75.70 13.66L75.70 13.66Q75.43 13.84 75.20 13.95L75.20 13.95L75.20 13.95Q74.97 14.05 74.81 14.05ZM77.51 7.60L77.51 7.60L77.51 7.60Q77.51 7.63 77.46 7.73L77.46 7.73L77.46 7.73Q77.42 7.84 77.36 7.98L77.36 7.98L77.36 7.98Q77.29 8.12 77.22 8.27L77.22 8.27L77.22 8.27Q77.14 8.43 77.06 8.56L77.06 8.56L77.06 8.56Q76.99 8.69 76.92 8.77L76.92 8.77L76.92 8.77Q76.85 8.86 76.81 8.86L76.81 8.86L76.81 8.86Q76.69 8.85 76.51 8.78L76.51 8.78L76.51 8.78Q76.34 8.72 76.18 8.63L76.18 8.63L76.18 8.63Q76.02 8.54 75.90 8.46L75.90 8.46L75.90 8.46Q75.79 8.38 75.79 8.35L75.79 8.35L75.79 8.35Q75.79 8.20 75.87 7.97L75.87 7.97L75.87 7.97Q75.95 7.75 76.06 7.53L76.06 7.53L76.06 7.53Q76.17 7.31 76.29 7.16L76.29 7.16L76.29 7.16Q76.40 7 76.46 7L76.46 7L76.46 7Q76.58 7 76.76 7.08L76.76 7.08L76.76 7.08Q76.94 7.16 77.11 7.26L77.11 7.26L77.11 7.26Q77.27 7.36 77.39 7.46L77.39 7.46L77.39 7.46Q77.51 7.56 77.51 7.60ZM79.22 10.38L79.22 10.38L79.22 10.38Q79.14 10.60 79.06 10.82L79.06 10.82L79.06 10.82Q78.98 11.05 78.89 11.29L78.89 11.29L78.89 11.29Q79.32 10.79 79.64 10.48L79.64 10.48L79.64 10.48Q79.95 10.17 80.16 9.99L80.16 9.99L80.16 9.99Q80.38 9.82 80.51 9.75L80.51 9.75L80.51 9.75Q80.64 9.69 80.72 9.69L80.72 9.69L80.72 9.69Q80.81 9.69 80.99 9.78L80.99 9.78L80.99 9.78Q81.16 9.86 81.34 9.99L81.34 9.99L81.34 9.99Q81.53 10.12 81.66 10.26L81.66 10.26L81.66 10.26Q81.79 10.40 81.79 10.50L81.79 10.50L81.79 10.50Q81.79 10.52 81.79 10.55L81.79 10.55L81.79 10.55Q81.78 10.58 81.76 10.63L81.76 10.63L81.76 10.63Q81.71 10.80 81.62 11.03L81.62 11.03L81.62 11.03Q81.54 11.27 81.44 11.52L81.44 11.52L81.44 11.52Q81.35 11.76 81.25 12.01L81.25 12.01L81.25 12.01Q81.16 12.26 81.08 12.48L81.08 12.48L81.08 12.48Q81.01 12.70 80.96 12.87L80.96 12.87L80.96 12.87Q80.91 13.03 80.91 13.10L80.91 13.10L80.91 13.10Q80.91 13.15 80.95 13.15L80.95 13.15L80.95 13.15Q81.03 13.15 81.18 13.06L81.18 13.06L81.18 13.06Q81.33 12.97 81.52 12.82L81.52 12.82L81.52 12.82Q81.72 12.68 81.93 12.51L81.93 12.51L81.93 12.51Q82.14 12.34 82.34 12.17L82.34 12.17L82.34 12.17Q82.53 12.00 82.69 11.87L82.69 11.87L82.69 11.87Q82.84 11.73 82.93 11.66L82.93 11.66L82.93 11.66Q83.00 11.72 83.08 11.82L83.08 11.82L83.08 11.82Q83.16 11.92 83.23 12.00L83.23 12.00L83.23 12.00Q83.08 12.15 82.86 12.36L82.86 12.36L82.86 12.36Q82.63 12.58 82.37 12.80L82.37 12.80L82.37 12.80Q82.11 13.03 81.82 13.25L81.82 13.25L81.82 13.25Q81.54 13.48 81.27 13.66L81.27 13.66L81.27 13.66Q81.01 13.84 80.77 13.95L80.77 13.95L80.77 13.95Q80.54 14.05 80.38 14.05L80.38 14.05L80.38 14.05Q80.28 14.05 80.12 13.98L80.12 13.98L80.12 13.98Q79.97 13.91 79.82 13.81L79.82 13.81L79.82 13.81Q79.67 13.70 79.57 13.57L79.57 13.57L79.57 13.57Q79.47 13.44 79.47 13.32L79.47 13.32L79.47 13.32Q79.53 13.04 79.64 12.68L79.64 12.68L79.64 12.68Q79.74 12.33 79.86 11.95L79.86 11.95L79.86 11.95Q79.99 11.58 80.12 11.21L80.12 11.21L80.12 11.21Q80.25 10.85 80.38 10.54L80.38 10.54L80.36 10.55L80.36 10.55Q80.23 10.71 79.99 10.97L79.99 10.97L79.99 10.97Q79.75 11.22 79.44 11.62L79.44 11.62L79.44 11.62Q79.13 12.02 78.79 12.59L78.79 12.59L78.79 12.59Q78.45 13.15 78.12 13.92L78.12 13.92L78.12 13.92Q78.08 14.02 78.05 14.08L78.05 14.08L78.05 14.08Q78.01 14.13 77.92 14.13L77.92 14.13L77.92 14.13Q77.80 14.13 77.65 14.06L77.65 14.06L77.65 14.06Q77.51 14 77.35 13.89L77.35 13.89L77.35 13.89Q77.20 13.79 77.04 13.66L77.04 13.66L77.04 13.66Q76.89 13.53 76.77 13.40L76.77 13.40L76.77 13.40Q76.77 13.36 76.81 13.17L76.81 13.17L76.81 13.17Q76.84 12.97 76.91 12.68L76.91 12.68L76.91 12.68Q76.98 12.39 77.08 12.02L77.08 12.02L77.08 12.02Q77.18 11.65 77.31 11.24L77.31 11.24L77.31 11.24Q77.44 10.83 77.60 10.40L77.60 10.40L77.60 10.40Q77.75 9.97 77.93 9.58L77.93 9.58L77.93 9.58Q78.22 9.71 78.57 9.91L78.57 9.91L78.57 9.91Q78.92 10.11 79.22 10.38ZM96.37 4.03L96.37 4.03L96.37 4.03Q95.96 5.17 95.59 6.34L95.59 6.34L95.59 6.34Q95.23 7.51 94.96 8.84L94.96 8.84L94.96 8.84Q94.68 10.17 94.52 11.71L94.52 11.71L94.52 11.71Q94.36 13.25 94.35 15.12L94.35 15.12L94.35 15.12Q94.27 15.18 94.11 15.27L94.11 15.27L94.11 15.27Q93.95 15.36 93.75 15.47L93.75 15.47L93.75 15.47Q93.56 15.57 93.34 15.68L93.34 15.68L93.34 15.68Q93.13 15.79 92.94 15.89L92.94 15.89L92.94 15.89Q92.74 16.00 92.59 16.08L92.59 16.08L92.59 16.08Q92.43 16.16 92.35 16.20L92.35 16.20L92.35 16.20Q92.35 15.69 92.42 15.07L92.42 15.07L92.42 15.07Q92.48 14.46 92.58 13.78L92.58 13.78L92.58 13.78Q92.69 13.10 92.83 12.37L92.83 12.37L92.83 12.37Q92.97 11.63 93.13 10.89L93.13 10.89L93.13 10.89Q92.64 11.55 92.19 11.99L92.19 11.99L92.19 11.99Q91.75 12.43 91.40 12.70L91.40 12.70L91.40 12.70Q90.99 13.02 90.64 13.20L90.64 13.20L90.64 13.20Q90.50 13.28 90.30 13.21L90.30 13.21L90.30 13.21Q90.09 13.15 89.89 13.01L89.89 13.01L89.89 13.01Q89.69 12.87 89.52 12.71L89.52 12.71L89.52 12.71Q89.35 12.54 89.28 12.43L89.28 12.43L89.28 12.43Q89.22 12.33 89.14 11.81L89.14 11.81L89.14 11.81Q89.06 11.30 89.02 10.34L89.02 10.34L89.02 10.34Q88.73 10.73 88.39 11.15L88.39 11.15L88.39 11.15Q88.05 11.57 87.69 11.99L87.69 11.99L87.69 11.99Q87.34 12.41 87.00 12.81L87.00 12.81L87.00 12.81Q86.66 13.20 86.36 13.52L86.36 13.52L86.36 13.52Q86.06 13.85 85.83 14.09L85.83 14.09L85.83 14.09Q85.59 14.32 85.46 14.42L85.46 14.42L85.46 14.42Q85.39 14.35 85.30 14.25L85.30 14.25L85.30 14.25Q85.20 14.16 85.09 14.05L85.09 14.05L85.09 14.05Q84.98 13.95 84.88 13.84L84.88 13.84L84.88 13.84Q84.78 13.73 84.70 13.64L84.70 13.64L84.70 13.64Q85.70 12.76 86.73 11.17L86.73 11.17L86.73 11.17Q87.75 9.57 88.68 7.32L88.68 7.32L88.68 7.32Q88.79 7.41 88.87 7.49L88.87 7.49L88.87 7.49Q88.96 7.57 89.04 7.66L89.04 7.66L89.04 7.66Q89.10 6.58 89.21 5.26L89.21 5.26L89.21 5.26Q89.33 3.94 89.54 2.34L89.54 2.34L89.54 2.34Q89.57 2.35 89.70 2.47L89.70 2.47L89.70 2.47Q89.82 2.58 90.00 2.76L90.00 2.76L90.00 2.76Q90.17 2.93 90.36 3.13L90.36 3.13L90.36 3.13Q90.55 3.34 90.72 3.52L90.72 3.52L90.72 3.52Q90.90 3.71 91.03 3.85L91.03 3.85L91.03 3.85Q91.16 3.99 91.21 4.05L91.21 4.05L91.21 4.05Q91.19 4.10 91.14 4.34L91.14 4.34L91.14 4.34Q91.10 4.58 91.03 4.96L91.03 4.96L91.03 4.96Q90.97 5.33 90.89 5.82L90.89 5.82L90.89 5.82Q90.82 6.30 90.75 6.85L90.75 6.85L90.75 6.85Q90.69 7.39 90.65 7.97L90.65 7.97L90.65 7.97Q90.60 8.54 90.60 9.10L90.60 9.10L90.60 9.10Q90.59 9.33 90.59 9.64L90.59 9.64L90.59 9.64Q90.58 9.94 90.58 10.26L90.58 10.26L90.58 10.26Q90.58 10.58 90.59 10.89L90.59 10.89L90.59 10.89Q90.60 11.20 90.62 11.45L90.62 11.45L90.62 11.45Q90.64 11.70 90.68 11.86L90.68 11.86L90.68 11.86Q90.72 12.02 90.78 12.04L90.78 12.04L90.78 12.04Q90.86 12.06 91.14 11.84L91.14 11.84L91.14 11.84Q91.43 11.62 91.83 11.20L91.83 11.20L91.83 11.20Q92.24 10.77 92.71 10.17L92.71 10.17L92.71 10.17Q93.19 9.56 93.63 8.81L93.63 8.81L93.63 8.81Q93.84 8.01 94.05 7.27L94.05 7.27L94.05 7.27Q94.25 6.52 94.45 5.89L94.45 5.89L94.45 5.89Q94.64 5.25 94.81 4.75L94.81 4.75L94.81 4.75Q94.99 4.25 95.12 3.92L95.12 3.92L95.12 3.92Q95.26 3.93 95.43 3.94L95.43 3.94L95.43 3.94Q95.61 3.95 95.79 3.97L95.79 3.97L95.79 3.97Q95.96 3.99 96.12 4.00L96.12 4.00L96.12 4.00Q96.27 4.02 96.37 4.03ZM96.87 12.98L96.87 12.98L96.87 12.98Q96.87 13.19 97.02 13.19L97.02 13.19L97.02 13.19Q97.18 13.19 97.44 12.94L97.44 12.94L97.44 12.94Q97.70 12.69 97.98 12.30L97.98 12.30L97.98 12.30Q97.97 12.23 97.96 12.17L97.96 12.17L97.96 12.17Q97.96 12.11 97.96 12.07L97.96 12.07L97.96 12.07Q97.96 11.93 97.99 11.74L97.99 11.74L97.99 11.74Q98.02 11.55 98.14 11.31L98.14 11.31L98.14 11.31Q98.23 11.13 98.34 10.95L98.34 10.95L98.34 10.95Q98.44 10.79 98.57 10.61L98.57 10.61L98.57 10.61Q98.71 10.43 98.88 10.27L98.88 10.27L98.92 10.23L98.92 10.23Q98.98 10.32 99.10 10.46L99.10 10.46L99.10 10.46Q99.21 10.60 99.32 10.74L99.32 10.74L99.32 10.74Q99.44 10.89 99.52 11.01L99.52 11.01L99.52 11.01Q99.61 11.14 99.63 11.18L99.63 11.18L99.63 11.18Q99.63 11.48 99.52 11.77L99.52 11.77L99.52 11.77Q99.42 12.07 99.24 12.35L99.24 12.35L99.24 12.35Q99.65 12.33 100.00 12.14L100.00 12.14L100.00 12.14Q100.35 11.96 100.73 11.55L100.73 11.55L100.73 11.55Q100.80 11.61 100.90 11.72L100.90 11.72L100.90 11.72Q100.99 11.83 101.06 11.90L101.06 11.90L101.06 11.90Q100.77 12.20 100.49 12.40L100.49 12.40L100.49 12.40Q100.21 12.60 99.94 12.71L99.94 12.71L99.94 12.71Q99.66 12.83 99.37 12.88L99.37 12.88L99.37 12.88Q99.09 12.93 98.79 12.93L98.79 12.93L98.79 12.93Q98.55 13.18 98.29 13.38L98.29 13.38L98.29 13.38Q98.02 13.59 97.74 13.74L97.74 13.74L97.74 13.74Q97.47 13.89 97.19 13.97L97.19 13.97L97.19 13.97Q96.92 14.05 96.67 14.05L96.67 14.05L96.67 14.05Q96.47 14.05 96.25 13.93L96.25 13.93L96.25 13.93Q96.03 13.81 95.85 13.63L95.85 13.63L95.85 13.63Q95.68 13.45 95.56 13.24L95.56 13.24L95.56 13.24Q95.44 13.04 95.44 12.88L95.44 12.88L95.44 12.88Q95.44 12.36 95.58 11.85L95.58 11.85L95.58 11.85Q95.72 11.33 96.02 10.89L96.02 10.89L96.02 10.89Q96.32 10.44 96.78 10.10L96.78 10.10L96.78 10.10Q97.24 9.75 97.88 9.58L97.88 9.58L97.88 9.58Q97.90 9.56 97.95 9.56L97.95 9.56L97.95 9.56Q98 9.55 98.03 9.55L98.03 9.55L98.03 9.55Q98.13 9.55 98.24 9.62L98.24 9.62L98.24 9.62Q98.34 9.69 98.43 9.78L98.43 9.78L98.43 9.78Q98.53 9.87 98.59 9.96L98.59 9.96L98.59 9.96Q98.65 10.04 98.65 10.07L98.65 10.07L98.65 10.07Q98.64 10.10 98.55 10.15L98.55 10.15L98.55 10.15Q98.46 10.21 98.31 10.33L98.31 10.33L98.31 10.33Q98.16 10.45 97.95 10.68L97.95 10.68L97.95 10.68Q97.75 10.91 97.50 11.29L97.50 11.29L97.50 11.29Q97.13 11.84 97.00 12.29L97.00 12.29L97.00 12.29Q96.87 12.74 96.87 12.98ZM103.83 12.97L103.83 12.97L103.83 12.97Q103.54 12.97 103.33 12.87L103.33 12.87L103.33 12.87Q103.11 13.11 102.86 13.32L102.86 13.32L102.86 13.32Q102.61 13.53 102.38 13.69L102.38 13.69L102.38 13.69Q102.14 13.85 101.90 13.95L101.90 13.95L101.90 13.95Q101.67 14.04 101.47 14.05L101.47 14.05L101.47 14.05Q101.36 14.05 101.17 13.97L101.17 13.97L101.17 13.97Q100.97 13.88 100.79 13.74L100.79 13.74L100.79 13.74Q100.60 13.60 100.46 13.42L100.46 13.42L100.46 13.42Q100.32 13.23 100.32 13.05L100.32 13.05L100.32 13.05Q100.32 12.60 100.41 12.14L100.41 12.14L100.41 12.14Q100.50 11.69 100.63 11.25L100.63 11.25L100.63 11.25Q100.76 10.80 100.92 10.37L100.92 10.37L100.92 10.37Q101.08 9.95 101.23 9.55L101.23 9.55L101.23 9.55Q101.58 9.71 101.91 9.90L101.91 9.90L101.91 9.90Q102.24 10.09 102.53 10.35L102.53 10.35L102.53 10.35Q102.42 10.55 102.32 10.82L102.32 10.82L102.32 10.82Q102.22 11.09 102.12 11.38L102.12 11.38L102.12 11.38Q102.03 11.66 101.94 11.95L101.94 11.95L101.94 11.95Q101.86 12.24 101.80 12.48L101.80 12.48L101.80 12.48Q101.74 12.73 101.71 12.92L101.71 12.92L101.71 12.92Q101.67 13.10 101.67 13.19L101.67 13.19L101.67 13.19Q101.67 13.24 101.69 13.29L101.69 13.29L101.69 13.29Q101.72 13.33 101.77 13.33L101.77 13.33L101.77 13.33Q101.88 13.33 102.02 13.26L102.02 13.26L102.02 13.26Q102.15 13.19 102.30 13.08L102.30 13.08L102.30 13.08Q102.45 12.97 102.60 12.81L102.60 12.81L102.60 12.81Q102.76 12.66 102.90 12.49L102.90 12.49L102.90 12.49Q102.78 12.28 102.78 12.07L102.78 12.07L102.78 12.07Q102.78 11.92 102.82 11.72L102.82 11.72L102.82 11.72Q102.87 11.52 102.94 11.30L102.94 11.30L102.94 11.30Q103.02 11.08 103.11 10.86L103.11 10.86L103.11 10.86Q103.20 10.64 103.30 10.45L103.30 10.45L103.30 10.45Q103.40 10.25 103.49 10.11L103.49 10.11L103.49 10.11Q103.58 9.97 103.66 9.90L103.66 9.90L103.66 9.90Q103.82 9.96 103.99 10.07L103.99 10.07L103.99 10.07Q104.16 10.17 104.30 10.29L104.30 10.29L104.30 10.29Q104.45 10.41 104.54 10.52L104.54 10.52L104.54 10.52Q104.63 10.64 104.64 10.71L104.64 10.71L104.64 10.71Q104.64 10.86 104.58 11.05L104.58 11.05L104.58 11.05Q104.51 11.24 104.39 11.46L104.39 11.46L104.39 11.46Q104.27 11.68 104.10 11.93L104.10 11.93L104.10 11.93Q103.93 12.17 103.74 12.41L103.74 12.41L103.74 12.41Q103.78 12.43 103.82 12.44L103.82 12.44L103.82 12.44Q103.87 12.45 103.93 12.45L103.93 12.45L103.93 12.45Q104.20 12.45 104.41 12.39L104.41 12.39L104.41 12.39Q104.62 12.34 104.82 12.23L104.82 12.23L104.82 12.23Q105.01 12.13 105.19 11.97L105.19 11.97L105.19 11.97Q105.38 11.81 105.59 11.61L105.59 11.61L105.59 11.61Q105.66 11.67 105.76 11.77L105.76 11.77L105.76 11.77Q105.85 11.87 105.92 11.94L105.92 11.94L105.92 11.94Q105.63 12.23 105.37 12.42L105.37 12.42L105.37 12.42Q105.12 12.62 104.87 12.74L104.87 12.74L104.87 12.74Q104.62 12.86 104.36 12.91L104.36 12.91L104.36 12.91Q104.11 12.97 103.83 12.97ZM105.96 14.05L105.96 14.05L105.96 14.05Q105.85 14.05 105.70 13.98L105.70 13.98L105.70 13.98Q105.54 13.91 105.40 13.81L105.40 13.81L105.40 13.81Q105.25 13.70 105.15 13.57L105.15 13.57L105.15 13.57Q105.05 13.44 105.05 13.32L105.05 13.32L105.05 13.32Q105.12 13.02 105.23 12.63L105.23 12.63L105.23 12.63Q105.35 12.24 105.48 11.83L105.48 11.83L105.48 11.83Q105.62 11.43 105.76 11.04L105.76 11.04L105.76 11.04Q105.91 10.66 106.03 10.36L106.03 10.36L106.03 10.36Q106.15 10.06 106.24 9.87L106.24 9.87L106.24 9.87Q106.33 9.69 106.35 9.69L106.35 9.69L106.35 9.69Q106.39 9.69 106.56 9.78L106.56 9.78L106.56 9.78Q106.72 9.86 106.90 9.99L106.90 9.99L106.90 9.99Q107.08 10.12 107.23 10.26L107.23 10.26L107.23 10.26Q107.37 10.40 107.37 10.50L107.37 10.50L107.37 10.50Q107.37 10.52 107.37 10.55L107.37 10.55L107.37 10.55Q107.36 10.58 107.34 10.63L107.34 10.63L107.34 10.63Q107.29 10.80 107.20 11.03L107.20 11.03L107.20 11.03Q107.12 11.27 107.02 11.52L107.02 11.52L107.02 11.52Q106.93 11.76 106.83 12.01L106.83 12.01L106.83 12.01Q106.74 12.26 106.66 12.48L106.66 12.48L106.66 12.48Q106.59 12.70 106.54 12.87L106.54 12.87L106.54 12.87Q106.49 13.03 106.49 13.10L106.49 13.10L106.49 13.10Q106.49 13.15 106.53 13.15L106.53 13.15L106.53 13.15Q106.61 13.15 106.76 13.06L106.76 13.06L106.76 13.06Q106.91 12.97 107.10 12.82L107.10 12.82L107.10 12.82Q107.30 12.68 107.51 12.51L107.51 12.51L107.51 12.51Q107.72 12.34 107.92 12.17L107.92 12.17L107.92 12.17Q108.11 12.00 108.27 11.87L108.27 11.87L108.27 11.87Q108.42 11.73 108.51 11.66L108.51 11.66L108.51 11.66Q108.57 11.72 108.65 11.82L108.65 11.82L108.65 11.82Q108.74 11.92 108.81 12.00L108.81 12.00L108.81 12.00Q108.66 12.15 108.44 12.36L108.44 12.36L108.44 12.36Q108.21 12.58 107.95 12.80L107.95 12.80L107.95 12.80Q107.69 13.03 107.40 13.25L107.40 13.25L107.40 13.25Q107.12 13.48 106.85 13.66L106.85 13.66L106.85 13.66Q106.59 13.84 106.35 13.95L106.35 13.95L106.35 13.95Q106.12 14.05 105.96 14.05ZM108.66 7.60L108.66 7.60L108.66 7.60Q108.66 7.63 108.61 7.73L108.61 7.73L108.61 7.73Q108.57 7.84 108.51 7.98L108.51 7.98L108.51 7.98Q108.45 8.12 108.37 8.27L108.37 8.27L108.37 8.27Q108.29 8.43 108.21 8.56L108.21 8.56L108.21 8.56Q108.14 8.69 108.07 8.77L108.07 8.77L108.07 8.77Q108.00 8.86 107.96 8.86L107.96 8.86L107.96 8.86Q107.84 8.85 107.66 8.78L107.66 8.78L107.66 8.78Q107.49 8.72 107.33 8.63L107.33 8.63L107.33 8.63Q107.17 8.54 107.05 8.46L107.05 8.46L107.05 8.46Q106.94 8.38 106.94 8.35L106.94 8.35L106.94 8.35Q106.94 8.20 107.02 7.97L107.02 7.97L107.02 7.97Q107.11 7.75 107.21 7.53L107.21 7.53L107.21 7.53Q107.32 7.31 107.44 7.16L107.44 7.16L107.44 7.16Q107.55 7 107.61 7L107.61 7L107.61 7Q107.73 7 107.91 7.08L107.91 7.08L107.91 7.08Q108.09 7.16 108.26 7.26L108.26 7.26L108.26 7.26Q108.42 7.36 108.54 7.46L108.54 7.46L108.54 7.46Q108.66 7.56 108.66 7.60ZM112.85 11.66L113.18 12.00L113.18 12.00Q112.55 12.61 112.00 13.03L112.00 13.03L112.00 13.03Q111.44 13.45 110.93 13.70L110.93 13.70L110.93 13.70Q110.43 13.95 109.97 14.06L109.97 14.06L109.97 14.06Q109.50 14.17 109.07 14.17L109.07 14.17L109.07 14.17Q108.88 14.17 108.66 14.03L108.66 14.03L108.66 14.03Q108.43 13.90 108.24 13.70L108.24 13.70L108.24 13.70Q108.04 13.51 107.91 13.30L107.91 13.30L107.91 13.30Q107.78 13.08 107.78 12.93L107.78 12.93L107.78 12.93Q107.78 12.37 107.94 11.90L107.94 11.90L107.94 11.90Q108.09 11.44 108.34 11.06L108.34 11.06L108.34 11.06Q108.60 10.68 108.92 10.40L108.92 10.40L108.92 10.40Q109.25 10.11 109.60 9.92L109.60 9.92L109.60 9.92Q109.95 9.73 110.30 9.63L110.30 9.63L110.30 9.63Q110.65 9.54 110.94 9.54L110.94 9.54L110.94 9.54Q111.15 9.54 111.36 9.66L111.36 9.66L111.36 9.66Q111.57 9.78 111.74 9.96L111.74 9.96L111.74 9.96Q111.91 10.14 112.02 10.33L112.02 10.33L112.02 10.33Q112.12 10.53 112.12 10.67L112.12 10.67L112.12 10.67Q112.12 10.90 111.93 11.15L111.93 11.15L111.93 11.15Q111.73 11.39 111.38 11.64L111.38 11.64L111.38 11.64Q111.02 11.89 110.52 12.16L110.52 12.16L110.52 12.16Q110.02 12.42 109.42 12.69L109.42 12.69L109.42 12.69Q109.40 12.85 109.40 13.01L109.40 13.01L109.40 13.01Q109.40 13.22 109.49 13.30L109.49 13.30L109.49 13.30Q109.59 13.37 109.84 13.37L109.84 13.37L109.84 13.37Q110.29 13.37 110.69 13.22L110.69 13.22L110.69 13.22Q111.09 13.07 111.46 12.83L111.46 12.83L111.46 12.83Q111.83 12.59 112.17 12.28L112.17 12.28L112.17 12.28Q112.51 11.98 112.85 11.66L112.85 11.66ZM110.78 10.29L110.78 10.29L110.78 10.29Q110.64 10.29 110.48 10.44L110.48 10.44L110.48 10.44Q110.31 10.58 110.15 10.82L110.15 10.82L110.15 10.82Q109.98 11.06 109.83 11.37L109.83 11.37L109.83 11.37Q109.68 11.68 109.57 12.02L109.57 12.02L109.57 12.02Q109.83 11.85 110.07 11.67L110.07 11.67L110.07 11.67Q110.31 11.48 110.50 11.28L110.50 11.28L110.50 11.28Q110.69 11.08 110.81 10.87L110.81 10.87L110.81 10.87Q110.93 10.66 110.93 10.45L110.93 10.45L110.93 10.45Q110.93 10.38 110.89 10.34L110.89 10.34L110.89 10.34Q110.85 10.29 110.78 10.29ZM112.72 11.79L112.72 11.79L112.72 11.79Q112.88 11.64 113.08 11.45L113.08 11.45L113.08 11.45Q113.28 11.26 113.48 11.03L113.48 11.03L113.48 11.03Q113.68 10.81 113.86 10.55L113.86 10.55L113.86 10.55Q114.03 10.29 114.13 9.99L114.13 9.99L114.13 9.99Q114.16 9.83 114.22 9.66L114.22 9.66L114.22 9.66Q114.28 9.48 114.35 9.34L114.35 9.34L114.35 9.34Q114.42 9.19 114.49 9.10L114.49 9.10L114.49 9.10Q114.56 9.00 114.61 9.00L114.61 9.00L114.61 9.00Q114.69 9.05 114.86 9.18L114.86 9.18L114.86 9.18Q115.02 9.32 115.19 9.47L115.19 9.47L115.19 9.47Q115.35 9.62 115.48 9.74L115.48 9.74L115.48 9.74Q115.60 9.87 115.60 9.90L115.60 9.90L115.60 9.90Q115.52 10.21 115.52 10.47L115.52 10.47L115.52 10.47Q115.53 10.72 115.56 10.96L115.56 10.96L115.56 10.96Q115.60 11.21 115.65 11.49L115.65 11.49L115.65 11.49Q115.69 11.76 115.69 12.13L115.69 12.13L115.69 12.13Q115.69 12.35 115.62 12.63L115.62 12.63L115.62 12.63Q115.55 12.91 115.37 13.14L115.37 13.14L115.37 13.14Q115.72 12.93 116.06 12.68L116.06 12.68L116.06 12.68Q116.40 12.42 116.67 12.20L116.67 12.20L116.67 12.20Q116.98 11.93 117.27 11.66L117.27 11.66L117.58 12.00L117.58 12.00Q117.35 12.21 117.09 12.45L117.09 12.45L117.09 12.45Q116.83 12.69 116.54 12.92L116.54 12.92L116.54 12.92Q116.26 13.15 115.96 13.36L115.96 13.36L115.96 13.36Q115.67 13.58 115.38 13.74L115.38 13.74L115.38 13.74Q115.10 13.90 114.83 14L114.83 14L114.83 14Q114.56 14.10 114.33 14.10L114.33 14.10L114.33 14.10Q114.13 14.10 113.89 14L113.89 14L113.89 14Q113.65 13.90 113.44 13.77L113.44 13.77L113.44 13.77Q113.23 13.63 113.07 13.48L113.07 13.48L113.07 13.48Q112.92 13.33 112.89 13.23L112.89 13.23L112.89 13.23Q112.89 13.21 112.92 13.17L112.92 13.17L112.92 13.17Q112.94 13.13 112.98 13.08L112.98 13.08L112.98 13.08Q113.02 13.03 113.06 12.99L113.06 12.99L113.06 12.99Q113.09 12.95 113.11 12.95L113.11 12.95L113.11 12.95Q113.16 12.95 113.28 13.02L113.28 13.02L113.28 13.02Q113.40 13.08 113.69 13.08L113.69 13.08L113.69 13.08Q113.85 13.08 113.96 13.00L113.96 13.00L113.96 13.00Q114.07 12.91 114.15 12.78L114.15 12.78L114.15 12.78Q114.22 12.64 114.26 12.46L114.26 12.46L114.26 12.46Q114.29 12.28 114.29 12.09L114.29 12.09L114.29 12.09Q114.29 11.80 114.26 11.53L114.26 11.53L114.26 11.53Q114.24 11.26 114.20 11.01L114.20 11.01L114.20 11.01Q114.08 11.14 113.93 11.29L113.93 11.29L113.93 11.29Q113.78 11.44 113.63 11.59L113.63 11.59L113.63 11.59Q113.48 11.74 113.32 11.88L113.32 11.88L113.32 11.88Q113.17 12.02 113.05 12.13L113.05 12.13L112.72 11.79Z"></path></g><!----><g data-v-423bf9ae="" id="144e0543-efc3-4870-8ac8-d715184698ec" transform="matrix(1.0022555033365885,0,0,1.0022555033365885,-0.7934951717696066,0.7970035768768895)" stroke="none" fill="#ffffff"><path d="M35.697 40.771V25.268l18.604 7.751zM72.483 81.645H17.516a8.457 8.457 0 0 0-8.457 8.457H80.94a8.458 8.458 0 0 0-8.457-8.457zM58.742 72.483c-4.857 0-8.809-3.951-8.809-8.811 0-4.856 3.951-8.809 8.809-8.809 4.856 0 8.809 3.952 8.809 8.809-.001 4.86-3.953 8.811-8.809 8.811zm0-14.8c-3.303 0-5.991 2.688-5.991 5.99s2.688 5.99 5.991 5.99c3.303 0 5.99-2.688 5.99-5.99s-2.688-5.99-5.99-5.99z"></path><path d="M51.342 83.054H31.257a4.587 4.587 0 0 1-4.58-4.581 4.584 4.584 0 0 1 4.58-4.58h20.084v2.819H31.257a1.763 1.763 0 0 0 0 3.523h20.084v2.819z"></path><path d="M67.55 83.054H51.342a1.41 1.41 0 0 1 0-2.819h13.39v-2.818c0-2.719-2.688-4.933-5.99-4.933-3.657 0-5.991 1.85-5.991 2.818a1.41 1.41 0 0 1-2.818 0c0-3.057 4.033-5.639 8.809-5.639 4.856 0 8.809 3.479 8.809 7.753v5.638zM78.825 66.14H64.417l.222-1.603c.056-.391.093-.622.093-.864a5.997 5.997 0 0 0-5.99-5.99 5.998 5.998 0 0 0-5.991 5.99c0 .266.043.519.081.774l.241 1.615-1.623.078h-5.028l-.411-.401c-2.255-2.208-6.113-2.207-8.365-.001l-.41.402H11.174c-5.44 0-9.866-4.426-9.866-9.865V9.764c0-5.44 4.425-9.865 9.866-9.865h67.651c5.44 0 9.867 4.425 9.867 9.865v46.511c0 5.439-4.426 9.865-9.867 9.865zm-11.282-2.82h11.282c3.887 0 7.048-3.16 7.048-7.046V9.764c0-3.886-3.162-7.047-7.048-7.047H11.174c-3.886 0-7.048 3.162-7.048 7.047v46.511c0 3.886 3.162 7.046 7.048 7.046h24.939c3.185-2.732 8.24-2.734 11.431 0h2.396c.186-4.693 4.063-8.456 8.802-8.456 4.739-.001 8.615 3.762 8.801 8.455z"></path><path d="M47.572 76.712H36.085l-.411-.403a8.742 8.742 0 0 1-2.655-6.291c0-4.859 3.952-8.811 8.809-8.811 4.857 0 8.809 3.951 8.809 8.811a8.733 8.733 0 0 1-2.654 6.291l-.411.403zm-10.301-2.819h9.116a5.926 5.926 0 0 0 1.432-3.875 5.997 5.997 0 0 0-5.991-5.992 5.997 5.997 0 0 0-5.99 5.992c0 1.433.505 2.789 1.433 3.875z"></path></g><!----></svg>