<svg data-v-423bf9ae="" xmlns="http://www.w3.org/2000/svg" viewBox="0 0 720.2529886150297 60" class="font"><!----><!----><!----><g data-v-423bf9ae="" id="19ad15a5-fba3-4e63-a250-b52cc1cd8ac1" fill="white" transform="matrix(3.162888568215711,0,0,3.162888568215711,1.012117510060932,-0.6642057018465017)"><path d="M5.12 8.74L5.12 8.74Q5.28 8.34 5.28 7.97L5.28 7.97L5.28 7.97Q5.28 7.18 4.64 6.71L4.64 6.71L4.64 6.71Q4.00 6.24 3.12 6.24L3.12 6.24L3.12 6.24Q2.77 6.24 2.44 6.33L2.44 6.33L2.44 6.33Q2.38 6.71 2.34 6.94L2.34 6.94L2.34 6.94Q1.96 9.46 1.62 11.51L1.62 11.51L1.62 11.51Q2.14 11.26 2.81 10.85L2.81 10.85L2.81 10.85Q3.68 10.32 4.28 9.84L4.28 9.84L4.28 9.84Q4.89 9.35 5.12 8.74L5.12 8.74ZM2.59 5.33L2.59 5.33Q3.18 5.22 3.70 5.22L3.70 5.22L3.70 5.22Q5.04 5.22 5.92 5.87L5.92 5.87L5.92 5.87Q6.79 6.52 6.71 7.83L6.71 7.83L6.71 7.83Q6.61 9.37 5.10 10.54L5.10 10.54L5.10 10.54Q3.60 11.72 1.44 12.67L1.44 12.67L1.33 13.30L1.33 13.30Q1.27 13.59 0.92 13.79L0.92 13.79L0.92 13.79Q0.57 13.99 0.21 13.99L0.21 13.99L0.21 13.99Q-0.03 13.99-0.16 13.88L-0.16 13.88L-0.16 13.88Q-0.29 13.78-0.25 13.57L-0.25 13.57L-0.25 13.57Q-0.20 13.20-0.15 13.02L-0.15 13.02L-0.15 13.02Q-0.32 12.89-0.32 12.75L-0.32 12.75L-0.32 12.75Q-0.32 12.61-0.20 12.45L-0.20 12.45L-0.07 12.28L-0.01 12.24L-0.01 12.24Q0.63 8.48 0.94 6.61L0.94 6.61L0.94 6.61Q0.76 6.51 0.76 6.34L0.76 6.34L0.76 6.34Q0.76 6.13 1.04 5.94L1.04 5.94L1.04 5.94Q1.40 3.67 1.65 1.72L1.65 1.72L1.65 1.72Q1.69 1.46 2.04 1.27L2.04 1.27L2.04 1.27Q2.39 1.08 2.74 1.08L2.74 1.08L2.74 1.08Q2.97 1.08 3.09 1.17L3.09 1.17L3.09 1.17Q3.21 1.26 3.18 1.44L3.18 1.44L2.59 5.33ZM10.74 5.07L10.74 5.07Q10.02 5.61 9.58 6.83L9.58 6.83L9.58 6.83Q10.95 6.31 12.05 5.96L12.05 5.96L12.05 5.96Q11.59 5.32 11.12 5.10L11.12 5.10L11.12 5.10Q11.02 5.05 10.93 5.04L10.93 5.04L10.93 5.04Q10.84 5.03 10.82 5.03L10.82 5.03L10.82 5.03Q10.84 5.04 10.80 5.05L10.80 5.05L10.80 5.05Q10.77 5.07 10.74 5.07L10.74 5.07ZM10.79 4.07L10.79 4.07Q11.02 4.02 11.27 4.02L11.27 4.02L11.27 4.02Q12.61 4.02 13.71 5.82L13.71 5.82L13.71 5.82Q13.75 5.88 13.75 5.96L13.75 5.96L13.75 5.96Q13.75 6.12 13.55 6.29L13.55 6.29L13.55 6.29Q13.40 6.45 13.16 6.55L13.16 6.55L13.16 6.55Q11.76 7.17 9.27 8.02L9.27 8.02L9.27 8.02Q9.13 8.74 9.13 9.49L9.13 9.49L9.13 9.49Q9.13 9.84 9.14 10.00L9.14 10.00L9.14 10.00Q9.17 10.63 9.39 11.09L9.39 11.09L9.39 11.09Q9.46 11.24 9.60 11.38L9.60 11.38L9.60 11.38Q9.73 11.52 9.80 11.56L9.80 11.56L9.80 11.56Q9.84 11.59 9.94 11.59L9.94 11.59L9.94 11.59Q10.04 11.59 10.17 11.54L10.17 11.54L10.17 11.54Q10.30 11.48 10.47 11.38L10.47 11.38L10.47 11.38Q10.88 11.14 11.23 10.84L11.23 10.84L11.23 10.84Q11.58 10.53 12.07 10.04L12.07 10.04L12.07 10.04Q12.26 9.84 12.73 9.84L12.73 9.84L12.73 9.84Q12.98 9.84 13.15 9.92L13.15 9.92L13.15 9.92Q13.33 10.00 13.33 10.14L13.33 10.14L13.33 10.14Q13.33 10.26 13.19 10.42L13.19 10.42L13.19 10.42Q12.32 11.35 11.41 12.01L11.41 12.01L11.41 12.01Q10.50 12.67 9.59 12.67L9.59 12.67L9.59 12.67Q9.16 12.67 8.78 12.49L8.78 12.49L8.78 12.49Q8.15 12.19 7.87 11.55L7.87 11.55L7.87 11.55Q7.59 10.91 7.59 10.04L7.59 10.04L7.59 10.04Q7.59 9.39 7.76 8.53L7.76 8.53L7.64 8.55L7.53 8.60L7.53 8.60Q7.32 8.67 7.20 8.67L7.20 8.67L7.20 8.67Q7 8.67 6.89 8.57L6.89 8.57L6.89 8.57Q6.78 8.47 6.78 8.32L6.78 8.32L6.78 8.32Q6.78 8.13 6.92 7.96L6.92 7.96L6.92 7.96Q7.07 7.78 7.36 7.67L7.36 7.67L8.05 7.41L8.05 7.41Q8.18 7.01 8.43 6.38L8.43 6.38L8.43 6.38Q8.82 5.52 9.41 4.89L9.41 4.89L9.41 4.89Q10.00 4.26 10.79 4.07L10.79 4.07ZM16.03 5.98L16.03 5.98Q16.03 6.51 16.30 6.92L16.30 6.92L16.30 6.92Q16.58 7.32 16.97 7.60L16.97 7.60L16.97 7.60Q17.36 7.88 18.03 8.26L18.03 8.26L18.03 8.26Q18.94 8.78 19.43 9.20L19.43 9.20L19.43 9.20Q19.91 9.62 20.06 10.25L20.06 10.25L20.06 10.25Q20.12 10.53 20.12 10.65L20.12 10.65L20.12 10.65Q20.12 11.63 19.08 12.06L19.08 12.06L19.08 12.06Q18.05 12.49 16.73 12.49L16.73 12.49L16.73 12.49Q16.21 12.49 15.82 12.42L15.82 12.42L15.82 12.42Q15.36 12.33 14.86 12.09L14.86 12.09L14.86 12.09Q14.36 11.84 14.04 11.49L14.04 11.49L14.04 11.49Q13.71 11.13 13.71 10.75L13.71 10.75L13.71 10.75Q13.71 10.16 14.62 9.67L14.62 9.67L14.62 9.67Q14.87 9.55 15.11 9.55L15.11 9.55L15.11 9.55Q15.33 9.55 15.48 9.65L15.48 9.65L15.48 9.65Q15.62 9.74 15.62 9.88L15.62 9.88L15.62 9.88Q15.62 10.14 15.22 10.37L15.22 10.37L15.22 10.37Q15.13 10.42 15.13 10.50L15.13 10.50L15.13 10.50Q15.13 10.67 15.40 10.91L15.40 10.91L15.40 10.91Q15.67 11.14 15.82 11.23L15.82 11.23L15.82 11.23Q16.24 11.47 17.16 11.52L17.16 11.52L17.16 11.52Q17.28 11.54 17.56 11.54L17.56 11.54L17.56 11.54Q18.06 11.54 18.37 11.37L18.37 11.37L18.37 11.37Q18.68 11.20 18.63 10.75L18.63 10.75L18.63 10.75Q18.58 10.15 17.42 9.39L17.42 9.39L16.88 9.06L16.88 9.06Q16.16 8.61 15.69 8.27L15.69 8.27L15.69 8.27Q15.22 7.92 14.88 7.44L14.88 7.44L14.88 7.44Q14.55 6.96 14.55 6.36L14.55 6.36L14.55 6.36Q14.55 5.98 14.69 5.60L14.69 5.60L14.69 5.60Q14.99 4.69 15.83 4.19L15.83 4.19L15.83 4.19Q16.67 3.70 17.64 3.70L17.64 3.70L17.64 3.70Q18.63 3.70 19.31 4.20L19.31 4.20L19.31 4.20Q19.99 4.70 19.99 5.63L19.99 5.63L19.99 5.63Q19.99 5.92 19.91 6.26L19.91 6.26L19.91 6.26Q19.85 6.51 19.49 6.69L19.49 6.69L19.49 6.69Q19.12 6.87 18.80 6.87L18.80 6.87L18.80 6.87Q18.61 6.87 18.50 6.79L18.50 6.79L18.50 6.79Q18.40 6.71 18.45 6.55L18.45 6.55L18.45 6.55Q18.54 6.26 18.54 5.96L18.54 5.96L18.54 5.96Q18.54 5.50 18.30 5.18L18.30 5.18L18.30 5.18Q18.06 4.86 17.60 4.73L17.60 4.73L17.60 4.73Q17.35 4.68 17.22 4.68L17.22 4.68L17.22 4.68Q16.72 4.68 16.37 5.03L16.37 5.03L16.37 5.03Q16.03 5.39 16.03 5.98L16.03 5.98ZM25.97 9.49L25.97 9.49Q26.07 9.39 26.28 9.34L26.28 9.34L26.28 9.34Q26.49 9.28 26.70 9.28L26.70 9.28L26.70 9.28Q27.22 9.28 27.22 9.55L27.22 9.55L27.22 9.55Q27.22 9.67 27.08 9.83L27.08 9.83L27.08 9.83Q26.91 10.02 26.77 10.20L26.77 10.20L26.77 10.20Q26.63 10.37 26.52 10.51L26.52 10.51L26.52 10.51Q25.90 11.31 25.41 11.78L25.41 11.78L25.41 11.78Q24.92 12.25 24.26 12.46L24.26 12.46L24.26 12.46Q23.95 12.56 23.60 12.56L23.60 12.56L23.60 12.56Q23.02 12.56 22.60 12.22L22.60 12.22L22.60 12.22Q22.19 11.89 22.12 11.24L22.12 11.24L22.12 11.24Q22.09 11.06 22.09 10.68L22.09 10.68L22.09 10.68Q22.09 9.95 22.26 9.20L22.26 9.20L22.26 9.20Q22.43 8.44 22.75 7.31L22.75 7.31L22.92 6.71L22.39 6.76L22.39 6.76Q21.99 6.79 21.32 6.87L21.32 6.87L21.32 6.87Q21 6.92 20.83 6.80L20.83 6.80L20.83 6.80Q20.66 6.69 20.66 6.51L20.66 6.51L20.66 6.51Q20.66 6.30 20.87 6.10L20.87 6.10L20.87 6.10Q21.07 5.89 21.39 5.87L21.39 5.87L23.20 5.66L23.20 5.66Q23.81 3.39 24.58 1.20L24.58 1.20L24.58 1.20Q24.65 1.01 24.97 0.86L24.97 0.86L24.97 0.86Q25.28 0.71 25.58 0.71L25.58 0.71L25.58 0.71Q25.76 0.71 25.88 0.78L25.88 0.78L25.88 0.78Q26.00 0.85 26.00 0.99L26.00 0.99L26.00 0.99Q26.00 1.04 25.97 1.15L25.97 1.15L25.97 1.15Q25.16 3.43 24.61 5.50L24.61 5.50L24.61 5.50Q25.59 5.40 25.91 5.40L25.91 5.40L25.91 5.40Q26.32 5.40 26.32 5.64L26.32 5.64L26.32 5.64Q26.32 5.84 26.08 6.07L26.08 6.07L26.08 6.07Q25.84 6.30 25.59 6.36L25.59 6.36L25.59 6.36Q24.75 6.50 24.33 6.55L24.33 6.55L24.33 6.55Q24.09 7.50 23.91 8.41L23.91 8.41L23.91 8.41Q23.88 8.53 23.72 9.23L23.72 9.23L23.72 9.23Q23.55 9.94 23.55 10.56L23.55 10.56L23.55 10.56Q23.55 11.35 23.97 11.42L23.97 11.42L23.97 11.42Q24.23 11.47 24.58 11.12L24.58 11.12L24.58 11.12Q24.92 10.78 25.47 10.09L25.47 10.09L25.47 10.09Q25.80 9.66 25.97 9.49L25.97 9.49ZM39.84 3.99L39.84 3.99Q39.77 5.46 39.77 6.62L39.77 6.62L39.77 6.62Q39.77 9.51 40.17 11.76L40.17 11.76L40.17 11.76Q40.22 12.08 39.91 12.31L39.91 12.31L39.91 12.31Q39.61 12.54 39.24 12.54L39.24 12.54L39.24 12.54Q39.03 12.54 38.89 12.45L38.89 12.45L38.89 12.45Q38.75 12.35 38.72 12.15L38.72 12.15L38.72 12.15Q38.36 9.44 38.30 7.08L38.30 7.08L38.30 7.08Q37.63 8.68 36.69 11.56L36.69 11.56L36.69 11.56Q36.68 11.62 36.61 11.72L36.61 11.72L36.61 11.72Q36.48 11.89 36.23 11.98L36.23 11.98L36.23 11.98Q35.98 12.08 35.73 12.08L35.73 12.08L35.73 12.08Q35.53 12.08 35.42 12.03L35.42 12.03L35.42 12.03Q35.24 11.93 35.24 11.76L35.24 11.76L35.24 11.76Q35.24 11.72 35.27 11.61L35.27 11.61L35.27 11.61Q35.28 11.45 35.28 11.16L35.28 11.16L35.28 11.16Q35.28 10.67 35.20 9.74L35.20 9.74L35.14 8.99L35.14 8.99Q35.08 7.62 35.04 6.93L35.04 6.93L35.04 6.93Q34.37 8.16 33.98 8.75L33.98 8.75L33.98 8.75Q33.64 10.53 32.86 12.19L32.86 12.19L32.86 12.19Q32.76 12.39 32.44 12.53L32.44 12.53L32.44 12.53Q32.12 12.67 31.81 12.67L31.81 12.67L31.81 12.67Q31.61 12.67 31.49 12.60L31.49 12.60L31.49 12.60Q31.37 12.53 31.37 12.40L31.37 12.40L31.37 12.40Q31.37 12.32 31.42 12.22L31.42 12.22L31.42 12.22Q32.06 10.82 32.40 9.35L32.40 9.35L32.40 9.35Q32.34 9.30 32.34 9.20L32.34 9.20L32.34 9.20Q32.34 9.06 32.45 8.90L32.45 8.90L32.51 8.81L32.51 8.81Q32.73 7.69 32.73 6.43L32.73 6.43L32.73 6.43Q32.73 5.89 32.69 5.38L32.69 5.38L32.69 5.38Q32.68 5.14 33.01 4.94L33.01 4.94L33.01 4.94Q33.35 4.75 33.70 4.75L33.70 4.75L33.70 4.75Q33.89 4.75 34.02 4.83L34.02 4.83L34.02 4.83Q34.15 4.91 34.16 5.07L34.16 5.07L34.16 5.07Q34.19 5.32 34.22 5.88L34.22 5.88L34.22 5.88Q34.54 5.29 34.90 4.77L34.90 4.77L34.90 4.77Q34.93 4.54 35.24 4.36L35.24 4.36L35.24 4.36Q35.55 4.19 35.88 4.19L35.88 4.19L35.88 4.19Q36.09 4.19 36.24 4.28L36.24 4.28L36.24 4.28Q36.39 4.37 36.40 4.56L36.40 4.56L36.40 4.56Q36.54 6.37 36.60 7.78L36.60 7.78L36.60 7.78Q37.53 5.49 38.46 3.99L38.46 3.99L38.46 3.99Q38.56 3.84 38.84 3.71L38.84 3.71L38.84 3.71Q39.12 3.58 39.38 3.58L39.38 3.58L39.38 3.58Q39.59 3.58 39.73 3.68L39.73 3.68L39.73 3.68Q39.86 3.78 39.84 3.99L39.84 3.99ZM45.88 7.71L45.88 7.71Q45.88 6.23 44.14 5.38L44.14 5.38L44.14 5.38Q43.71 5.74 43.27 6.34L43.27 6.34L43.27 6.34Q42.74 7.11 42.39 8.06L42.39 8.06L42.39 8.06Q42.25 8.44 42.13 9.09L42.13 9.09L42.13 9.09Q42 9.74 42 10.30L42 10.30L42 10.30Q42 10.88 42.16 11.22L42.16 11.22L42.16 11.22Q42.32 11.56 42.69 11.56L42.69 11.56L42.69 11.56Q42.98 11.56 43.37 11.33L43.37 11.33L43.37 11.33Q44.45 10.70 45.16 9.76L45.16 9.76L45.16 9.76Q45.88 8.82 45.88 7.71L45.88 7.71ZM46.27 5.18L46.27 5.18Q46.77 5.66 47.05 6.26L47.05 6.26L47.05 6.26Q47.32 6.86 47.32 7.53L47.32 7.53L47.32 7.53Q47.32 8.50 46.76 9.49L46.76 9.49L46.76 9.49Q46.38 10.16 45.65 10.91L45.65 10.91L45.65 10.91Q44.93 11.65 44.04 12.16L44.04 12.16L44.04 12.16Q43.15 12.67 42.34 12.67L42.34 12.67L42.34 12.67Q41.83 12.67 41.38 12.45L41.38 12.45L41.38 12.45Q40.43 11.93 40.43 10.58L40.43 10.58L40.43 10.58Q40.43 9.62 40.87 8.46L40.87 8.46L40.87 8.46Q41.30 7.31 41.79 6.51L41.79 6.51L41.79 6.51Q42.98 4.62 44.30 4.13L44.30 4.13L44.30 4.13Q44.66 3.99 45.08 3.99L45.08 3.99L45.08 3.99Q45.57 3.99 45.91 4.23L45.91 4.23L45.91 4.23Q46.24 4.48 46.30 5.00L46.30 5.00L46.30 5.05L46.30 5.05Q46.30 5.10 46.27 5.18L46.27 5.18ZM52.50 4.09L52.50 4.09Q52.60 3.95 52.90 3.84L52.90 3.84L52.90 3.84Q53.20 3.74 53.47 3.74L53.47 3.74L53.47 3.74Q53.66 3.74 53.78 3.79L53.78 3.79L53.78 3.79Q53.90 3.85 53.90 3.98L53.90 3.98L53.90 3.98Q53.90 4.07 53.83 4.19L53.83 4.19L53.83 4.19Q52.68 6.10 51.91 7.99L51.91 7.99L51.91 7.99Q51.13 9.87 50.71 11.89L50.71 11.89L50.71 11.89Q50.65 12.15 50.31 12.37L50.31 12.37L50.31 12.37Q49.97 12.59 49.63 12.59L49.63 12.59L49.63 12.59Q49.25 12.59 49.15 12.29L49.15 12.29L49.15 12.29Q48.62 10.72 48.41 9.09L48.41 9.09L48.41 9.09Q48.19 7.46 48.01 4.87L48.01 4.87L47.99 4.58L47.99 4.58Q47.98 4.27 48.36 4.03L48.36 4.03L48.36 4.03Q48.75 3.79 49.13 3.79L49.13 3.79L49.13 3.79Q49.49 3.79 49.50 4.05L49.50 4.05L49.50 4.05Q49.53 4.38 49.53 4.58L49.53 4.58L49.53 4.62L49.53 4.62Q49.69 7.29 49.98 8.96L49.98 8.96L49.98 8.96Q50.95 6.19 52.50 4.09L52.50 4.09ZM56.25 1.71L56.25 1.71Q56.10 1.67 55.94 1.67L55.94 1.67L55.94 1.67Q55.64 1.67 55.40 1.82L55.40 1.82L55.40 1.82Q55.09 1.99 55.05 2.16L55.05 2.16L55.05 2.16Q54.87 2.81 54.81 3.02L54.81 3.02L54.81 3.07L54.81 3.07Q54.81 3.14 54.87 3.20L54.87 3.20L54.87 3.20Q54.92 3.26 54.99 3.29L54.99 3.29L54.99 3.29Q55.10 3.35 55.24 3.35L55.24 3.35L55.24 3.35Q55.47 3.35 55.78 3.21L55.78 3.21L55.78 3.21Q56.10 3.08 56.20 2.84L56.20 2.84L56.20 2.84Q56.28 2.60 56.43 2.00L56.43 2.00L56.43 1.97L56.43 1.97Q56.43 1.90 56.38 1.83L56.38 1.83L56.38 1.83Q56.32 1.75 56.25 1.71L56.25 1.71ZM56.17 4.30L55.71 7.32L55.71 7.32Q55.62 7.88 55.39 9.35L55.39 9.35L55.39 9.35Q55.16 10.81 55.01 12.00L55.01 12.00L55.01 12.00Q54.96 12.26 54.63 12.45L54.63 12.45L54.63 12.45Q54.31 12.64 53.97 12.64L53.97 12.64L53.97 12.64Q53.75 12.64 53.63 12.55L53.63 12.55L53.63 12.55Q53.51 12.46 53.54 12.28L53.54 12.28L53.54 12.28Q53.77 10.88 54.05 9.08L54.05 9.08L54.05 9.08Q54.32 7.28 54.43 6.51L54.43 6.51L54.73 4.59L54.73 4.59Q54.77 4.34 55.11 4.16L55.11 4.16L55.11 4.16Q55.45 3.98 55.78 3.98L55.78 3.98L55.78 3.98Q55.97 3.98 56.08 4.06L56.08 4.06L56.08 4.06Q56.20 4.14 56.17 4.30L56.17 4.30ZM60.09 5.07L60.09 5.07Q59.37 5.61 58.93 6.83L58.93 6.83L58.93 6.83Q60.30 6.31 61.40 5.96L61.40 5.96L61.40 5.96Q60.94 5.32 60.47 5.10L60.47 5.10L60.47 5.10Q60.37 5.05 60.28 5.04L60.28 5.04L60.28 5.04Q60.19 5.03 60.17 5.03L60.17 5.03L60.17 5.03Q60.19 5.04 60.15 5.05L60.15 5.05L60.15 5.05Q60.12 5.07 60.09 5.07L60.09 5.07ZM60.14 4.07L60.14 4.07Q60.37 4.02 60.62 4.02L60.62 4.02L60.62 4.02Q61.96 4.02 63.06 5.82L63.06 5.82L63.06 5.82Q63.10 5.88 63.10 5.96L63.10 5.96L63.10 5.96Q63.10 6.12 62.90 6.29L62.90 6.29L62.90 6.29Q62.75 6.45 62.51 6.55L62.51 6.55L62.51 6.55Q61.11 7.17 58.62 8.02L58.62 8.02L58.62 8.02Q58.48 8.74 58.48 9.49L58.48 9.49L58.48 9.49Q58.48 9.84 58.49 10.00L58.49 10.00L58.49 10.00Q58.52 10.63 58.74 11.09L58.74 11.09L58.74 11.09Q58.81 11.24 58.95 11.38L58.95 11.38L58.95 11.38Q59.08 11.52 59.15 11.56L59.15 11.56L59.15 11.56Q59.19 11.59 59.29 11.59L59.29 11.59L59.29 11.59Q59.39 11.59 59.52 11.54L59.52 11.54L59.52 11.54Q59.65 11.48 59.82 11.38L59.82 11.38L59.82 11.38Q60.23 11.14 60.58 10.84L60.58 10.84L60.58 10.84Q60.93 10.53 61.42 10.04L61.42 10.04L61.42 10.04Q61.61 9.84 62.08 9.84L62.08 9.84L62.08 9.84Q62.33 9.84 62.50 9.92L62.50 9.92L62.50 9.92Q62.68 10.00 62.68 10.14L62.68 10.14L62.68 10.14Q62.68 10.26 62.54 10.42L62.54 10.42L62.54 10.42Q61.67 11.35 60.76 12.01L60.76 12.01L60.76 12.01Q59.85 12.67 58.94 12.67L58.94 12.67L58.94 12.67Q58.51 12.67 58.13 12.49L58.13 12.49L58.13 12.49Q57.50 12.19 57.22 11.55L57.22 11.55L57.22 11.55Q56.94 10.91 56.94 10.04L56.94 10.04L56.94 10.04Q56.94 9.39 57.11 8.53L57.11 8.53L56.99 8.55L56.88 8.60L56.88 8.60Q56.67 8.67 56.55 8.67L56.55 8.67L56.55 8.67Q56.35 8.67 56.24 8.57L56.24 8.57L56.24 8.57Q56.13 8.47 56.13 8.32L56.13 8.32L56.13 8.32Q56.13 8.13 56.27 7.96L56.27 7.96L56.27 7.96Q56.42 7.78 56.71 7.67L56.71 7.67L57.40 7.41L57.40 7.41Q57.53 7.01 57.78 6.38L57.78 6.38L57.78 6.38Q58.17 5.52 58.76 4.89L58.76 4.89L58.76 4.89Q59.35 4.26 60.14 4.07L60.14 4.07ZM65.38 5.98L65.38 5.98Q65.38 6.51 65.65 6.92L65.65 6.92L65.65 6.92Q65.93 7.32 66.32 7.60L66.32 7.60L66.32 7.60Q66.71 7.88 67.38 8.26L67.38 8.26L67.38 8.26Q68.29 8.78 68.78 9.20L68.78 9.20L68.78 9.20Q69.26 9.62 69.41 10.25L69.41 10.25L69.41 10.25Q69.47 10.53 69.47 10.65L69.47 10.65L69.47 10.65Q69.47 11.63 68.43 12.06L68.43 12.06L68.43 12.06Q67.40 12.49 66.08 12.49L66.08 12.49L66.08 12.49Q65.56 12.49 65.17 12.42L65.17 12.42L65.17 12.42Q64.71 12.33 64.21 12.09L64.21 12.09L64.21 12.09Q63.71 11.84 63.38 11.49L63.38 11.49L63.38 11.49Q63.06 11.13 63.06 10.75L63.06 10.75L63.06 10.75Q63.06 10.16 63.97 9.67L63.97 9.67L63.97 9.67Q64.22 9.55 64.46 9.55L64.46 9.55L64.46 9.55Q64.68 9.55 64.83 9.65L64.83 9.65L64.83 9.65Q64.97 9.74 64.97 9.88L64.97 9.88L64.97 9.88Q64.97 10.14 64.57 10.37L64.57 10.37L64.57 10.37Q64.48 10.42 64.48 10.50L64.48 10.50L64.48 10.50Q64.48 10.67 64.75 10.91L64.75 10.91L64.75 10.91Q65.02 11.14 65.17 11.23L65.17 11.23L65.17 11.23Q65.59 11.47 66.51 11.52L66.51 11.52L66.51 11.52Q66.63 11.54 66.91 11.54L66.91 11.54L66.91 11.54Q67.41 11.54 67.72 11.37L67.72 11.37L67.72 11.37Q68.03 11.20 67.98 10.75L67.98 10.75L67.98 10.75Q67.93 10.15 66.77 9.39L66.77 9.39L66.23 9.06L66.23 9.06Q65.51 8.61 65.04 8.27L65.04 8.27L65.04 8.27Q64.57 7.92 64.23 7.44L64.23 7.44L64.23 7.44Q63.90 6.96 63.90 6.36L63.90 6.36L63.90 6.36Q63.90 5.98 64.04 5.60L64.04 5.60L64.04 5.60Q64.34 4.69 65.18 4.19L65.18 4.19L65.18 4.19Q66.02 3.70 66.99 3.70L66.99 3.70L66.99 3.70Q67.98 3.70 68.66 4.20L68.66 4.20L68.66 4.20Q69.34 4.70 69.34 5.63L69.34 5.63L69.34 5.63Q69.34 5.92 69.26 6.26L69.26 6.26L69.26 6.26Q69.20 6.51 68.84 6.69L68.84 6.69L68.84 6.69Q68.47 6.87 68.15 6.87L68.15 6.87L68.15 6.87Q67.96 6.87 67.85 6.79L67.85 6.79L67.85 6.79Q67.75 6.71 67.80 6.55L67.80 6.55L67.80 6.55Q67.89 6.26 67.89 5.96L67.89 5.96L67.89 5.96Q67.89 5.50 67.65 5.18L67.65 5.18L67.65 5.18Q67.41 4.86 66.95 4.73L66.95 4.73L66.95 4.73Q66.70 4.68 66.57 4.68L66.57 4.68L66.57 4.68Q66.07 4.68 65.72 5.03L65.72 5.03L65.72 5.03Q65.38 5.39 65.38 5.98L65.38 5.98ZM77.76 3.88L77.76 3.88Q78.16 3.71 78.50 3.71L78.50 3.71L78.50 3.71Q78.86 3.71 79.09 3.90L79.09 3.90L79.09 3.90Q79.31 4.09 79.31 4.51L79.31 4.51L79.31 4.51Q79.31 4.91 79.18 5.39L79.18 5.39L79.18 5.39Q79.06 5.87 78.83 6.51L78.83 6.51L78.64 7.10L78.64 7.10Q78.55 7.36 78.20 7.55L78.20 7.55L78.20 7.55Q77.85 7.73 77.53 7.73L77.53 7.73L77.53 7.73Q77.32 7.73 77.22 7.64L77.22 7.64L77.22 7.64Q77.11 7.55 77.17 7.36L77.17 7.36L77.17 7.36Q77.42 6.58 77.67 5.63L77.67 5.63L77.67 5.63Q77.73 5.19 77.76 5.05L77.76 5.05L77.70 5.11L77.70 5.11Q76.62 6.03 75.73 7.43L75.73 7.43L75.73 7.43Q75.32 9.66 75.22 11.90L75.22 11.90L75.22 11.90Q75.21 12.17 74.87 12.37L74.87 12.37L74.87 12.37Q74.52 12.57 74.16 12.57L74.16 12.57L74.16 12.57Q73.95 12.57 73.81 12.47L73.81 12.47L73.81 12.47Q73.67 12.38 73.68 12.18L73.68 12.18L73.68 12.18Q73.79 10.16 74.12 8.26L74.12 8.26L74.12 8.26Q73.98 8.16 73.98 8.04L73.98 8.04L73.98 8.04Q73.98 7.95 74.03 7.85L74.03 7.85L74.24 7.50L74.24 7.50Q74.55 5.89 75.00 4.27L75.00 4.27L75.00 4.27Q75.07 4.02 75.44 3.83L75.44 3.83L75.44 3.83Q75.81 3.64 76.15 3.64L76.15 3.64L76.15 3.64Q76.36 3.64 76.47 3.72L76.47 3.72L76.47 3.72Q76.58 3.81 76.52 3.98L76.52 3.98L76.52 3.98Q76.30 4.76 76.24 5.01L76.24 5.01L76.24 5.01Q77.08 4.17 77.76 3.88L77.76 3.88ZM81.54 1.71L81.54 1.71Q81.38 1.67 81.23 1.67L81.23 1.67L81.23 1.67Q80.92 1.67 80.68 1.82L80.68 1.82L80.68 1.82Q80.37 1.99 80.33 2.16L80.33 2.16L80.33 2.16Q80.15 2.81 80.09 3.02L80.09 3.02L80.09 3.07L80.09 3.07Q80.09 3.14 80.15 3.20L80.15 3.20L80.15 3.20Q80.21 3.26 80.28 3.29L80.28 3.29L80.28 3.29Q80.39 3.35 80.53 3.35L80.53 3.35L80.53 3.35Q80.75 3.35 81.07 3.21L81.07 3.21L81.07 3.21Q81.38 3.08 81.48 2.84L81.48 2.84L81.48 2.84Q81.56 2.60 81.72 2.00L81.72 2.00L81.72 1.97L81.72 1.97Q81.72 1.90 81.66 1.83L81.66 1.83L81.66 1.83Q81.61 1.75 81.54 1.71L81.54 1.71ZM81.45 4.30L80.99 7.32L80.99 7.32Q80.91 7.88 80.67 9.35L80.67 9.35L80.67 9.35Q80.44 10.81 80.29 12.00L80.29 12.00L80.29 12.00Q80.25 12.26 79.92 12.45L79.92 12.45L79.92 12.45Q79.59 12.64 79.25 12.64L79.25 12.64L79.25 12.64Q79.03 12.64 78.91 12.55L78.91 12.55L78.91 12.55Q78.79 12.46 78.82 12.28L78.82 12.28L78.82 12.28Q79.06 10.88 79.33 9.08L79.33 9.08L79.33 9.08Q79.60 7.28 79.72 6.51L79.72 6.51L80.01 4.59L80.01 4.59Q80.05 4.34 80.39 4.16L80.39 4.16L80.39 4.16Q80.74 3.98 81.06 3.98L81.06 3.98L81.06 3.98Q81.26 3.98 81.37 4.06L81.37 4.06L81.37 4.06Q81.48 4.14 81.45 4.30L81.45 4.30ZM84.07 11.13L84.07 11.13Q84.64 10.36 85.06 9.51L85.06 9.51L85.06 9.51Q85.43 8.81 85.83 7.77L85.83 7.77L85.83 7.77Q86.24 6.73 86.24 6.06L86.24 6.06L86.24 6.06Q86.24 5.84 86.18 5.71L86.18 5.71L86.18 5.71Q85.76 5.74 85.68 5.46L85.68 5.46L85.68 5.46Q85.58 5.11 85.47 5.11L85.47 5.11L85.47 5.11Q85.39 5.11 85.30 5.21L85.30 5.21L85.30 5.21Q85.22 5.32 85.06 5.59L85.06 5.59L85.06 5.59Q84.87 5.88 84.64 6.40L84.64 6.40L84.64 6.40Q84.18 7.38 83.89 8.32L83.89 8.32L83.89 8.32Q83.55 9.28 83.36 10.07L83.36 10.07L83.36 10.07Q83.16 10.85 83.16 11.56L83.16 11.56L83.16 11.56Q83.16 11.87 83.20 12.17L83.20 12.17L83.50 11.86L83.50 11.86Q83.76 11.55 84.07 11.13L84.07 11.13ZM87.02 4.52L87.02 4.52Q87.44 4.69 87.63 5.00L87.63 5.00L87.63 5.00Q87.81 5.31 87.81 5.78L87.81 5.78L87.81 5.78Q87.81 6.23 87.58 7.32L87.58 7.32L87.58 7.32Q86.97 10.21 86.58 12.59L86.58 12.59L86.58 12.59Q86.20 14.97 86.03 17.29L86.03 17.29L86.03 17.29Q86.02 17.49 85.98 17.63L85.98 17.63L85.98 17.63Q85.95 17.78 85.85 17.99L85.85 17.99L85.85 17.99Q85.69 18.30 85.36 18.54L85.36 18.54L85.36 18.54Q85.04 18.79 84.74 18.79L84.74 18.79L84.74 18.79Q84.48 18.79 84.34 18.55L84.34 18.55L83.93 17.85L83.93 17.85Q83.05 16.31 82.43 15.33L82.43 15.33L82.43 15.33Q82.39 15.27 82.39 15.19L82.39 15.19L82.39 15.19Q82.39 14.95 82.74 14.74L82.74 14.74L82.74 14.74Q83.09 14.53 83.45 14.53L83.45 14.53L83.45 14.53Q83.82 14.53 83.96 14.77L83.96 14.77L83.96 14.77Q84.15 15.13 84.41 15.55L84.41 15.55L84.69 16.04L84.69 16.04Q84.99 13.57 85.37 11.37L85.37 11.37L85.37 11.37Q84.73 12.26 84.02 12.91L84.02 12.91L84.02 12.91Q83.31 13.55 82.71 13.55L82.71 13.55L82.71 13.55Q82.25 13.55 81.91 13.13L81.91 13.13L81.91 13.13Q81.63 12.78 81.63 12.12L81.63 12.12L81.63 12.12Q81.63 11.76 81.70 11.41L81.70 11.41L81.70 11.41Q81.76 11.06 81.90 10.46L81.90 10.46L81.98 10.12L81.98 10.12Q82.40 8.22 83.23 6.41L83.23 6.41L83.23 6.41Q83.62 5.59 84.02 5.04L84.02 5.04L84.02 5.04Q84.42 4.49 85.04 4.21L85.04 4.21L85.04 4.21Q85.41 4.03 85.88 4.03L85.88 4.03L85.88 4.03Q86.56 4.03 86.93 4.49L86.93 4.49L87.02 4.52ZM93.76 3.99L93.76 3.99Q93.98 4.06 93.97 4.28L93.97 4.28L93.97 4.28Q93.58 8.04 92.82 12.11L92.82 12.11L92.82 12.11Q92.76 12.38 92.43 12.56L92.43 12.56L92.43 12.56Q92.09 12.74 91.76 12.74L91.76 12.74L91.76 12.74Q91.55 12.74 91.42 12.65L91.42 12.65L91.42 12.65Q91.29 12.56 91.34 12.39L91.34 12.39L91.34 12.39Q91.67 10.93 91.90 9.41L91.90 9.41L91.90 9.41Q92.12 7.88 92.33 5.91L92.33 5.91L92.33 5.91Q91.18 6.97 90.03 8.23L90.03 8.23L89.26 12.49L89.26 12.49Q89.21 12.75 88.86 12.95L88.86 12.95L88.86 12.95Q88.51 13.15 88.16 13.15L88.16 13.15L88.16 13.15Q87.95 13.15 87.84 13.05L87.84 13.05L87.84 13.05Q87.72 12.96 87.75 12.78L87.75 12.78L88.44 8.93L88.44 8.93Q88.27 8.89 88.27 8.74L88.27 8.74L88.27 8.74Q88.27 8.62 88.40 8.46L88.40 8.46L88.56 8.23L89.82 1.39L89.82 1.39Q89.87 1.13 90.22 0.95L90.22 0.95L90.22 0.95Q90.57 0.77 90.90 0.77L90.90 0.77L90.90 0.77Q91.10 0.77 91.21 0.85L91.21 0.85L91.21 0.85Q91.32 0.94 91.29 1.09L91.29 1.09L90.40 6.16L90.40 6.16Q91.43 5.12 92.71 4.19L92.71 4.19L92.71 4.19Q93.11 3.91 93.46 3.91L93.46 3.91L93.46 3.91Q93.63 3.91 93.76 3.99L93.76 3.99L93.76 3.99ZM100.21 9.49L100.21 9.49Q100.31 9.39 100.52 9.34L100.52 9.34L100.52 9.34Q100.73 9.28 100.94 9.28L100.94 9.28L100.94 9.28Q101.46 9.28 101.46 9.55L101.46 9.55L101.46 9.55Q101.46 9.67 101.32 9.83L101.32 9.83L101.32 9.83Q101.15 10.02 101.01 10.20L101.01 10.20L101.01 10.20Q100.87 10.37 100.76 10.51L100.76 10.51L100.76 10.51Q100.14 11.31 99.65 11.78L99.65 11.78L99.65 11.78Q99.16 12.25 98.50 12.46L98.50 12.46L98.50 12.46Q98.20 12.56 97.85 12.56L97.85 12.56L97.85 12.56Q97.26 12.56 96.84 12.22L96.84 12.22L96.84 12.22Q96.43 11.89 96.36 11.24L96.36 11.24L96.36 11.24Q96.33 11.06 96.33 10.68L96.33 10.68L96.33 10.68Q96.33 9.95 96.50 9.20L96.50 9.20L96.50 9.20Q96.67 8.44 96.99 7.31L96.99 7.31L97.16 6.71L96.63 6.76L96.63 6.76Q96.24 6.79 95.56 6.87L95.56 6.87L95.56 6.87Q95.24 6.92 95.07 6.80L95.07 6.80L95.07 6.80Q94.91 6.69 94.91 6.51L94.91 6.51L94.91 6.51Q94.91 6.30 95.11 6.10L95.11 6.10L95.11 6.10Q95.31 5.89 95.63 5.87L95.63 5.87L97.44 5.66L97.44 5.66Q98.06 3.39 98.83 1.20L98.83 1.20L98.83 1.20Q98.90 1.01 99.21 0.86L99.21 0.86L99.21 0.86Q99.53 0.71 99.82 0.71L99.82 0.71L99.82 0.71Q100.00 0.71 100.12 0.78L100.12 0.78L100.12 0.78Q100.24 0.85 100.24 0.99L100.24 0.99L100.24 0.99Q100.24 1.04 100.21 1.15L100.21 1.15L100.21 1.15Q99.40 3.43 98.85 5.50L98.85 5.50L98.85 5.50Q99.83 5.40 100.16 5.40L100.16 5.40L100.16 5.40Q100.56 5.40 100.56 5.64L100.56 5.64L100.56 5.64Q100.56 5.84 100.32 6.07L100.32 6.07L100.32 6.07Q100.09 6.30 99.83 6.36L99.83 6.36L99.83 6.36Q98.99 6.50 98.57 6.55L98.57 6.55L98.57 6.55Q98.34 7.50 98.15 8.41L98.15 8.41L98.15 8.41Q98.13 8.53 97.96 9.23L97.96 9.23L97.96 9.23Q97.79 9.94 97.79 10.56L97.79 10.56L97.79 10.56Q97.79 11.35 98.21 11.42L98.21 11.42L98.21 11.42Q98.48 11.47 98.82 11.12L98.82 11.12L98.82 11.12Q99.16 10.78 99.71 10.09L99.71 10.09L99.71 10.09Q100.04 9.66 100.21 9.49L100.21 9.49ZM111.73 4.77L111.73 4.77Q111.83 4.61 112.22 4.42L112.22 4.42L112.22 4.42Q112.60 4.23 112.90 4.23L112.90 4.23L112.90 4.23Q113.32 4.23 113.26 4.62L113.26 4.62L113.26 4.62Q113.26 4.66 113.25 4.75L113.25 4.75L113.25 4.75Q113.23 4.83 113.22 4.87L113.22 4.87L113.22 4.90L113.22 4.90Q113.08 5.84 112.90 7.15L112.90 7.15L112.90 7.15Q112.73 8.46 112.63 9.20L112.63 9.20L112.27 11.89L112.27 11.89Q112.22 12.17 111.87 12.36L111.87 12.36L111.87 12.36Q111.51 12.56 111.15 12.56L111.15 12.56L111.15 12.56Q110.92 12.56 110.79 12.46L110.79 12.46L110.79 12.46Q110.66 12.36 110.68 12.18L110.68 12.18L110.68 12.18Q110.84 10.98 111.17 8.57L111.17 8.57L111.03 8.81L111.03 8.81Q110.67 9.42 110.49 9.70L110.49 9.70L110.49 9.70Q109.86 10.68 109.15 11.35L109.15 11.35L109.15 11.35Q108.44 12.03 107.53 12.25L107.53 12.25L107.53 12.25Q107.18 12.33 106.90 12.33L106.90 12.33L106.90 12.33Q105.59 12.33 105.59 10.54L105.59 10.54L105.59 10.54Q105.59 9.70 105.85 8.63L105.85 8.63L105.85 8.63Q106.12 7.56 106.46 6.62L106.46 6.62L106.46 6.62Q106.81 5.68 107.06 5.19L107.06 5.19L107.06 5.19Q107.16 5.00 107.50 4.85L107.50 4.85L107.50 4.85Q107.84 4.70 108.16 4.70L108.16 4.70L108.16 4.70Q108.36 4.70 108.48 4.77L108.48 4.77L108.48 4.77Q108.60 4.84 108.60 4.97L108.60 4.97L108.60 4.97Q108.60 5.03 108.56 5.14L108.56 5.14L108.56 5.14Q107.62 7.20 107.34 8.88L107.34 8.88L107.27 9.25L107.27 9.25Q107.16 9.84 107.16 10.15L107.16 10.15L107.16 10.15Q107.16 10.30 107.17 10.37L107.17 10.37L107.17 10.37Q107.34 11.09 107.72 11.05L107.72 11.05L107.72 11.05Q107.87 11.03 108.09 10.78L108.09 10.78L108.09 10.78Q108.30 10.53 108.36 10.47L108.36 10.47L108.36 10.47Q109.05 9.67 109.61 8.73L109.61 8.73L109.61 8.73Q110.17 7.78 110.91 6.36L110.91 6.36L110.91 6.36Q111.29 5.59 111.73 4.77L111.73 4.77ZM118.90 4.06L118.90 4.06Q119.46 4.37 119.46 5.36L119.46 5.36L119.46 5.36Q119.46 5.73 119.39 6.17L119.39 6.17L119.39 6.17Q119.32 6.61 119.24 7L119.24 7L119.14 7.56L118.55 11.91L118.55 11.91Q118.83 11.98 118.79 12.26L118.79 12.26L118.79 12.26Q118.64 13.03 117.70 13.24L117.70 13.24L117.56 13.26L117.56 13.26Q117.32 13.26 117.14 13.16L117.14 13.16L117.14 13.16Q116.96 13.06 116.98 12.85L116.98 12.85L116.98 12.85Q117.57 8.60 117.85 6.47L117.85 6.47L117.85 6.47Q117.87 6.41 117.91 6.15L117.91 6.15L117.91 6.15Q117.96 5.88 117.96 5.64L117.96 5.64L117.96 5.64Q117.96 5.19 117.73 5.18L117.73 5.18L117.73 5.18Q117.54 5.15 117.13 5.68L117.13 5.68L117.13 5.68Q116.72 6.20 116.68 6.26L116.68 6.26L116.68 6.26Q115.84 7.21 115.11 8.39L115.11 8.39L115.11 8.39Q114.77 10.43 114.58 11.69L114.58 11.69L114.51 12.14L114.51 12.14Q114.46 12.40 114.11 12.60L114.11 12.60L114.11 12.60Q113.76 12.80 113.43 12.80L113.43 12.80L113.43 12.80Q113.22 12.80 113.10 12.71L113.10 12.71L113.10 12.71Q112.98 12.61 113.01 12.43L113.01 12.43L113.01 12.43Q113.37 10.29 113.58 8.93L113.58 8.93L113.58 8.93Q113.50 8.85 113.50 8.74L113.50 8.74L113.50 8.74Q113.50 8.67 113.54 8.58L113.54 8.58L113.54 8.58Q113.58 8.51 113.62 8.46L113.62 8.46L113.62 8.46Q113.65 8.40 113.68 8.36L113.68 8.36L114.24 4.97L114.24 4.97Q114.28 4.72 114.62 4.54L114.62 4.54L114.62 4.54Q114.95 4.35 115.29 4.35L115.29 4.35L115.29 4.35Q115.50 4.35 115.61 4.44L115.61 4.44L115.61 4.44Q115.72 4.52 115.70 4.69L115.70 4.69L115.70 4.69Q115.63 5.15 115.50 5.88L115.50 5.88L116.09 5.25L116.09 5.25Q116.68 4.66 117.21 4.28L117.21 4.28L117.21 4.28Q117.74 3.91 118.29 3.91L118.29 3.91L118.29 3.91Q118.64 3.91 118.90 4.06L118.90 4.06ZM121.52 11.40L121.52 11.40Q121.79 11.61 122.21 11.61L122.21 11.61L122.21 11.61Q122.70 11.61 123.45 11.28L123.45 11.28L123.45 11.28Q123.90 8.69 124.15 6.19L124.15 6.19L124.12 6.19L124.12 6.19Q123.37 6.19 122.74 6.71L122.74 6.71L122.74 6.71Q122.11 7.22 121.69 7.99L121.69 7.99L121.69 7.99Q121.28 8.76 121.13 9.52L121.13 9.52L121.13 9.52Q121.06 9.87 121.06 10.21L121.06 10.21L121.06 10.21Q121.06 11.03 121.52 11.40L121.52 11.40ZM124.49 1.75L124.49 1.75Q124.50 1.50 124.84 1.31L124.84 1.31L124.84 1.31Q125.17 1.12 125.52 1.12L125.52 1.12L125.52 1.12Q125.96 1.12 125.94 1.44L125.94 1.44L125.94 1.44Q125.71 6.06 124.94 10.98L124.94 10.98L124.94 10.98Q125.16 11.09 125.16 11.27L125.16 11.27L125.16 11.27Q125.16 11.48 124.82 11.68L124.82 11.68L124.74 12.19L124.74 12.19Q124.68 12.46 124.34 12.65L124.34 12.65L124.34 12.65Q124.00 12.84 123.66 12.84L123.66 12.84L123.66 12.84Q123.45 12.84 123.33 12.75L123.33 12.75L123.33 12.75Q123.20 12.66 123.24 12.47L123.24 12.47L123.24 12.47Q123.24 12.40 123.26 12.38L123.26 12.38L123.26 12.38Q122.36 12.66 121.77 12.66L121.77 12.66L121.77 12.66Q121.13 12.66 120.61 12.38L120.61 12.38L120.61 12.38Q120.09 12.11 119.85 11.61L119.85 11.61L119.85 11.61Q119.62 11.10 119.62 10.47L119.62 10.47L119.62 10.47Q119.62 10.25 119.67 9.86L119.67 9.86L119.67 9.86Q119.87 8.72 120.51 7.67L120.51 7.67L120.51 7.67Q121.16 6.62 122.14 5.95L122.14 5.95L122.14 5.95Q123.12 5.28 124.25 5.24L124.25 5.24L124.25 5.24Q124.42 3.32 124.49 1.75L124.49 1.75ZM129.85 5.07L129.85 5.07Q129.14 5.61 128.69 6.83L128.69 6.83L128.69 6.83Q130.06 6.31 131.17 5.96L131.17 5.96L131.17 5.96Q130.70 5.32 130.23 5.10L130.23 5.10L130.23 5.10Q130.13 5.05 130.04 5.04L130.04 5.04L130.04 5.04Q129.95 5.03 129.93 5.03L129.93 5.03L129.93 5.03Q129.95 5.04 129.91 5.05L129.91 5.05L129.91 5.05Q129.88 5.07 129.85 5.07L129.85 5.07ZM129.91 4.07L129.91 4.07Q130.13 4.02 130.38 4.02L130.38 4.02L130.38 4.02Q131.73 4.02 132.82 5.82L132.82 5.82L132.82 5.82Q132.86 5.88 132.86 5.96L132.86 5.96L132.86 5.96Q132.86 6.12 132.66 6.29L132.66 6.29L132.66 6.29Q132.51 6.45 132.27 6.55L132.27 6.55L132.27 6.55Q130.87 7.17 128.38 8.02L128.38 8.02L128.38 8.02Q128.24 8.74 128.24 9.49L128.24 9.49L128.24 9.49Q128.24 9.84 128.25 10.00L128.25 10.00L128.25 10.00Q128.28 10.63 128.51 11.09L128.51 11.09L128.51 11.09Q128.58 11.24 128.71 11.38L128.71 11.38L128.71 11.38Q128.84 11.52 128.91 11.56L128.91 11.56L128.91 11.56Q128.95 11.59 129.05 11.59L129.05 11.59L129.05 11.59Q129.15 11.59 129.28 11.54L129.28 11.54L129.28 11.54Q129.42 11.48 129.58 11.38L129.58 11.38L129.58 11.38Q129.99 11.14 130.34 10.84L130.34 10.84L130.34 10.84Q130.69 10.53 131.18 10.04L131.18 10.04L131.18 10.04Q131.38 9.84 131.84 9.84L131.84 9.84L131.84 9.84Q132.09 9.84 132.26 9.92L132.26 9.92L132.26 9.92Q132.44 10.00 132.44 10.14L132.44 10.14L132.44 10.14Q132.44 10.26 132.30 10.42L132.30 10.42L132.30 10.42Q131.43 11.35 130.52 12.01L130.52 12.01L130.52 12.01Q129.61 12.67 128.70 12.67L128.70 12.67L128.70 12.67Q128.27 12.67 127.89 12.49L127.89 12.49L127.89 12.49Q127.26 12.19 126.98 11.55L126.98 11.55L126.98 11.55Q126.70 10.91 126.70 10.04L126.70 10.04L126.70 10.04Q126.70 9.39 126.87 8.53L126.87 8.53L126.76 8.55L126.64 8.60L126.64 8.60Q126.43 8.67 126.31 8.67L126.31 8.67L126.31 8.67Q126.11 8.67 126.00 8.57L126.00 8.57L126.00 8.57Q125.89 8.47 125.89 8.32L125.89 8.32L125.89 8.32Q125.89 8.13 126.03 7.96L126.03 7.96L126.03 7.96Q126.18 7.78 126.48 7.67L126.48 7.67L127.16 7.41L127.16 7.41Q127.29 7.01 127.54 6.38L127.54 6.38L127.54 6.38Q127.93 5.52 128.52 4.89L128.52 4.89L128.52 4.89Q129.11 4.26 129.91 4.07L129.91 4.07ZM136.89 3.88L136.89 3.88Q137.30 3.71 137.63 3.71L137.63 3.71L137.63 3.71Q138.00 3.71 138.22 3.90L138.22 3.90L138.22 3.90Q138.45 4.09 138.45 4.51L138.45 4.51L138.45 4.51Q138.45 4.91 138.32 5.39L138.32 5.39L138.32 5.39Q138.19 5.87 137.97 6.51L137.97 6.51L137.77 7.10L137.77 7.10Q137.69 7.36 137.34 7.55L137.34 7.55L137.34 7.55Q136.99 7.73 136.67 7.73L136.67 7.73L136.67 7.73Q136.46 7.73 136.35 7.64L136.35 7.64L136.35 7.64Q136.25 7.55 136.30 7.36L136.30 7.36L136.30 7.36Q136.56 6.58 136.81 5.63L136.81 5.63L136.81 5.63Q136.86 5.19 136.89 5.05L136.89 5.05L136.84 5.11L136.84 5.11Q135.76 6.03 134.86 7.43L134.86 7.43L134.86 7.43Q134.46 9.66 134.36 11.90L134.36 11.90L134.36 11.90Q134.34 12.17 134.00 12.37L134.00 12.37L134.00 12.37Q133.66 12.57 133.29 12.57L133.29 12.57L133.29 12.57Q133.08 12.57 132.94 12.47L132.94 12.47L132.94 12.47Q132.80 12.38 132.82 12.18L132.82 12.18L132.82 12.18Q132.93 10.16 133.25 8.26L133.25 8.26L133.25 8.26Q133.11 8.16 133.11 8.04L133.11 8.04L133.11 8.04Q133.11 7.95 133.17 7.85L133.17 7.85L133.38 7.50L133.38 7.50Q133.69 5.89 134.13 4.27L134.13 4.27L134.13 4.27Q134.20 4.02 134.57 3.83L134.57 3.83L134.57 3.83Q134.95 3.64 135.28 3.64L135.28 3.64L135.28 3.64Q135.49 3.64 135.60 3.72L135.60 3.72L135.60 3.72Q135.72 3.81 135.66 3.98L135.66 3.98L135.66 3.98Q135.44 4.76 135.38 5.01L135.38 5.01L135.38 5.01Q136.22 4.17 136.89 3.88L136.89 3.88ZM144.27 18.21L144.27 18.21Q144.21 18.24 144.23 18.28L144.23 18.28L144.23 18.28Q144.23 18.26 144.27 18.21L144.27 18.21ZM147.73 4.34L147.73 4.34Q147.73 4.07 148.05 3.88L148.05 3.88L148.05 3.88Q148.37 3.68 148.72 3.68L148.72 3.68L148.72 3.68Q148.93 3.68 149.06 3.77L149.06 3.77L149.06 3.77Q149.20 3.86 149.20 4.06L149.20 4.06L149.20 4.06Q149.21 4.77 149.11 5.45L149.11 5.45L149.11 5.45Q149.00 6.13 148.76 7.34L148.76 7.34L148.76 7.34Q148.65 7.84 148.61 8.08L148.61 8.08L148.61 8.08Q148.12 10.71 147.41 13.48L147.41 13.48L147.41 13.48Q147.03 14.98 146.73 15.94L146.73 15.94L146.73 15.94Q146.43 16.90 145.98 17.78L145.98 17.78L145.98 17.78Q145.70 18.33 145.25 18.75L145.25 18.75L145.25 18.75Q144.80 19.18 144.31 19.18L144.31 19.18L144.31 19.18Q143.98 19.18 143.65 18.94L143.65 18.94L143.65 18.94Q142.86 18.33 142.86 16.27L142.86 16.27L142.86 16.27Q142.86 15.71 142.93 14.66L142.93 14.66L142.93 14.66Q142.94 14.39 143.28 14.20L143.28 14.20L143.28 14.20Q143.61 14 143.96 14L143.96 14L143.96 14Q144.44 14 144.42 14.36L144.42 14.36L144.42 14.36Q144.40 15.01 144.40 15.34L144.40 15.34L144.40 15.34Q144.40 16.11 144.48 16.84L144.48 16.84L144.48 16.84Q144.49 16.93 144.53 17.12L144.53 17.12L144.53 17.12Q144.56 17.32 144.62 17.47L144.62 17.47L144.62 17.47Q144.68 17.32 144.77 17.15L144.77 17.15L144.77 17.15Q145.07 16.51 145.15 16.24L145.15 16.24L145.15 16.24Q145.45 15.39 145.88 13.76L145.88 13.76L145.88 13.76Q146.27 12.26 146.54 11.07L146.54 11.07L146.54 11.07Q145.77 12.01 144.87 12.24L144.87 12.24L144.87 12.24Q144.44 12.33 144.20 12.33L144.20 12.33L144.20 12.33Q142.63 12.33 142.63 9.97L142.63 9.97L142.63 9.97Q142.63 8.18 143.56 5.10L143.56 5.10L143.56 5.10Q143.63 4.84 143.95 4.64L143.95 4.64L143.95 4.64Q144.27 4.44 144.56 4.44L144.56 4.44L144.56 4.44Q144.96 4.44 145.03 4.80L145.03 4.80L145.03 4.80Q145.05 4.96 144.93 5.28L144.93 5.28L144.93 5.28Q144.80 5.60 144.77 5.70L144.77 5.70L144.77 5.70Q144.55 6.54 144.47 6.96L144.47 6.96L144.40 7.25L144.40 7.25Q144.23 7.97 144.12 8.55L144.12 8.55L144.12 8.55Q144.00 9.14 144.00 9.69L144.00 9.69L144.00 9.69Q144.00 10.68 144.44 11.07L144.44 11.07L144.44 11.07Q144.55 11.19 144.70 11.19L144.70 11.19L144.70 11.19Q145.15 11.19 145.61 10.38L145.61 10.38L145.61 10.38Q146.08 9.58 146.55 8.51L146.55 8.51L146.55 8.51Q147.03 7.42 147.30 6.66L147.30 6.66L147.30 6.66Q147.57 5.89 147.67 5.12L147.67 5.12L147.67 5.12Q147.70 4.84 147.73 4.34L147.73 4.34ZM155.22 7.71L155.22 7.71Q155.22 6.23 153.48 5.38L153.48 5.38L153.48 5.38Q153.05 5.74 152.61 6.34L152.61 6.34L152.61 6.34Q152.08 7.11 151.73 8.06L151.73 8.06L151.73 8.06Q151.59 8.44 151.47 9.09L151.47 9.09L151.47 9.09Q151.34 9.74 151.34 10.30L151.34 10.30L151.34 10.30Q151.34 10.88 151.50 11.22L151.50 11.22L151.50 11.22Q151.66 11.56 152.03 11.56L152.03 11.56L152.03 11.56Q152.32 11.56 152.71 11.33L152.71 11.33L152.71 11.33Q153.79 10.70 154.50 9.76L154.50 9.76L154.50 9.76Q155.22 8.82 155.22 7.71L155.22 7.71ZM155.61 5.18L155.61 5.18Q156.11 5.66 156.39 6.26L156.39 6.26L156.39 6.26Q156.66 6.86 156.66 7.53L156.66 7.53L156.66 7.53Q156.66 8.50 156.10 9.49L156.10 9.49L156.10 9.49Q155.72 10.16 154.99 10.91L154.99 10.91L154.99 10.91Q154.27 11.65 153.38 12.16L153.38 12.16L153.38 12.16Q152.49 12.67 151.68 12.67L151.68 12.67L151.68 12.67Q151.17 12.67 150.72 12.45L150.72 12.45L150.72 12.45Q149.77 11.93 149.77 10.58L149.77 10.58L149.77 10.58Q149.77 9.62 150.21 8.46L150.21 8.46L150.21 8.46Q150.64 7.31 151.13 6.51L151.13 6.51L151.13 6.51Q152.32 4.62 153.64 4.13L153.64 4.13L153.64 4.13Q154 3.99 154.42 3.99L154.42 3.99L154.42 3.99Q154.91 3.99 155.25 4.23L155.25 4.23L155.25 4.23Q155.58 4.48 155.64 5.00L155.64 5.00L155.64 5.05L155.64 5.05Q155.64 5.10 155.61 5.18L155.61 5.18ZM162.82 4.77L162.82 4.77Q162.92 4.61 163.30 4.42L163.30 4.42L163.30 4.42Q163.69 4.23 163.98 4.23L163.98 4.23L163.98 4.23Q164.40 4.23 164.35 4.62L164.35 4.62L164.35 4.62Q164.35 4.66 164.33 4.75L164.33 4.75L164.33 4.75Q164.32 4.83 164.30 4.87L164.30 4.87L164.30 4.90L164.30 4.90Q164.16 5.84 163.99 7.15L163.99 7.15L163.99 7.15Q163.81 8.46 163.72 9.20L163.72 9.20L163.35 11.89L163.35 11.89Q163.31 12.17 162.95 12.36L162.95 12.36L162.95 12.36Q162.60 12.56 162.23 12.56L162.23 12.56L162.23 12.56Q162.01 12.56 161.88 12.46L161.88 12.46L161.88 12.46Q161.74 12.36 161.77 12.18L161.77 12.18L161.77 12.18Q161.92 10.98 162.26 8.57L162.26 8.57L162.12 8.81L162.12 8.81Q161.76 9.42 161.57 9.70L161.57 9.70L161.57 9.70Q160.94 10.68 160.24 11.35L160.24 11.35L160.24 11.35Q159.53 12.03 158.62 12.25L158.62 12.25L158.62 12.25Q158.27 12.33 157.99 12.33L157.99 12.33L157.99 12.33Q156.67 12.33 156.67 10.54L156.67 10.54L156.67 10.54Q156.67 9.70 156.94 8.63L156.94 8.63L156.94 8.63Q157.21 7.56 157.55 6.62L157.55 6.62L157.55 6.62Q157.89 5.68 158.14 5.19L158.14 5.19L158.14 5.19Q158.24 5.00 158.59 4.85L158.59 4.85L158.59 4.85Q158.93 4.70 159.25 4.70L159.25 4.70L159.25 4.70Q159.45 4.70 159.56 4.77L159.56 4.77L159.56 4.77Q159.68 4.84 159.68 4.97L159.68 4.97L159.68 4.97Q159.68 5.03 159.64 5.14L159.64 5.14L159.64 5.14Q158.70 7.20 158.42 8.88L158.42 8.88L158.35 9.25L158.35 9.25Q158.24 9.84 158.24 10.15L158.24 10.15L158.24 10.15Q158.24 10.30 158.26 10.37L158.26 10.37L158.26 10.37Q158.42 11.09 158.80 11.05L158.80 11.05L158.80 11.05Q158.96 11.03 159.17 10.78L159.17 10.78L159.17 10.78Q159.39 10.53 159.45 10.47L159.45 10.47L159.45 10.47Q160.13 9.67 160.69 8.73L160.69 8.73L160.69 8.73Q161.25 7.78 161.99 6.36L161.99 6.36L161.99 6.36Q162.37 5.59 162.82 4.77L162.82 4.77ZM168.21 3.88L168.21 3.88Q168.62 3.71 168.95 3.71L168.95 3.71L168.95 3.71Q169.32 3.71 169.54 3.90L169.54 3.90L169.54 3.90Q169.76 4.09 169.76 4.51L169.76 4.51L169.76 4.51Q169.76 4.91 169.64 5.39L169.64 5.39L169.64 5.39Q169.51 5.87 169.29 6.51L169.29 6.51L169.09 7.10L169.09 7.10Q169.01 7.36 168.66 7.55L168.66 7.55L168.66 7.55Q168.31 7.73 167.99 7.73L167.99 7.73L167.99 7.73Q167.78 7.73 167.67 7.64L167.67 7.64L167.67 7.64Q167.57 7.55 167.62 7.36L167.62 7.36L167.62 7.36Q167.87 6.58 168.13 5.63L168.13 5.63L168.13 5.63Q168.18 5.19 168.21 5.05L168.21 5.05L168.15 5.11L168.15 5.11Q167.08 6.03 166.18 7.43L166.18 7.43L166.18 7.43Q165.77 9.66 165.68 11.90L165.68 11.90L165.68 11.90Q165.66 12.17 165.32 12.37L165.32 12.37L165.32 12.37Q164.98 12.57 164.61 12.57L164.61 12.57L164.61 12.57Q164.40 12.57 164.26 12.47L164.26 12.47L164.26 12.47Q164.12 12.38 164.14 12.18L164.14 12.18L164.14 12.18Q164.25 10.16 164.57 8.26L164.57 8.26L164.57 8.26Q164.43 8.16 164.43 8.04L164.43 8.04L164.43 8.04Q164.43 7.95 164.49 7.85L164.49 7.85L164.70 7.50L164.70 7.50Q165.00 5.89 165.45 4.27L165.45 4.27L165.45 4.27Q165.52 4.02 165.89 3.83L165.89 3.83L165.89 3.83Q166.26 3.64 166.60 3.64L166.60 3.64L166.60 3.64Q166.81 3.64 166.92 3.72L166.92 3.72L166.92 3.72Q167.03 3.81 166.98 3.98L166.98 3.98L166.98 3.98Q166.75 4.76 166.70 5.01L166.70 5.01L166.70 5.01Q167.54 4.17 168.21 3.88L168.21 3.88ZM177.06 0.21L177.06 0.21Q177.83 0.21 178.12 0.87L178.12 0.87L178.12 0.87Q178.40 1.53 178.40 2.59L178.40 2.59L178.40 2.59Q178.40 2.72 178.36 3.81L178.36 3.81L178.36 3.81Q178.33 4.17 178.33 4.30L178.33 4.30L178.33 4.30Q178.32 4.58 177.99 4.77L177.99 4.77L177.99 4.77Q177.66 4.97 177.31 4.97L177.31 4.97L177.31 4.97Q176.82 4.97 176.82 4.58L176.82 4.58L176.82 4.58Q176.82 4.35 176.85 3.85L176.85 3.85L176.85 3.85Q176.89 3.36 176.89 2.88L176.89 2.88L176.89 2.88Q176.89 2.38 176.83 1.99L176.83 1.99L176.83 1.99Q176.81 1.88 176.76 1.74L176.76 1.74L176.76 1.74Q176.72 1.60 176.71 1.53L176.71 1.53L176.69 1.47L176.58 1.85L176.58 1.85Q176.27 2.91 176.11 3.57L176.11 3.57L176.11 3.57Q175.94 4.23 175.84 4.97L175.84 4.97L175.84 4.97Q175.76 5.52 175.72 5.90L175.72 5.90L175.72 5.90Q175.69 6.29 175.66 6.83L175.66 6.83L175.66 6.83Q176.68 6.72 177.51 6.68L177.51 6.68L177.51 6.68Q177.95 6.66 177.95 6.92L177.95 6.92L177.95 6.92Q177.95 7.11 177.72 7.34L177.72 7.34L177.72 7.34Q177.49 7.57 177.24 7.62L177.24 7.62L177.24 7.62Q176.40 7.77 175.59 7.87L175.59 7.87L175.52 9.46L175.52 9.46Q175.41 11.80 175.41 12.08L175.41 12.08L175.41 12.08Q175.39 12.36 175.03 12.57L175.03 12.57L175.03 12.57Q174.68 12.78 174.31 12.78L174.31 12.78L174.31 12.78Q174.10 12.78 173.96 12.69L173.96 12.69L173.96 12.69Q173.82 12.60 173.82 12.42L173.82 12.42L173.82 12.42Q173.82 11.23 173.96 8.93L173.96 8.93L174.01 8.04L172.41 8.19L172.41 8.19Q172.17 8.22 172.05 8.15L172.05 8.15L172.05 8.15Q171.93 8.08 171.93 7.94L171.93 7.94L171.93 7.94Q171.93 7.73 172.17 7.49L172.17 7.49L172.17 7.49Q172.40 7.25 172.66 7.22L172.66 7.22L174.06 7.04L174.06 7.04Q174.15 5.82 174.27 5.06L174.27 5.06L174.27 5.06Q174.38 4.30 174.66 3.11L174.66 3.11L174.66 3.11Q174.87 2.30 175.13 1.69L175.13 1.69L175.13 1.69Q175.38 1.08 175.85 0.64L175.85 0.64L175.85 0.64Q176.33 0.21 177.06 0.21L177.06 0.21ZM180.60 1.71L180.60 1.71Q180.45 1.67 180.29 1.67L180.29 1.67L180.29 1.67Q179.98 1.67 179.75 1.82L179.75 1.82L179.75 1.82Q179.44 1.99 179.40 2.16L179.40 2.16L179.40 2.16Q179.21 2.81 179.16 3.02L179.16 3.02L179.16 3.07L179.16 3.07Q179.16 3.14 179.21 3.20L179.21 3.20L179.21 3.20Q179.27 3.26 179.34 3.29L179.34 3.29L179.34 3.29Q179.45 3.35 179.59 3.35L179.59 3.35L179.59 3.35Q179.82 3.35 180.13 3.21L180.13 3.21L180.13 3.21Q180.45 3.08 180.54 2.84L180.54 2.84L180.54 2.84Q180.63 2.60 180.78 2.00L180.78 2.00L180.78 1.97L180.78 1.97Q180.78 1.90 180.73 1.83L180.73 1.83L180.73 1.83Q180.67 1.75 180.60 1.71L180.60 1.71ZM180.52 4.30L180.05 7.32L180.05 7.32Q179.97 7.88 179.74 9.35L179.74 9.35L179.74 9.35Q179.51 10.81 179.35 12.00L179.35 12.00L179.35 12.00Q179.31 12.26 178.98 12.45L178.98 12.45L178.98 12.45Q178.65 12.64 178.32 12.64L178.32 12.64L178.32 12.64Q178.09 12.64 177.98 12.55L177.98 12.55L177.98 12.55Q177.86 12.46 177.88 12.28L177.88 12.28L177.88 12.28Q178.12 10.88 178.40 9.08L178.40 9.08L178.40 9.08Q178.67 7.28 178.78 6.51L178.78 6.51L179.07 4.59L179.07 4.59Q179.12 4.34 179.46 4.16L179.46 4.16L179.46 4.16Q179.80 3.98 180.12 3.98L180.12 3.98L180.12 3.98Q180.32 3.98 180.43 4.06L180.43 4.06L180.43 4.06Q180.54 4.14 180.52 4.30L180.52 4.30ZM186.40 4.06L186.40 4.06Q186.96 4.37 186.96 5.36L186.96 5.36L186.96 5.36Q186.96 5.73 186.89 6.17L186.89 6.17L186.89 6.17Q186.82 6.61 186.73 7L186.73 7L186.63 7.56L186.05 11.91L186.05 11.91Q186.33 11.98 186.28 12.26L186.28 12.26L186.28 12.26Q186.13 13.03 185.19 13.24L185.19 13.24L185.05 13.26L185.05 13.26Q184.81 13.26 184.63 13.16L184.63 13.16L184.63 13.16Q184.45 13.06 184.48 12.85L184.48 12.85L184.48 12.85Q185.07 8.60 185.35 6.47L185.35 6.47L185.35 6.47Q185.36 6.41 185.41 6.15L185.41 6.15L185.41 6.15Q185.46 5.88 185.46 5.64L185.46 5.64L185.46 5.64Q185.46 5.19 185.22 5.18L185.22 5.18L185.22 5.18Q185.04 5.15 184.63 5.68L184.63 5.68L184.63 5.68Q184.21 6.20 184.17 6.26L184.17 6.26L184.17 6.26Q183.33 7.21 182.60 8.39L182.60 8.39L182.60 8.39Q182.27 10.43 182.07 11.69L182.07 11.69L182.00 12.14L182.00 12.14Q181.96 12.40 181.61 12.60L181.61 12.60L181.61 12.60Q181.26 12.80 180.92 12.80L180.92 12.80L180.92 12.80Q180.71 12.80 180.59 12.71L180.59 12.71L180.59 12.71Q180.47 12.61 180.50 12.43L180.50 12.43L180.50 12.43Q180.87 10.29 181.08 8.93L181.08 8.93L181.08 8.93Q180.99 8.85 180.99 8.74L180.99 8.74L180.99 8.74Q180.99 8.67 181.03 8.58L181.03 8.58L181.03 8.58Q181.08 8.51 181.11 8.46L181.11 8.46L181.11 8.46Q181.15 8.40 181.17 8.36L181.17 8.36L181.73 4.97L181.73 4.97Q181.78 4.72 182.11 4.54L182.11 4.54L182.11 4.54Q182.45 4.35 182.78 4.35L182.78 4.35L182.78 4.35Q182.99 4.35 183.11 4.44L183.11 4.44L183.11 4.44Q183.22 4.52 183.19 4.69L183.19 4.69L183.19 4.69Q183.12 5.15 182.99 5.88L182.99 5.88L183.58 5.25L183.58 5.25Q184.17 4.66 184.70 4.28L184.70 4.28L184.70 4.28Q185.23 3.91 185.78 3.91L185.78 3.91L185.78 3.91Q186.13 3.91 186.40 4.06L186.40 4.06ZM189.76 11.13L189.76 11.13Q190.33 10.36 190.75 9.51L190.75 9.51L190.75 9.51Q191.11 8.81 191.52 7.77L191.52 7.77L191.52 7.77Q191.93 6.73 191.93 6.06L191.93 6.06L191.93 6.06Q191.93 5.84 191.87 5.71L191.87 5.71L191.87 5.71Q191.45 5.74 191.37 5.46L191.37 5.46L191.37 5.46Q191.27 5.11 191.16 5.11L191.16 5.11L191.16 5.11Q191.07 5.11 190.99 5.21L190.99 5.21L190.99 5.21Q190.90 5.32 190.75 5.59L190.75 5.59L190.75 5.59Q190.55 5.88 190.33 6.40L190.33 6.40L190.33 6.40Q189.87 7.38 189.57 8.32L189.57 8.32L189.57 8.32Q189.24 9.28 189.04 10.07L189.04 10.07L189.04 10.07Q188.85 10.85 188.85 11.56L188.85 11.56L188.85 11.56Q188.85 11.87 188.89 12.17L188.89 12.17L189.18 11.86L189.18 11.86Q189.45 11.55 189.76 11.13L189.76 11.13ZM192.71 4.52L192.71 4.52Q193.13 4.69 193.31 5.00L193.31 5.00L193.31 5.00Q193.49 5.31 193.49 5.78L193.49 5.78L193.49 5.78Q193.49 6.23 193.27 7.32L193.27 7.32L193.27 7.32Q192.65 10.21 192.27 12.59L192.27 12.59L192.27 12.59Q191.88 14.97 191.72 17.29L191.72 17.29L191.72 17.29Q191.70 17.49 191.67 17.63L191.67 17.63L191.67 17.63Q191.63 17.78 191.53 17.99L191.53 17.99L191.53 17.99Q191.38 18.30 191.05 18.54L191.05 18.54L191.05 18.54Q190.72 18.79 190.43 18.79L190.43 18.79L190.43 18.79Q190.16 18.79 190.02 18.55L190.02 18.55L189.62 17.85L189.62 17.85Q188.73 16.31 188.12 15.33L188.12 15.33L188.12 15.33Q188.08 15.27 188.08 15.19L188.08 15.19L188.08 15.19Q188.08 14.95 188.43 14.74L188.43 14.74L188.43 14.74Q188.78 14.53 189.14 14.53L189.14 14.53L189.14 14.53Q189.50 14.53 189.64 14.77L189.64 14.77L189.64 14.77Q189.84 15.13 190.09 15.55L190.09 15.55L190.37 16.04L190.37 16.04Q190.68 13.57 191.06 11.37L191.06 11.37L191.06 11.37Q190.41 12.26 189.71 12.91L189.71 12.91L189.71 12.91Q189 13.55 188.40 13.55L188.40 13.55L188.40 13.55Q187.94 13.55 187.60 13.13L187.60 13.13L187.60 13.13Q187.32 12.78 187.32 12.12L187.32 12.12L187.32 12.12Q187.32 11.76 187.38 11.41L187.38 11.41L187.38 11.41Q187.45 11.06 187.59 10.46L187.59 10.46L187.67 10.12L187.67 10.12Q188.09 8.22 188.92 6.41L188.92 6.41L188.92 6.41Q189.31 5.59 189.71 5.04L189.71 5.04L189.71 5.04Q190.11 4.49 190.72 4.21L190.72 4.21L190.72 4.21Q191.10 4.03 191.56 4.03L191.56 4.03L191.56 4.03Q192.25 4.03 192.61 4.49L192.61 4.49L192.71 4.52ZM197.36 5.07L197.36 5.07Q196.64 5.61 196.20 6.83L196.20 6.83L196.20 6.83Q197.57 6.31 198.67 5.96L198.67 5.96L198.67 5.96Q198.21 5.32 197.74 5.10L197.74 5.10L197.74 5.10Q197.64 5.05 197.55 5.04L197.55 5.04L197.55 5.04Q197.46 5.03 197.44 5.03L197.44 5.03L197.44 5.03Q197.46 5.04 197.42 5.05L197.42 5.05L197.42 5.05Q197.39 5.07 197.36 5.07L197.36 5.07ZM197.41 4.07L197.41 4.07Q197.64 4.02 197.89 4.02L197.89 4.02L197.89 4.02Q199.23 4.02 200.33 5.82L200.33 5.82L200.33 5.82Q200.37 5.88 200.37 5.96L200.37 5.96L200.37 5.96Q200.37 6.12 200.17 6.29L200.17 6.29L200.17 6.29Q200.02 6.45 199.78 6.55L199.78 6.55L199.78 6.55Q198.38 7.17 195.89 8.02L195.89 8.02L195.89 8.02Q195.75 8.74 195.75 9.49L195.75 9.49L195.75 9.49Q195.75 9.84 195.76 10.00L195.76 10.00L195.76 10.00Q195.79 10.63 196.01 11.09L196.01 11.09L196.01 11.09Q196.08 11.24 196.22 11.38L196.22 11.38L196.22 11.38Q196.35 11.52 196.42 11.56L196.42 11.56L196.42 11.56Q196.46 11.59 196.56 11.59L196.56 11.59L196.56 11.59Q196.66 11.59 196.79 11.54L196.79 11.54L196.79 11.54Q196.92 11.48 197.09 11.38L197.09 11.38L197.09 11.38Q197.50 11.14 197.85 10.84L197.85 10.84L197.85 10.84Q198.20 10.53 198.69 10.04L198.69 10.04L198.69 10.04Q198.88 9.84 199.35 9.84L199.35 9.84L199.35 9.84Q199.60 9.84 199.77 9.92L199.77 9.92L199.77 9.92Q199.95 10.00 199.95 10.14L199.95 10.14L199.95 10.14Q199.95 10.26 199.81 10.42L199.81 10.42L199.81 10.42Q198.94 11.35 198.03 12.01L198.03 12.01L198.03 12.01Q197.12 12.67 196.21 12.67L196.21 12.67L196.21 12.67Q195.78 12.67 195.40 12.49L195.40 12.49L195.40 12.49Q194.77 12.19 194.49 11.55L194.49 11.55L194.49 11.55Q194.21 10.91 194.21 10.04L194.21 10.04L194.21 10.04Q194.21 9.39 194.38 8.53L194.38 8.53L194.26 8.55L194.15 8.60L194.15 8.60Q193.94 8.67 193.82 8.67L193.82 8.67L193.82 8.67Q193.62 8.67 193.51 8.57L193.51 8.57L193.51 8.57Q193.40 8.47 193.40 8.32L193.40 8.32L193.40 8.32Q193.40 8.13 193.54 7.96L193.54 7.96L193.54 7.96Q193.69 7.78 193.98 7.67L193.98 7.67L194.67 7.41L194.67 7.41Q194.80 7.01 195.05 6.38L195.05 6.38L195.05 6.38Q195.44 5.52 196.03 4.89L196.03 4.89L196.03 4.89Q196.62 4.26 197.41 4.07L197.41 4.07ZM204.40 3.88L204.40 3.88Q204.81 3.71 205.14 3.71L205.14 3.71L205.14 3.71Q205.51 3.71 205.73 3.90L205.73 3.90L205.73 3.90Q205.95 4.09 205.95 4.51L205.95 4.51L205.95 4.51Q205.95 4.91 205.83 5.39L205.83 5.39L205.83 5.39Q205.70 5.87 205.48 6.51L205.48 6.51L205.28 7.10L205.28 7.10Q205.20 7.36 204.85 7.55L204.85 7.55L204.85 7.55Q204.50 7.73 204.18 7.73L204.18 7.73L204.18 7.73Q203.97 7.73 203.86 7.64L203.86 7.64L203.86 7.64Q203.76 7.55 203.81 7.36L203.81 7.36L203.81 7.36Q204.06 6.58 204.32 5.63L204.32 5.63L204.32 5.63Q204.37 5.19 204.40 5.05L204.40 5.05L204.34 5.11L204.34 5.11Q203.27 6.03 202.37 7.43L202.37 7.43L202.37 7.43Q201.96 9.66 201.87 11.90L201.87 11.90L201.87 11.90Q201.85 12.17 201.51 12.37L201.51 12.37L201.51 12.37Q201.17 12.57 200.80 12.57L200.80 12.57L200.80 12.57Q200.59 12.57 200.45 12.47L200.45 12.47L200.45 12.47Q200.31 12.38 200.33 12.18L200.33 12.18L200.33 12.18Q200.44 10.16 200.76 8.26L200.76 8.26L200.76 8.26Q200.62 8.16 200.62 8.04L200.62 8.04L200.62 8.04Q200.62 7.95 200.68 7.85L200.68 7.85L200.89 7.50L200.89 7.50Q201.19 5.89 201.64 4.27L201.64 4.27L201.64 4.27Q201.71 4.02 202.08 3.83L202.08 3.83L202.08 3.83Q202.45 3.64 202.79 3.64L202.79 3.64L202.79 3.64Q203.00 3.64 203.11 3.72L203.11 3.72L203.11 3.72Q203.22 3.81 203.17 3.98L203.17 3.98L203.17 3.98Q202.94 4.76 202.89 5.01L202.89 5.01L202.89 5.01Q203.73 4.17 204.40 3.88L204.40 3.88ZM211.01 9.49L211.01 9.49Q211.11 9.39 211.32 9.34L211.32 9.34L211.32 9.34Q211.53 9.28 211.74 9.28L211.74 9.28L211.74 9.28Q212.25 9.28 212.25 9.55L212.25 9.55L212.25 9.55Q212.25 9.67 212.11 9.83L212.11 9.83L212.11 9.83Q211.95 10.02 211.81 10.20L211.81 10.20L211.81 10.20Q211.67 10.37 211.55 10.51L211.55 10.51L211.55 10.51Q210.94 11.31 210.45 11.78L210.45 11.78L210.45 11.78Q209.96 12.25 209.30 12.46L209.30 12.46L209.30 12.46Q208.99 12.56 208.64 12.56L208.64 12.56L208.64 12.56Q208.05 12.56 207.64 12.22L207.64 12.22L207.64 12.22Q207.23 11.89 207.16 11.24L207.16 11.24L207.16 11.24Q207.13 11.06 207.13 10.68L207.13 10.68L207.13 10.68Q207.13 9.95 207.30 9.20L207.30 9.20L207.30 9.20Q207.47 8.44 207.79 7.31L207.79 7.31L207.96 6.71L207.42 6.76L207.42 6.76Q207.03 6.79 206.36 6.87L206.36 6.87L206.36 6.87Q206.04 6.92 205.87 6.80L205.87 6.80L205.87 6.80Q205.70 6.69 205.70 6.51L205.70 6.51L205.70 6.51Q205.70 6.30 205.91 6.10L205.91 6.10L205.91 6.10Q206.11 5.89 206.43 5.87L206.43 5.87L208.24 5.66L208.24 5.66Q208.85 3.39 209.62 1.20L209.62 1.20L209.62 1.20Q209.69 1.01 210.01 0.86L210.01 0.86L210.01 0.86Q210.32 0.71 210.62 0.71L210.62 0.71L210.62 0.71Q210.80 0.71 210.92 0.78L210.92 0.78L210.92 0.78Q211.04 0.85 211.04 0.99L211.04 0.99L211.04 0.99Q211.04 1.04 211.01 1.15L211.01 1.15L211.01 1.15Q210.20 3.43 209.65 5.50L209.65 5.50L209.65 5.50Q210.63 5.40 210.95 5.40L210.95 5.40L210.95 5.40Q211.36 5.40 211.36 5.64L211.36 5.64L211.36 5.64Q211.36 5.84 211.12 6.07L211.12 6.07L211.12 6.07Q210.88 6.30 210.63 6.36L210.63 6.36L210.63 6.36Q209.79 6.50 209.37 6.55L209.37 6.55L209.37 6.55Q209.13 7.50 208.95 8.41L208.95 8.41L208.95 8.41Q208.92 8.53 208.75 9.23L208.75 9.23L208.75 9.23Q208.59 9.94 208.59 10.56L208.59 10.56L208.59 10.56Q208.59 11.35 209.01 11.42L209.01 11.42L209.01 11.42Q209.27 11.47 209.62 11.12L209.62 11.12L209.62 11.12Q209.96 10.78 210.50 10.09L210.50 10.09L210.50 10.09Q210.84 9.66 211.01 9.49L211.01 9.49ZM215.10 1.71L215.10 1.71Q214.94 1.67 214.79 1.67L214.79 1.67L214.79 1.67Q214.48 1.67 214.24 1.82L214.24 1.82L214.24 1.82Q213.93 1.99 213.89 2.16L213.89 2.16L213.89 2.16Q213.71 2.81 213.65 3.02L213.65 3.02L213.65 3.07L213.65 3.07Q213.65 3.14 213.71 3.20L213.71 3.20L213.71 3.20Q213.77 3.26 213.84 3.29L213.84 3.29L213.84 3.29Q213.95 3.35 214.09 3.35L214.09 3.35L214.09 3.35Q214.31 3.35 214.63 3.21L214.63 3.21L214.63 3.21Q214.94 3.08 215.04 2.84L215.04 2.84L215.04 2.84Q215.12 2.60 215.28 2.00L215.28 2.00L215.28 1.97L215.28 1.97Q215.28 1.90 215.22 1.83L215.22 1.83L215.22 1.83Q215.17 1.75 215.10 1.71L215.10 1.71ZM215.01 4.30L214.55 7.32L214.55 7.32Q214.47 7.88 214.24 9.35L214.24 9.35L214.24 9.35Q214.00 10.81 213.85 12.00L213.85 12.00L213.85 12.00Q213.81 12.26 213.48 12.45L213.48 12.45L213.48 12.45Q213.15 12.64 212.81 12.64L212.81 12.64L212.81 12.64Q212.59 12.64 212.47 12.55L212.47 12.55L212.47 12.55Q212.35 12.46 212.38 12.28L212.38 12.28L212.38 12.28Q212.62 10.88 212.89 9.08L212.89 9.08L212.89 9.08Q213.16 7.28 213.28 6.51L213.28 6.51L213.57 4.59L213.57 4.59Q213.61 4.34 213.96 4.16L213.96 4.16L213.96 4.16Q214.30 3.98 214.62 3.98L214.62 3.98L214.62 3.98Q214.82 3.98 214.93 4.06L214.93 4.06L214.93 4.06Q215.04 4.14 215.01 4.30L215.01 4.30ZM219.53 9.03L219.53 9.03Q219.59 8.79 219.59 8.47L219.59 8.47L219.59 8.47Q219.59 7.35 218.75 6.29L218.75 6.29L218.75 6.29Q218.27 5.67 217.74 5.29L217.74 5.29L217.74 5.29Q217.32 7.91 217.08 9.52L217.08 9.52L217.08 9.52Q216.97 10.18 216.78 11.49L216.78 11.49L216.78 11.49Q217.20 11.69 217.55 11.69L217.55 11.69L217.55 11.69Q218.13 11.69 218.61 11.12L218.61 11.12L218.61 11.12Q218.96 10.70 219.20 10.15L219.20 10.15L219.20 10.15Q219.44 9.60 219.53 9.03L219.53 9.03ZM217.90 3.93L217.90 3.93Q218.76 4.23 219.46 4.92L219.46 4.92L219.46 4.92Q220.16 5.61 220.56 6.53L220.56 6.53L220.56 6.53Q220.96 7.45 220.96 8.36L220.96 8.36L220.96 8.36Q220.96 8.85 220.84 9.31L220.84 9.31L220.84 9.31Q220.57 10.28 220.03 11.04L220.03 11.04L220.03 11.04Q219.49 11.80 218.74 12.24L218.74 12.24L218.74 12.24Q217.99 12.68 217.14 12.68L217.14 12.68L217.14 12.68Q216.87 12.68 216.59 12.64L216.59 12.64L216.59 12.64Q216.03 16.23 215.59 18.49L215.59 18.49L215.59 18.49Q215.53 18.76 215.19 18.94L215.19 18.94L215.19 18.94Q214.86 19.12 214.51 19.12L214.51 19.12L214.51 19.12Q214.27 19.12 214.14 19.03L214.14 19.03L214.14 19.03Q214.00 18.93 214.05 18.73L214.05 18.73L214.05 18.73Q214.73 15.26 215.25 12.11L215.25 12.11L215.22 12.10L215.22 12.10Q215.04 11.97 215.04 11.82L215.04 11.82L215.04 11.82Q215.04 11.58 215.38 11.37L215.38 11.37L215.38 11.37Q215.82 8.78 216.38 4.72L216.38 4.72L216.20 4.73L216.05 4.75L216.05 4.75Q215.81 4.75 215.70 4.66L215.70 4.66L215.70 4.66Q215.59 4.58 215.59 4.45L215.59 4.45L215.59 4.45Q215.59 4.24 215.80 4.05L215.80 4.05L215.80 4.05Q216.01 3.85 216.31 3.79L216.31 3.79L216.31 3.79Q216.57 3.75 216.82 3.75L216.82 3.75L216.82 3.75Q217.00 3.75 217.31 3.78L217.31 3.78L217.31 3.78Q217.76 3.72 217.90 3.93L217.90 3.93ZM223.31 5.98L223.31 5.98Q223.31 6.51 223.59 6.92L223.59 6.92L223.59 6.92Q223.86 7.32 224.25 7.60L224.25 7.60L224.25 7.60Q224.64 7.88 225.32 8.26L225.32 8.26L225.32 8.26Q226.23 8.78 226.71 9.20L226.71 9.20L226.71 9.20Q227.19 9.62 227.35 10.25L227.35 10.25L227.35 10.25Q227.40 10.53 227.40 10.65L227.40 10.65L227.40 10.65Q227.40 11.63 226.37 12.06L226.37 12.06L226.37 12.06Q225.33 12.49 224.01 12.49L224.01 12.49L224.01 12.49Q223.50 12.49 223.10 12.42L223.10 12.42L223.10 12.42Q222.64 12.33 222.15 12.09L222.15 12.09L222.15 12.09Q221.65 11.84 221.32 11.49L221.32 11.49L221.32 11.49Q220.99 11.13 220.99 10.75L220.99 10.75L220.99 10.75Q220.99 10.16 221.90 9.67L221.90 9.67L221.90 9.67Q222.15 9.55 222.39 9.55L222.39 9.55L222.39 9.55Q222.61 9.55 222.76 9.65L222.76 9.65L222.76 9.65Q222.91 9.74 222.91 9.88L222.91 9.88L222.91 9.88Q222.91 10.14 222.50 10.37L222.50 10.37L222.50 10.37Q222.42 10.42 222.42 10.50L222.42 10.50L222.42 10.50Q222.42 10.67 222.68 10.91L222.68 10.91L222.68 10.91Q222.95 11.14 223.10 11.23L223.10 11.23L223.10 11.23Q223.52 11.47 224.45 11.52L224.45 11.52L224.45 11.52Q224.56 11.54 224.84 11.54L224.84 11.54L224.84 11.54Q225.34 11.54 225.65 11.37L225.65 11.37L225.65 11.37Q225.96 11.20 225.92 10.75L225.92 10.75L225.92 10.75Q225.86 10.15 224.70 9.39L224.70 9.39L224.17 9.06L224.17 9.06Q223.44 8.61 222.97 8.27L222.97 8.27L222.97 8.27Q222.50 7.92 222.17 7.44L222.17 7.44L222.17 7.44Q221.83 6.96 221.83 6.36L221.83 6.36L221.83 6.36Q221.83 5.98 221.97 5.60L221.97 5.60L221.97 5.60Q222.28 4.69 223.12 4.19L223.12 4.19L223.12 4.19Q223.96 3.70 224.92 3.70L224.92 3.70L224.92 3.70Q225.92 3.70 226.60 4.20L226.60 4.20L226.60 4.20Q227.28 4.70 227.28 5.63L227.28 5.63L227.28 5.63Q227.28 5.92 227.19 6.26L227.19 6.26L227.19 6.26Q227.14 6.51 226.77 6.69L226.77 6.69L226.77 6.69Q226.41 6.87 226.09 6.87L226.09 6.87L226.09 6.87Q225.89 6.87 225.79 6.79L225.79 6.79L225.79 6.79Q225.68 6.71 225.74 6.55L225.74 6.55L225.74 6.55Q225.82 6.26 225.82 5.96L225.82 5.96L225.82 5.96Q225.82 5.50 225.58 5.18L225.58 5.18L225.58 5.18Q225.34 4.86 224.88 4.73L224.88 4.73L224.88 4.73Q224.63 4.68 224.50 4.68L224.50 4.68L224.50 4.68Q224 4.68 223.66 5.03L223.66 5.03L223.66 5.03Q223.31 5.39 223.31 5.98L223.31 5.98Z"></path></g><!----><!----></svg>