<svg data-v-fde0c5aa="" xmlns="http://www.w3.org/2000/svg" viewBox="0 0 300 300" class="icon"><!----><defs data-v-fde0c5aa=""><linearGradient data-v-fde0c5aa="" gradientTransform="rotate(25)" id="32f81ed1-9f46-48ac-adb3-6fd053113cf1" x1="0%" y1="0%" x2="100%" y2="0%"><stop data-v-fde0c5aa="" offset="0%" stop-color="#181B80" stop-opacity="1"></stop><stop data-v-fde0c5aa="" offset="100%" stop-color="#181ED9" stop-opacity="1"></stop></linearGradient></defs><rect data-v-fde0c5aa="" fill="url(#32f81ed1-9f46-48ac-adb3-6fd053113cf1)" x="0" y="0" width="300px" height="300px" class="logo-background-square"></rect><!----><defs data-v-fde0c5aa=""><!----></defs><g data-v-fde0c5aa="" id="dd01d786-6d58-480e-baea-894ba889576c" fill="#ffffff" stroke="none" transform="matrix(2.438943399469191,0,0,2.438943399469191,40.24755400175944,40.246332873977835)"><path d="M35.697 40.771V25.268l18.604 7.751zM72.483 81.645H17.516a8.457 8.457 0 0 0-8.457 8.457H80.94a8.458 8.458 0 0 0-8.457-8.457zM58.742 72.483c-4.857 0-8.809-3.951-8.809-8.811 0-4.856 3.951-8.809 8.809-8.809 4.856 0 8.809 3.952 8.809 8.809-.001 4.86-3.953 8.811-8.809 8.811zm0-14.8c-3.303 0-5.991 2.688-5.991 5.99s2.688 5.99 5.991 5.99c3.303 0 5.99-2.688 5.99-5.99s-2.688-5.99-5.99-5.99z"></path><path d="M51.342 83.054H31.257a4.587 4.587 0 0 1-4.58-4.581 4.584 4.584 0 0 1 4.58-4.58h20.084v2.819H31.257a1.763 1.763 0 0 0 0 3.523h20.084v2.819z"></path><path d="M67.55 83.054H51.342a1.41 1.41 0 0 1 0-2.819h13.39v-2.818c0-2.719-2.688-4.933-5.99-4.933-3.657 0-5.991 1.85-5.991 2.818a1.41 1.41 0 0 1-2.818 0c0-3.057 4.033-5.639 8.809-5.639 4.856 0 8.809 3.479 8.809 7.753v5.638zM78.825 66.14H64.417l.222-1.603c.056-.391.093-.622.093-.864a5.997 5.997 0 0 0-5.99-5.99 5.998 5.998 0 0 0-5.991 5.99c0 .266.043.519.081.774l.241 1.615-1.623.078h-5.028l-.411-.401c-2.255-2.208-6.113-2.207-8.365-.001l-.41.402H11.174c-5.44 0-9.866-4.426-9.866-9.865V9.764c0-5.44 4.425-9.865 9.866-9.865h67.651c5.44 0 9.867 4.425 9.867 9.865v46.511c0 5.439-4.426 9.865-9.867 9.865zm-11.282-2.82h11.282c3.887 0 7.048-3.16 7.048-7.046V9.764c0-3.886-3.162-7.047-7.048-7.047H11.174c-3.886 0-7.048 3.162-7.048 7.047v46.511c0 3.886 3.162 7.046 7.048 7.046h24.939c3.185-2.732 8.24-2.734 11.431 0h2.396c.186-4.693 4.063-8.456 8.802-8.456 4.739-.001 8.615 3.762 8.801 8.455z"></path><path d="M47.572 76.712H36.085l-.411-.403a8.742 8.742 0 0 1-2.655-6.291c0-4.859 3.952-8.811 8.809-8.811 4.857 0 8.809 3.951 8.809 8.811a8.733 8.733 0 0 1-2.654 6.291l-.411.403zm-10.301-2.819h9.116a5.926 5.926 0 0 0 1.432-3.875 5.997 5.997 0 0 0-5.991-5.992 5.997 5.997 0 0 0-5.99 5.992c0 1.433.505 2.789 1.433 3.875z"></path></g><!----></svg>